#N canvas 219 54 816 669 10;
#X declare -stdlib zexy/zexy;
#X declare -stdpath pd-minimoog;
#X obj 370 41 inlet~;
#N canvas 482 145 599 597 voltagenoise 0;
#X obj 502 477 +~ 1;
#X obj 495 506 s~ \$0.vnoise.4;
#N canvas 0 22 450 300 shotnoise 0;
#X obj 178 42 noise~;
#X obj 172 146 *~;
#X msg 312 28 20000;
#X floatatom 336 101 5 0 0 0 - - -, f 5;
#X obj 306 70 * 0.000324;
#X obj 313 128 sig~;
#X obj 368 15 loadbang;
#X obj 185 106 shotnoise/poisson~;
#X obj 367 39 f 12000;
#X obj 309 49 * 0.1;
#X obj 353 15 bng 15 250 50 0 empty empty empty 17 7 0 10 -262144 -1
-1;
#X obj 172 168 outlet~;
#X connect 0 0 1 0;
#X connect 0 0 7 0;
#X connect 1 0 11 0;
#X connect 2 0 9 0;
#X connect 4 0 3 0;
#X connect 4 0 5 0;
#X connect 5 0 7 1;
#X connect 6 0 8 0;
#X connect 7 0 1 1;
#X connect 8 0 9 0;
#X connect 9 0 4 0;
#X connect 10 0 8 0;
#X restore 407 148 pd shotnoise;
#X connect 0 0 1 0;
#X connect 2 0 0 0;
#X restore 685 602 pd voltagenoise;
#X obj 570 638 moog/singletons;
#X obj 525 37 inlet;
#X obj 646 126 switch~;
#X obj 582 100 tgl 36 1 empty empty empty 22 9 0 10 -114112 -1 -1 1
1;
#N canvas 0 50 450 300 memory 0;
#X obj 68 56 table \$0.memory 39;
#X restore 684 626 pd memory;
#X obj 315 211 moog/external~ \$0 \$0.memory 17;
#X obj 526 534 moog/output \$0;
#X obj 416 100 moog/filter~ \$0.memory 20 \$0;
#X obj 315 303 moog/controls \$0.memory \$2 18 \$0;
#X obj 368 79 throw~ \$0.external.in;
#X obj 100 100 moog/presets \$0 \$2;
#X obj 582 139 vsl 36 338 101 1 1 0 \$0.master.vol \$0.master.vol.set
empty 0 -9 0 10 -4160 -261234 -1 19336 1;
#N canvas 0 50 839 364 vol 0;
#X obj 203 231 r \$0.master.vol;
#X obj 148 205 s \$0.master.vol.set;
#N canvas 0 50 318 245 vol 0;
#X obj 124 99 - 1;
#X obj 125 118 - 100;
#X obj 126 141 * -1;
#X obj 97 43 inlet;
#X obj 132 175 outlet;
#X connect 0 0 1 0;
#X connect 1 0 2 0;
#X connect 2 0 4 0;
#X connect 3 0 0 0;
#X restore 213 261 pd vol;
#N canvas 454 66 318 245 ivol 0;
#X obj 97 43 inlet;
#X obj 132 175 outlet;
#X obj 125 118 * -1;
#X obj 126 141 + 1;
#X obj 124 99 - 100;
#X connect 0 0 4 0;
#X connect 2 0 3 0;
#X connect 3 0 1 0;
#X connect 4 0 2 0;
#X restore 257 149 pd ivol;
#X obj 354 255 dbtorms;
#X obj 360 286 s \$0.volume;
#X obj 442 280 moog/writemem \$0.memory 37 0;
#X obj 392 99 moog/readmem \$0.memory 37 0;
#X obj 214 290 s \$0.volume.dis.set;
#X obj 400 196 r \$0.volume.dis;
#X obj 214 119 r \$0.volume.dis;
#N canvas 454 66 318 245 ivol 0;
#X obj 97 43 inlet;
#X obj 132 175 outlet;
#X obj 125 118 * -1;
#X obj 126 141 + 1;
#X obj 124 99 - 100;
#X connect 0 0 4 0;
#X connect 2 0 3 0;
#X connect 3 0 1 0;
#X connect 4 0 2 0;
#X restore 190 154 pd ivol;
#X msg 179 181 set \$1;
#X obj 445 257 -;
#X msg 445 235 1 \$1;
#X obj 392 152 -;
#X msg 392 130 1 \$1;
#X obj 336 171 rmstodb;
#X obj 368 63 r \$0.ctrl.volume.rms;
#X obj 263 32 r \$0.ctrl.volume.db;
#X floatatom 355 319 5 0 0 0 - - -, f 5;
#X obj 126 281 dbtorms;
#X obj 56 345 s \$0.ctrl.volume.rms.feedback;
#X obj 145 326 s \$0.ctrl.volume.db.feedback;
#X connect 0 0 2 0;
#X connect 2 0 8 0;
#X connect 2 0 21 0;
#X connect 2 0 23 0;
#X connect 3 0 1 0;
#X connect 4 0 5 0;
#X connect 4 0 14 0;
#X connect 4 0 20 0;
#X connect 7 0 16 0;
#X connect 9 0 4 0;
#X connect 10 0 11 0;
#X connect 11 0 12 0;
#X connect 12 0 1 0;
#X connect 13 0 6 0;
#X connect 14 0 13 0;
#X connect 15 0 17 0;
#X connect 16 0 15 0;
#X connect 17 0 3 0;
#X connect 18 0 17 0;
#X connect 19 0 3 0;
#X connect 21 0 22 0;
#X restore 693 558 pd vol;
#X obj 582 481 nbx 3 14 -1e+37 1e+37 0 0 \$0.volume.dis \$0.volume.dis.set
empty 0 -8 0 10 -4160 -117497 -1 93.8497 256;
#X obj 531 571 outlet~;
#N canvas 871 124 450 300 copyright 0;
#X text 31 37 (c) Paulo Casaes \, 2010;
#X text 39 70 GPL v2. see COPYING;
#X text 50 95 https://github.com/pcasaes/pd-minimoog;
#X restore 69 633 pd copyright;
#X obj 416 232 moog/adsd~ \$0.memory \$0.filter 26 Filter \$0 filter
;
#X obj 416 364 moog/adsd~ \$0.memory \$0.loudness 30 Amp \$0 amp;
#X obj 100 211 moog/oscilatorControl~ \$0.memory 0 \$0 34 1;
#X obj 100 303 moog/oscilatorControl~ \$0.memory 4 \$0 35 2;
#X obj 100 395 moog/oscilatorControlLFO~ \$0.memory 8 \$0 3;
#N canvas 668 157 450 300 dependencies 0;
#X obj 71 50 declare -stdlib zexy/zexy;
#X obj 100 170 print minimoog depends on;
#X obj 103 113 loadbang;
#X obj 122 15 declare -stdpath pd-minimoog;
#X msg 101 137 zexy (v0.0) \, muug \, ggee \, flatgui \, hcs \, iemlib
\, ext13 \, mrpeach \, clyclone \, shotnoise;
#X connect 2 0 4 0;
#X connect 4 0 1 0;
#X restore 677 472 pd dependencies;
#X obj 403 642 moog/oscr \$1 \$0 \$3 \$4;
#X connect 0 0 11 0;
#X connect 3 0 5 0;
#X connect 5 0 4 0;
#X connect 8 0 16 0;
#X coords 0 -1 1 1 518 396 2 100 100;
