#N canvas 219 54 816 669 10;
#X declare -stdlib zexy/zexy;
#X declare -stdpath pd-minimoog;
#X obj 370 41 inlet~;
#N canvas 482 145 599 597 voltagenoise 0;
#X obj 177 90 del 5;
#X obj 172 159 random;
#X msg 282 113 30;
#X msg 282 138 2 \$1;
#X obj 284 163 pow;
#X obj 217 173 - 1;
#X obj 176 212 /;
#X obj 281 70 t b b;
#X obj 250 220 random 12;
#X obj 272 247 + 8;
#X obj 183 271 vline~;
#X obj 180 244 pack f f;
#X obj 182 303 *~;
#X obj 289 32 bng 15 250 50 0 empty empty empty 17 7 0 10 -262144 -1
-1;
#X obj 194 120 t b b;
#X obj 323 37 loadbang;
#X obj 99 361 s~ \$0.vnoise;
#X obj 186 330 *~;
#X obj 224 302 mux~ 0 1;
#X obj 265 267 sig~ 1;
#X obj 336 264 random 4;
#X obj 267 338 mux~ 0 1;
#X obj 332 289 % 3;
#X obj 359 314 min 1;
#X obj 408 285 + 1;
#X obj 412 312 % 2;
#X obj 211 376 +~ 1;
#X obj 209 400 /~ 8;
#X obj 209 425 +~ 0.75;
#X obj 188 455 s~ \$0.vnoise.1;
#X obj 353 420 *~ 10000;
#X obj 450 377 samplerate~;
#X obj 454 400 / 4;
#X obj 361 367 loadbang;
#X obj 358 446 +~ 7000;
#X obj 328 480 s~ \$0.vnoise.2;
#X obj 252 510 /~;
#X obj 241 548 s~ \$0.vnoise.3;
#X obj 473 446 *~ 0.01;
#X obj 476 473 +~ 1;
#X obj 469 502 s~ \$0.vnoise.4;
#X connect 0 0 14 0;
#X connect 1 0 6 0;
#X connect 2 0 3 0;
#X connect 3 0 4 0;
#X connect 4 0 1 1;
#X connect 4 0 5 0;
#X connect 5 0 6 1;
#X connect 6 0 11 0;
#X connect 7 0 0 0;
#X connect 7 1 2 0;
#X connect 8 0 9 0;
#X connect 9 0 0 0;
#X connect 9 0 11 1;
#X connect 10 0 12 0;
#X connect 10 0 18 0;
#X connect 11 0 10 0;
#X connect 12 0 17 0;
#X connect 12 0 21 0;
#X connect 13 0 7 0;
#X connect 14 0 1 0;
#X connect 14 1 8 0;
#X connect 14 1 20 0;
#X connect 15 0 7 0;
#X connect 17 0 16 0;
#X connect 17 0 26 0;
#X connect 17 0 30 0;
#X connect 17 0 38 0;
#X connect 18 0 12 1;
#X connect 19 0 18 1;
#X connect 19 0 21 1;
#X connect 19 0 36 0;
#X connect 20 0 22 0;
#X connect 20 0 24 0;
#X connect 21 0 17 1;
#X connect 22 0 23 0;
#X connect 23 0 18 0;
#X connect 24 0 25 0;
#X connect 25 0 21 0;
#X connect 26 0 27 0;
#X connect 27 0 28 0;
#X connect 28 0 29 0;
#X connect 28 0 36 1;
#X connect 30 0 34 0;
#X connect 31 0 32 0;
#X connect 32 0 30 1;
#X connect 33 0 31 0;
#X connect 34 0 35 0;
#X connect 36 0 37 0;
#X connect 38 0 39 0;
#X connect 39 0 40 0;
#X restore 685 602 pd voltagenoise;
#X obj 570 638 moog/singletons;
#X obj 525 37 inlet;
#X obj 646 126 switch~;
#X obj 582 100 tgl 36 1 empty empty empty 22 9 0 10 -114112 -1 -1 1
1;
#N canvas 0 50 450 300 memory 0;
#X obj 68 56 table \$0.memory 39;
#X restore 684 626 pd memory;
#X obj 315 211 moog/external~ \$0 \$0.memory 17;
#X obj 526 534 moog/output \$0;
#X obj 416 100 moog/filter~ \$0.memory 20 \$0;
#X obj 315 303 moog/controls \$0.memory \$2 18 \$0;
#X obj 368 79 throw~ \$0.external.in;
#X obj 100 100 moog/presets \$0 \$2;
#X obj 582 139 vsl 36 338 101 1 1 0 \$0.master.vol \$0.master.vol.set
empty 0 -9 0 10 -4160 -261234 -1 19491 1;
#N canvas 0 50 839 364 vol 0;
#X obj 203 231 r \$0.master.vol;
#X obj 148 205 s \$0.master.vol.set;
#N canvas 0 50 318 245 vol 0;
#X obj 124 99 - 1;
#X obj 125 118 - 100;
#X obj 126 141 * -1;
#X obj 97 43 inlet;
#X obj 132 175 outlet;
#X connect 0 0 1 0;
#X connect 1 0 2 0;
#X connect 2 0 4 0;
#X connect 3 0 0 0;
#X restore 213 261 pd vol;
#N canvas 454 66 318 245 ivol 0;
#X obj 97 43 inlet;
#X obj 132 175 outlet;
#X obj 125 118 * -1;
#X obj 126 141 + 1;
#X obj 124 99 - 100;
#X connect 0 0 4 0;
#X connect 2 0 3 0;
#X connect 3 0 1 0;
#X connect 4 0 2 0;
#X restore 257 149 pd ivol;
#X obj 354 255 dbtorms;
#X obj 360 286 s \$0.volume;
#X obj 442 280 moog/writemem \$0.memory 37 0;
#X obj 392 99 moog/readmem \$0.memory 37 0;
#X obj 214 290 s \$0.volume.dis.set;
#X obj 400 196 r \$0.volume.dis;
#X obj 214 119 r \$0.volume.dis;
#N canvas 454 66 318 245 ivol 0;
#X obj 97 43 inlet;
#X obj 132 175 outlet;
#X obj 125 118 * -1;
#X obj 126 141 + 1;
#X obj 124 99 - 100;
#X connect 0 0 4 0;
#X connect 2 0 3 0;
#X connect 3 0 1 0;
#X connect 4 0 2 0;
#X restore 190 154 pd ivol;
#X msg 179 181 set \$1;
#X obj 445 257 -;
#X msg 445 235 1 \$1;
#X obj 392 152 -;
#X msg 392 130 1 \$1;
#X obj 336 171 rmstodb;
#X obj 368 63 r \$0.ctrl.volume.rms;
#X obj 263 32 r \$0.ctrl.volume.db;
#X floatatom 355 319 5 0 0 0 - - -, f 5;
#X connect 0 0 2 0;
#X connect 2 0 8 0;
#X connect 3 0 1 0;
#X connect 4 0 5 0;
#X connect 4 0 14 0;
#X connect 4 0 20 0;
#X connect 7 0 16 0;
#X connect 9 0 4 0;
#X connect 10 0 11 0;
#X connect 11 0 12 0;
#X connect 12 0 1 0;
#X connect 13 0 6 0;
#X connect 14 0 13 0;
#X connect 15 0 17 0;
#X connect 16 0 15 0;
#X connect 17 0 3 0;
#X connect 18 0 17 0;
#X connect 19 0 3 0;
#X restore 693 558 pd vol;
#X obj 582 481 nbx 3 14 -1e+037 1e+037 0 0 \$0.volume.dis \$0.volume.dis.set
empty 0 -8 0 10 -4160 -117497 -1 94 256;
#X obj 531 571 outlet~;
#N canvas 871 124 450 300 copyright 0;
#X text 31 37 (c) Paulo Casaes \, 2010;
#X text 39 70 GPL v2. see COPYING;
#X text 50 95 https://github.com/pcasaes/pd-minimoog;
#X restore 69 633 pd copyright;
#X obj 416 232 moog/adsd~ \$0.memory \$0.filter 26 Filter \$0 filter
;
#X obj 416 364 moog/adsd~ \$0.memory \$0.loudness 30 Amp \$0 amp;
#X obj 100 211 moog/oscilatorControl~ \$0.memory 0 \$0 34 1;
#X obj 100 303 moog/oscilatorControl~ \$0.memory 4 \$0 35 2;
#X obj 100 395 moog/oscilatorControlLFO~ \$0.memory 8 \$0 3;
#N canvas 668 157 450 300 dependencies 0;
#X obj 71 50 declare -stdlib zexy/zexy;
#X obj 100 170 print minimoog depends on;
#X obj 103 113 loadbang;
#X msg 101 137 zexy (v0.0) \, muug \, ggee \, flatgui \, hcs \, iemlib
\, ext13 \, mrpeach \, clyclone;
#X obj 122 15 declare -stdpath pd-minimoog;
#X connect 2 0 3 0;
#X connect 3 0 1 0;
#X restore 677 472 pd dependencies;
#X obj 403 642 moog/oscr \$1 \$0 \$3;
#X connect 0 0 11 0;
#X connect 3 0 5 0;
#X connect 5 0 4 0;
#X connect 8 0 16 0;
#X coords 0 -1 1 1 518 396 2 100 100;
