#N canvas 0 22 450 300 10;
#X obj 140 41 inlet;
#X obj 140 63 - 10;
#X obj 140 85 / 9990;
#X obj 140 107 sqrt;
#X obj 140 129 sqrt;
#X obj 140 151 outlet;
#X connect 0 0 1 0;
#X connect 1 0 2 0;
#X connect 2 0 3 0;
#X connect 3 0 4 0;
#X connect 4 0 5 0;
