#N canvas 482 104 828 416 10;
#X msg 53 232 0 \$1;
#X obj -94 122 sel 0;
#X obj 55 208 f;
#N canvas 0 22 318 245 vol 0;
#X obj 124 99 - 1;
#X obj 125 118 - 100;
#X obj 126 141 * -1;
#X obj 97 43 inlet;
#X obj 132 175 outlet;
#X connect 0 0 1 0;
#X connect 1 0 2 0;
#X connect 2 0 4 0;
#X connect 3 0 0 0;
#X restore 301 115 pd vol;
#X obj 179 245 dbtorms;
#X obj 200 317 sel 0;
#X obj 113 296 spigot;
#X msg 233 346 1;
#X msg 168 345 0;
#X obj 243 319 t b b;
#X obj 133 330 t b b;
#X obj -149 337 throw~ \$2.adsd;
#X msg 121 362 2;
#N canvas 0 22 580 310 memory 0;
#X obj 79 224 outlet;
#X obj 144 229 outlet;
#X obj 204 227 outlet;
#X obj 267 226 outlet;
#X obj 64 129 moog/readmem \$1 \$3 0;
#X obj 141 171 moog/readmem \$1 \$3 1;
#X obj 200 151 moog/readmem \$1 \$3 2;
#X obj 276 183 moog/readmem \$1 \$3 3;
#X connect 4 0 0 0;
#X connect 5 0 1 0;
#X connect 6 0 2 0;
#X connect 7 0 3 0;
#X restore 144 30 pd memory;
#N canvas 0 22 537 306 memory 0;
#X obj 48 73 inlet;
#X obj 109 74 inlet;
#X obj 174 73 inlet;
#X obj 245 70 inlet;
#X obj 27 147 moog/writemem \$1 \$3 0;
#X obj 69 201 moog/writemem \$1 \$3 1;
#X obj 163 155 moog/writemem \$1 \$3 2;
#X obj 239 187 moog/writemem \$1 \$3 3;
#X connect 0 0 4 0;
#X connect 1 0 5 0;
#X connect 2 0 6 0;
#X connect 3 0 7 0;
#X restore 272 282 pd memory;
#N canvas 454 66 318 245 ivol 0;
#X obj 97 43 inlet;
#X obj 132 175 outlet;
#X obj 125 118 * -1;
#X obj 126 141 + 1;
#X obj 124 99 - 100;
#X connect 0 0 4 0;
#X connect 2 0 3 0;
#X connect 3 0 1 0;
#X connect 4 0 2 0;
#X restore 238 58 pd ivol;
#X obj 100 100 cnv 15 165 131 empty \$0.label Filter_Env 60 12 0 14
-170745 -1 0;
#X obj 110 138 vsl 30 64 10 10000 1 1 empty empty Attack 0 -9 0 10
-261682 -1 -1 6300 1;
#X obj 151 138 vsl 30 64 1 700 0 1 empty empty Decay 0 -9 0 10 -262130
-1 -1 2898 1;
#X obj 189 139 vsl 30 64 101 1 1 1 empty empty Sustain 0 -9 0 10 -204786
-1 -1 1972 1;
#X obj 231 191 tgl 15 1 empty empty release -10 -7 0 10 -204800 -1
-1 0 1;
#X obj 103 211 nbx 5 14 -1e+37 1e+37 0 0 empty empty empty 0 -8 0 8
-261682 -1 -1 10000 256;
#X obj 151 211 nbx 3 14 -1e+37 1e+37 0 0 empty empty empty 0 -8 0 10
-262130 -1 -1 322.526 256;
#X obj 189 211 nbx 3 14 -1e+37 1e+37 0 0 empty empty empty 0 -8 0 10
-204786 -1 -1 77.1781 256;
#N canvas 454 66 318 245 ivol 0;
#X obj 97 43 inlet;
#X obj 132 175 outlet;
#X obj 125 118 * -1;
#X obj 126 141 + 1;
#X obj 124 99 - 100;
#X connect 0 0 4 0;
#X connect 2 0 3 0;
#X connect 3 0 1 0;
#X connect 4 0 2 0;
#X restore 293 160 pd ivol;
#X msg 314 182 set \$1;
#X msg 442 252 \; \$2.label label \$1 \;;
#X obj 440 173 symbol \$4;
#X obj 444 224 pack s \$0;
#X obj 440 144 loadbang;
#X msg 443 194 \$1_Env;
#X obj -89 74 r \$5.vel;
#X obj 1 9 r \$5.ctrl.envelope.\$6.attack;
#X obj 208 8 r \$5.ctrl.envelope.\$6.decay;
#X obj 258 25 r \$5.ctrl.envelope.\$6.sustain;
#X obj 298 51 r \$5.ctrl.envelope.\$6.release;
#X obj -25 332 vline~;
#X obj -23 276 pack f f f f;
#X msg -50 303 \$1 \$2 \, \$3 \$4 \$2;
#X obj 306 340 s \$5.ctrl.envelope.\$6.attack.feedback;
#X obj 311 315 s \$5.ctrl.envelope.\$6.decay.feedback;
#X obj 342 294 s \$5.ctrl.envelope.\$6.sustain.feedback;
#X obj 320 374 s \$5.ctrl.envelope.\$6.release.feedback;
#X connect 0 0 36 0;
#X connect 1 0 2 0;
#X connect 1 1 37 0;
#X connect 2 0 0 0;
#X connect 3 0 23 0;
#X connect 4 0 37 2;
#X connect 5 0 10 0;
#X connect 5 1 9 0;
#X connect 6 0 2 1;
#X connect 7 0 6 1;
#X connect 8 0 6 1;
#X connect 9 0 22 0;
#X connect 9 1 7 0;
#X connect 10 0 12 0;
#X connect 10 1 8 0;
#X connect 12 0 2 1;
#X connect 13 0 17 0;
#X connect 13 1 18 0;
#X connect 13 2 15 0;
#X connect 13 3 20 0;
#X connect 15 0 19 0;
#X connect 17 0 21 0;
#X connect 18 0 22 0;
#X connect 19 0 3 0;
#X connect 20 0 14 3;
#X connect 20 0 5 0;
#X connect 20 0 42 0;
#X connect 21 0 14 0;
#X connect 21 0 37 1;
#X connect 21 0 39 0;
#X connect 22 0 14 1;
#X connect 22 0 6 0;
#X connect 22 0 37 3;
#X connect 22 0 40 0;
#X connect 23 0 24 0;
#X connect 23 0 4 0;
#X connect 23 0 14 2;
#X connect 23 0 41 0;
#X connect 24 0 25 0;
#X connect 25 0 19 0;
#X connect 27 0 30 0;
#X connect 28 0 26 0;
#X connect 29 0 27 0;
#X connect 30 0 28 0;
#X connect 31 0 1 0;
#X connect 32 0 17 0;
#X connect 33 0 18 0;
#X connect 34 0 15 0;
#X connect 35 0 20 0;
#X connect 36 0 11 0;
#X connect 37 0 38 0;
#X connect 38 0 36 0;
#X coords 0 -1 1 1 165 131 2 100 100;
