#N canvas 766 512 828 416 10;
#X obj -79 269 line~;
#X msg -10 225 \$1 \$2;
#X msg 53 232 0 \$1;
#X msg -63 222 \$1 \$2;
#X obj -94 122 sel 0;
#X obj -4 106 del 1;
#X obj 4 81 b;
#X obj -82 177 pack f f;
#X obj -7 195 pack f f;
#X obj 55 208 f;
#N canvas 0 22 318 245 vol 0;
#X obj 124 99 - 1;
#X obj 125 118 - 100;
#X obj 126 141 * -1;
#X obj 97 43 inlet;
#X obj 132 175 outlet;
#X connect 0 0 1 0;
#X connect 1 0 2 0;
#X connect 2 0 4 0;
#X connect 3 0 0 0;
#X restore 301 115 pd vol;
#X obj 196 265 dbtorms;
#X obj 2 168 f;
#X obj 200 317 sel 0;
#X obj 113 296 spigot;
#X msg 233 346 1;
#X msg 168 345 0;
#X obj 243 319 t b b;
#X obj 133 330 t b b;
#X obj -149 337 throw~ \$2.adsd;
#X obj 0 136 spigot;
#X msg 121 362 2;
#N canvas 0 22 580 310 memory 0;
#X obj 79 224 outlet;
#X obj 144 229 outlet;
#X obj 204 227 outlet;
#X obj 267 226 outlet;
#X obj 64 129 moog/readmem \$1 \$3 0;
#X obj 141 171 moog/readmem \$1 \$3 1;
#X obj 200 151 moog/readmem \$1 \$3 2;
#X obj 276 183 moog/readmem \$1 \$3 3;
#X connect 4 0 0 0;
#X connect 5 0 1 0;
#X connect 6 0 2 0;
#X connect 7 0 3 0;
#X restore 144 30 pd memory;
#N canvas 0 22 537 306 memory 0;
#X obj 48 73 inlet;
#X obj 109 74 inlet;
#X obj 174 73 inlet;
#X obj 245 70 inlet;
#X obj 27 147 moog/writemem \$1 \$3 0;
#X obj 69 201 moog/writemem \$1 \$3 1;
#X obj 163 155 moog/writemem \$1 \$3 2;
#X obj 239 187 moog/writemem \$1 \$3 3;
#X connect 0 0 4 0;
#X connect 1 0 5 0;
#X connect 2 0 6 0;
#X connect 3 0 7 0;
#X restore 272 282 pd memory;
#N canvas 454 66 318 245 ivol 0;
#X obj 97 43 inlet;
#X obj 132 175 outlet;
#X obj 125 118 * -1;
#X obj 126 141 + 1;
#X obj 124 99 - 100;
#X connect 0 0 4 0;
#X connect 2 0 3 0;
#X connect 3 0 1 0;
#X connect 4 0 2 0;
#X restore 238 58 pd ivol;
#X obj 100 100 cnv 15 165 131 empty \$0.label Amp_Env 60 12 0 14 -170745
-1 0;
#X obj 110 138 vsl 30 64 10 10000 1 1 empty empty Attack 0 -9 0 10
-261682 -1 -1 900 1;
#X obj 151 138 vsl 30 64 1 700 0 1 empty empty Decay 0 -9 0 10 -262130
-1 -1 3600 1;
#X obj 189 139 vsl 30 64 101 1 1 1 empty empty Sustain 0 -9 0 10 -204786
-1 -1 3200 1;
#X obj 231 191 tgl 15 1 empty empty release -10 -7 0 10 -204800 -1
-1 1 1;
#X obj 103 211 nbx 5 14 -1e+37 1e+37 0 0 empty empty empty 0 -8 0 8
-261682 -1 -1 26.827 256;
#X obj 151 211 nbx 3 14 -1e+37 1e+37 0 0 empty empty empty 0 -8 0 10
-262130 -1 -1 400.429 256;
#X obj 189 211 nbx 3 14 -1e+37 1e+37 0 0 empty empty empty 0 -8 0 10
-204786 -1 -1 91.3116 256;
#N canvas 454 66 318 245 ivol 0;
#X obj 97 43 inlet;
#X obj 132 175 outlet;
#X obj 125 118 * -1;
#X obj 126 141 + 1;
#X obj 124 99 - 100;
#X connect 0 0 4 0;
#X connect 2 0 3 0;
#X connect 3 0 1 0;
#X connect 4 0 2 0;
#X restore 341 57 pd ivol;
#X msg 362 79 set \$1;
#X msg 442 252 \; \$2.label label \$1 \;;
#X obj 441 115 symbol \$4;
#X obj 449 203 pack s \$0;
#X obj 459 77 loadbang;
#X msg 466 154 \$1_Env;
#X obj -89 74 r \$5.vel;
#X connect 0 0 19 0;
#X connect 1 0 0 0;
#X connect 2 0 0 0;
#X connect 3 0 0 0;
#X connect 4 0 9 0;
#X connect 4 1 6 0;
#X connect 4 1 7 0;
#X connect 5 0 20 0;
#X connect 6 0 5 0;
#X connect 7 0 3 0;
#X connect 8 0 1 0;
#X connect 9 0 2 0;
#X connect 10 0 32 0;
#X connect 11 0 12 1;
#X connect 12 0 8 0;
#X connect 13 0 18 0;
#X connect 13 1 17 0;
#X connect 14 0 9 1;
#X connect 15 0 14 1;
#X connect 16 0 14 1;
#X connect 17 0 31 0;
#X connect 17 1 15 0;
#X connect 18 0 21 0;
#X connect 18 1 16 0;
#X connect 20 0 12 0;
#X connect 21 0 9 1;
#X connect 22 0 26 0;
#X connect 22 1 27 0;
#X connect 22 2 24 0;
#X connect 22 3 29 0;
#X connect 24 0 28 0;
#X connect 26 0 30 0;
#X connect 27 0 31 0;
#X connect 28 0 10 0;
#X connect 29 0 23 3;
#X connect 29 0 13 0;
#X connect 30 0 23 0;
#X connect 30 0 7 1;
#X connect 30 0 5 1;
#X connect 31 0 23 1;
#X connect 31 0 8 1;
#X connect 31 0 14 0;
#X connect 32 0 33 0;
#X connect 32 0 11 0;
#X connect 32 0 23 2;
#X connect 33 0 34 0;
#X connect 34 0 28 0;
#X connect 36 0 39 0;
#X connect 37 0 35 0;
#X connect 38 0 36 0;
#X connect 39 0 37 0;
#X connect 40 0 4 0;
#X connect 40 0 20 1;
#X coords 0 -1 1 1 165 131 2 100 100;
