#N canvas 1109 220 510 468 10;
#X obj -7 101 mtof;
#X msg 15 128 \$1 \$2;
#X obj 33 100 pack f f;
#X obj 94 266 spigot;
#X obj 162 233 not;
#X obj 153 266 spigot;
#X obj 155 290 sel 0;
#X msg 145 311 0;
#X msg 175 311 1;
#X obj 83 288 / 1.27;
#X obj 86 311 dbtorms;
#X obj 65 63 * 1000;
#X obj 146 347 t f f;
#X obj 256 284 sel 0;
#X floatatom 273 319 5 0 0 0 - - -;
#X obj 318 366 + 0.5;
#X obj 386 341 / 2;
#X obj 387 361 + 0.5;
#X floatatom 395 396 5 0 0 0 - - -;
#X obj 386 311 moses 1;
#X obj 11 202 line~;
#X obj 3 254 *~;
#X msg 429 373 1;
#X obj 433 342 loadbang;
#X obj 54 31 moog/notemem3 \$1;
#N canvas 0 22 450 300 memory 0;
#X obj 85 69 inlet;
#X obj 146 70 inlet;
#X obj 64 143 moog/writemem \$1 \$3 0;
#X obj 141 171 moog/writemem \$1 \$3 1;
#X connect 0 0 2 0;
#X connect 1 0 3 0;
#X restore 220 227 pd memory;
#N canvas 0 22 450 300 memory 0;
#X obj 79 224 outlet;
#X obj 144 229 outlet;
#X obj 64 129 moog/readmem \$1 \$3 0;
#X obj 141 171 moog/readmem \$1 \$3 1;
#X connect 2 0 0 0;
#X connect 3 0 1 0;
#X restore 148 67 pd memory;
#X obj 50 440 s~ \$4.vc;
#X obj 154 386 s \$4.vel;
#X obj 219 438 send \$4.modulate.m;
#X obj 51 -7 r \$4.ctrl.vc;
#X obj 44 9 unpack f f;
#X obj 303 286 r \$4.ctrl.bend;
#X obj 223 372 r \$4.ctrl.mod;
#X obj 229 401 unpack f;
#X obj 100 100 cnv 15 100 80 empty empty Portamento 2 12 0 14 -117497
-66577 0;
#X obj 110 128 knob 32 32 0.03 30.3 1 0 empty empty empty 0 -8 0 8
-262144 -232576 -1 0 1;
#X obj 100 171 cnv 15 100 20 empty empty empty 20 12 0 14 -240285 -66577
0;
#X obj 148 148 nbx 4 14 -1e+37 1e+37 0 0 empty empty empty 0 -8 0 10
-203904 -1 -1 0 256;
#X obj 149 128 tgl 15 0 empty empty vel 17 7 0 10 -203904 -1 -1 0 1
;
#X msg 288 196 set \$1;
#X floatatom 82 402 5 0 0 0 - - -;
#X obj 115 201 - 0.03;
#X obj 280 160 + 0.03;
#X obj 225 115 + 0.03;
#X connect 0 0 2 0;
#X connect 1 0 20 0;
#X connect 2 0 1 0;
#X connect 3 0 9 0;
#X connect 4 0 5 1;
#X connect 5 0 6 0;
#X connect 6 0 7 0;
#X connect 6 1 8 0;
#X connect 7 0 12 0;
#X connect 8 0 12 0;
#X connect 9 0 10 0;
#X connect 10 0 12 0;
#X connect 11 0 2 1;
#X connect 12 0 13 0;
#X connect 12 1 28 0;
#X connect 12 1 41 0;
#X connect 13 0 24 2;
#X connect 15 0 19 0;
#X connect 16 0 17 0;
#X connect 17 0 18 0;
#X connect 18 0 21 1;
#X connect 19 0 16 0;
#X connect 19 1 18 0;
#X connect 20 0 21 0;
#X connect 21 0 27 0;
#X connect 22 0 18 0;
#X connect 23 0 22 0;
#X connect 24 0 0 0;
#X connect 24 1 3 0;
#X connect 24 1 5 0;
#X connect 26 0 44 0;
#X connect 26 1 39 0;
#X connect 30 0 31 0;
#X connect 31 0 24 0;
#X connect 31 1 24 1;
#X connect 32 0 14 0;
#X connect 32 0 15 0;
#X connect 33 0 34 0;
#X connect 34 0 29 0;
#X connect 36 0 42 0;
#X connect 38 0 25 0;
#X connect 38 0 11 0;
#X connect 38 0 43 0;
#X connect 39 0 25 1;
#X connect 39 0 3 1;
#X connect 39 0 4 0;
#X connect 40 0 36 0;
#X connect 42 0 38 0;
#X connect 43 0 40 0;
#X connect 44 0 36 0;
#X coords 0 -1 1 1 100 91 2 100 100;
