#N canvas 99 396 756 345 10;
#N canvas 472 342 500 330 filter 0;
#X obj 233 74 inlet;
#X obj 132 71 inlet~;
#X obj 137 277 outlet~;
#X obj 222 105 sig~;
#X obj 174 72 inlet~;
#X obj 232 171 lop~ 7;
#X obj 79 94 *~ 0.9;
#X obj 160 185 *~;
#X obj 323 105 r~ \$3.vnoise.4;
#N canvas 396 188 554 494 antialias 0;
#X obj 43 425 outlet~;
#X obj 33 15 inlet~;
#X obj 120 221 samplerate~;
#X obj 193 275 * 1.0739;
#X obj 129 182 loadbang;
#X obj 136 201 del 3;
#X obj 104 251 / 16;
#X obj 102 273 / 2;
#X obj 88 359 butterworth3~;
#X obj 121 309 / 2;
#X floatatom 198 309 5 0 0 0 - - -, f 5;
#X text 332 393 0.68027 H13.butterworth.pd;
#X obj 343 86 inlet;
#X obj 295 143 switch~ 1024 1 16;
#X obj 135 285 * 0.68027;
#X obj 105 113 *~ 1;
#X connect 1 0 15 0;
#X connect 2 0 3 0;
#X connect 2 0 6 0;
#X connect 3 0 8 2;
#X connect 4 0 5 0;
#X connect 5 0 2 0;
#X connect 6 0 7 0;
#X connect 7 0 14 0;
#X connect 8 0 0 0;
#X connect 9 0 10 0;
#X connect 9 0 8 1;
#X connect 12 0 13 0;
#X connect 14 0 9 0;
#X connect 15 0 8 0;
#X restore 93 163 pd antialias;
#X obj 113 134 tgl 15 0 empty empty empty 17 7 0 10 -262144 -1 -1 1
1;
#X obj 123 110 r \$0.antialias;
#X obj 125 226 muug/muug~;
#X obj 61 194 mux~ . .;
#X connect 0 0 3 0;
#X connect 1 0 6 0;
#X connect 3 0 5 0;
#X connect 4 0 7 0;
#X connect 5 0 12 2;
#X connect 6 0 9 0;
#X connect 6 0 13 0;
#X connect 7 0 12 1;
#X connect 8 0 7 1;
#X connect 9 0 13 1;
#X connect 10 0 9 1;
#X connect 10 0 13 0;
#X connect 11 0 10 0;
#X connect 12 0 2 0;
#X connect 13 0 12 0;
#X restore 18 234 pd filter;
#N canvas 564 320 623 590 envelope 0;
#X obj 262 378 +~;
#X obj 359 358 not;
#X obj 246 241 -~;
#X obj 151 275 sig~;
#X obj 378 228 sig~;
#X obj 379 209 / 100;
#X obj 367 294 *~;
#X obj 137 226 loadbang;
#X msg 142 249 15000;
#X obj 364 260 *~;
#X obj 25 56 inlet freq;
#X obj 105 55 inlet contour;
#X obj 205 48 inlet mod;
#X obj 311 -12 inlet k;
#X obj 370 -7 inlet l;
#X obj 329 32 pactive +;
#X floatatom 290 26 5 0 0 0 - - -, f 5;
#X floatatom 343 61 5 0 0 0 - - -, f 5;
#X obj 391 16 * 10;
#X obj 185 -8 sel 1 10 11;
#X msg 258 18 0;
#X obj 284 55 pIs 11;
#X obj 280 540 outlet~;
#X obj 48 -24 r~ \$3.vc;
#X floatatom 124 23 5 0 0 0 - - -, f 5;
#X msg 229 18 2;
#X msg 170 11 0.25;
#X msg 199 16 0.5;
#N canvas 0 50 450 300 notmod 0;
#X obj 205 86 inlet~;
#X obj 210 205 outlet~;
#X obj 280 92 inlet on;
#X obj 298 128 switch~;
#X connect 0 0 1 0;
#X connect 2 0 3 0;
#X restore 362 423 pd notmod;
#N canvas 0 50 509 409 mod 0;
#X obj 229 74 inlet~;
#X obj 261 364 outlet~;
#X obj 304 80 inlet on;
#X obj 322 116 switch~;
#X obj 292 191 +~ 2;
#X obj 292 219 /~ 2;
#X obj 240 160 log~;
#X obj 230 269 *~;
#X obj 261 315 clip~ 0 15000;
#X obj 244 192 /~;
#X obj 161 182 sig~;
#X obj 157 131 loadbang;
#X msg 160 151 1;
#X obj 265 247 *~;
#X obj 248 217 +~ 1;
#X obj 291 146 r~ \$3.modulate;
#X obj 362 227 r \$3.modulate.m;
#X obj 335 202 *~;
#X connect 0 0 6 0;
#X connect 0 0 7 0;
#X connect 2 0 3 0;
#X connect 4 0 5 0;
#X connect 5 0 13 1;
#X connect 6 0 9 1;
#X connect 7 0 8 0;
#X connect 8 0 1 0;
#X connect 9 0 14 0;
#X connect 10 0 9 0;
#X connect 11 0 12 0;
#X connect 12 0 10 0;
#X connect 13 0 7 1;
#X connect 14 0 13 0;
#X connect 15 0 17 0;
#X connect 16 0 17 1;
#X connect 17 0 4 0;
#X restore 193 420 pd mod;
#N canvas 0 50 518 442 l 0;
#X obj 118 48 inlet~;
#X obj 121 365 outlet~;
#X obj 363 77 inlet;
#X obj 366 124 switch~;
#X obj 72 104 sig~;
#X obj 31 212 ftom~;
#X obj 11 180 ftom~;
#X obj 21 240 -~;
#X obj 32 270 *~;
#X obj 18 301 mtof~;
#X obj 203 52 inlet freq;
#X obj 272 73 inlet kl mod;
#X obj 15 145 lop~ 10;
#X connect 0 0 5 0;
#X connect 2 0 3 0;
#X connect 4 0 12 0;
#X connect 5 0 7 0;
#X connect 6 0 9 0;
#X connect 6 0 7 1;
#X connect 7 0 8 0;
#X connect 8 0 9 0;
#X connect 9 0 1 0;
#X connect 10 0 4 0;
#X connect 11 0 8 1;
#X connect 12 0 6 0;
#X restore 67 153 pd l xor k;
#X obj 132 122 not;
#X floatatom 431 50 5 0 0 0 - - -, f 5;
#N canvas 113 394 476 360 keyboard 0;
#X obj 110 26 inlet~;
#X obj 201 204 outlet~;
#X obj 355 55 inlet;
#X obj 358 102 switch~;
#X obj 162 98 *~ 2;
#X connect 0 0 4 0;
#X connect 2 0 3 0;
#X connect 4 0 1 0;
#X restore 162 159 pd keyboard;
#X obj 250 83 catch~ \$3.filter.adsd;
#X connect 0 0 28 0;
#X connect 0 0 29 0;
#X connect 1 0 28 1;
#X connect 2 0 6 0;
#X connect 3 0 2 0;
#X connect 4 0 9 1;
#X connect 5 0 4 0;
#X connect 6 0 0 1;
#X connect 7 0 8 0;
#X connect 8 0 3 0;
#X connect 9 0 6 1;
#X connect 10 0 30 1;
#X connect 11 0 5 0;
#X connect 12 0 1 0;
#X connect 12 0 29 1;
#X connect 13 0 15 0;
#X connect 14 0 18 0;
#X connect 15 0 19 0;
#X connect 15 0 21 0;
#X connect 15 0 17 0;
#X connect 18 0 15 1;
#X connect 19 0 26 0;
#X connect 19 1 27 0;
#X connect 19 2 25 0;
#X connect 19 3 20 0;
#X connect 20 0 24 0;
#X connect 21 0 31 0;
#X connect 21 0 33 1;
#X connect 23 0 30 0;
#X connect 23 0 33 0;
#X connect 24 0 30 2;
#X connect 25 0 24 0;
#X connect 26 0 24 0;
#X connect 27 0 24 0;
#X connect 28 0 22 0;
#X connect 29 0 22 0;
#X connect 30 0 2 1;
#X connect 30 0 0 0;
#X connect 31 0 30 3;
#X connect 32 0 15 0;
#X connect 33 0 2 1;
#X connect 33 0 0 0;
#X connect 34 0 9 0;
#X restore 262 268 pd envelope;
#N canvas 0 50 580 310 memory 0;
#X obj 79 224 outlet;
#X obj 144 229 outlet;
#X obj 204 227 outlet;
#X obj 267 226 outlet;
#X obj 64 129 moog/readmem \$1 \$2 0;
#X obj 141 171 moog/readmem \$1 \$2 1;
#X obj 200 151 moog/readmem \$1 \$2 2;
#X obj 276 183 moog/readmem \$1 \$2 3;
#X obj 317 247 outlet;
#X obj 380 239 outlet;
#X obj 326 204 moog/readmem \$1 \$2 4;
#X obj 386 152 moog/readmem \$1 \$2 5;
#X connect 4 0 0 0;
#X connect 5 0 1 0;
#X connect 6 0 2 0;
#X connect 7 0 3 0;
#X connect 10 0 8 0;
#X connect 11 0 9 0;
#X restore 144 30 pd memory;
#N canvas 0 50 537 306 memory 0;
#X obj 48 73 inlet;
#X obj 109 74 inlet;
#X obj 174 73 inlet;
#X obj 245 70 inlet;
#X obj 27 147 moog/writemem \$1 \$2 0;
#X obj 69 201 moog/writemem \$1 \$2 1;
#X obj 163 155 moog/writemem \$1 \$2 2;
#X obj 239 187 moog/writemem \$1 \$2 3;
#X obj 275 101 inlet;
#X obj 269 218 moog/writemem \$1 \$2 4;
#X obj 320 40 inlet;
#X obj 314 157 moog/writemem \$1 \$2 5;
#X connect 0 0 4 0;
#X connect 1 0 5 0;
#X connect 2 0 6 0;
#X connect 3 0 7 0;
#X connect 8 0 9 0;
#X connect 10 0 11 0;
#X restore 217 320 pd memory;
#X obj 324 27 + 1;
#X obj -3 22 catch~ \$3.mix;
#X obj 16 292 throw~ \$3.filter.out;
#X obj 21 62 r \$3.ctrl.filter.freq;
#X obj 235 59 r \$3.ctrl.filter.q;
#X obj 383 26 r \$3.ctrl.filter.contour;
#X obj 100 100 cnv 15 165 131 empty empty Filter 80 12 0 14 -261234
-66577 0;
#X obj 103 210 nbx 5 14 -1e+37 1e+37 0 0 empty empty empty 0 -8 0 10
-204800 -1 -1 1568.19 256;
#X obj 108 139 vsl 30 64 20 15000 1 1 empty empty freq 0 -9 0 10 -204800
-1 -1 4151 1;
#X obj 160 210 nbx 4 14 -1e+37 1e+37 0 0 empty empty empty 0 -8 0 10
-203904 -1 -1 0.451215 256;
#X obj 157 139 vsl 30 64 0.01 10 1 1 empty empty Q 0 -9 0 10 -203904
-1 -1 3474 1;
#X obj 208 210 nbx 3 14 -1e+37 1e+37 0 0 empty empty empty 0 -8 0 10
-232576 -1 -1 17.5858 256;
#X obj 207 139 vsl 15 64 1 101 1 1 empty empty contour 0 -9 0 10 -232576
-1 -1 3989 1;
#X obj 274 201 - 1;
#X obj 229 143 tgl 15 1 empty empty mod 17 7 0 10 -258113 -1 -1 0 1
;
#X obj 229 163 tgl 15 1 empty empty k 17 7 0 10 -4034 -1 -1 1 1;
#X obj 229 183 tgl 15 1 empty empty l 17 7 0 10 -4034 -1 -1 1 1;
#X msg 61 170 set \$1;
#X msg 59 145 set \$1;
#X msg 304 177 set \$1;
#X obj 294 153 + 1;
#X obj 297 99 r \$3.ctrl.filter.mod;
#X obj 322 119 r \$3.ctrl.filter.vc.k;
#X obj 354 141 r \$3.ctrl.filter.vc.l;
#X obj 102 103 tgl 10 1 \$0.antialias \$0.antialias.set antialias 17
7 0 8 -262130 -1 -1 0 1;
#N canvas 746 604 450 300 antialias 0;
#X obj 79 66 moog/readmem \$1 0 38;
#X obj 88 123 s \$0.antialias.set;
#X obj 186 171 moog/writemem \$1 0 38;
#X obj 223 138 r \$0.antialias;
#X obj 225 53 r \$3.ctrl.filter.antialias;
#X connect 0 0 1 0;
#X connect 3 0 2 0;
#X connect 4 0 1 0;
#X restore 528 195 pd antialias memory;
#X obj 447 308 s \$3.ctrl.filter.freq.feedback;
#X obj 457 338 s \$3.ctrl.filter.q.feedback;
#X obj 402 267 s \$3.ctrl.filter.contour.feedback;
#X obj 371 176 s \$3.ctrl.filter.mod.feedback;
#X obj 356 208 s \$3.ctrl.filter.vc.k.feedback;
#X obj 366 230 s \$3.ctrl.filter.vc.l.feedback;
#X connect 0 0 6 0;
#X connect 1 0 0 1;
#X connect 2 0 12 0;
#X connect 2 1 14 0;
#X connect 2 2 4 0;
#X connect 2 3 18 0;
#X connect 2 4 19 0;
#X connect 2 5 20 0;
#X connect 4 0 16 0;
#X connect 5 0 0 0;
#X connect 7 0 12 0;
#X connect 8 0 14 0;
#X connect 9 0 4 0;
#X connect 11 0 21 0;
#X connect 11 0 1 0;
#X connect 11 0 3 0;
#X connect 11 0 30 0;
#X connect 12 0 11 0;
#X connect 13 0 22 0;
#X connect 13 0 0 2;
#X connect 13 0 3 1;
#X connect 13 0 31 0;
#X connect 14 0 13 0;
#X connect 15 0 24 0;
#X connect 15 0 1 1;
#X connect 15 0 3 2;
#X connect 16 0 17 0;
#X connect 17 0 15 0;
#X connect 17 0 32 0;
#X connect 18 0 3 3;
#X connect 18 0 1 2;
#X connect 18 0 33 0;
#X connect 19 0 3 4;
#X connect 19 0 1 3;
#X connect 19 0 34 0;
#X connect 20 0 3 5;
#X connect 20 0 1 4;
#X connect 20 0 35 0;
#X connect 21 0 12 0;
#X connect 22 0 14 0;
#X connect 23 0 16 0;
#X connect 24 0 23 0;
#X connect 25 0 18 0;
#X connect 26 0 19 0;
#X connect 27 0 20 0;
#X coords 0 -1 1 1 165 131 2 100 100;
