#N canvas 0 23 450 300 10;
#X obj 185 43 inlet;
#X obj 181 189 outlet;
#X msg 263 74 100 \$1;
#X obj 263 96 -;
#X obj 263 118 sqrt;
#X obj 263 140 / 10;
#X msg 316 140 1 \$1;
#X obj 309 171 -;
#X connect 0 0 2 0;
#X connect 2 0 3 0;
#X connect 3 0 4 0;
#X connect 4 0 5 0;
#X connect 5 0 6 0;
#X connect 6 0 7 0;
#X connect 7 0 1 0;
