#N canvas 989 492 630 355 10;
#X obj 58 10 key;
#X msg 92 210 \$1 127;
#X obj 114 95 del 1;
#X obj 85 118 f;
#X obj 278 34 loadbang;
#X obj 278 84 f \$1;
#X obj 278 59 del 5;
#X msg 278 109 connect localhost \$1;
#X obj 280 192 netsend 1;
#X obj 317 128 r \$0.send;
#X msg 115 239 send /moog/vc \$1 \$2;
#X obj 186 1 keyup;
#X obj 144 61 b;
#X obj 84 148 demux 0 1;
#X msg 166 201 \$1 0;
#X msg 195 126 1;
#X msg 200 154 0;
#X obj 233 90 b;
#X obj 270 266 spigot 0;
#X obj 450 188 inlet enable;
#X obj 194 59 moses 1;
#X obj 38 68 moses 0;
#X obj 52 31 moses 301;
#X obj 186 32 moses 301;
#X text 296 10 Too bad there is no keydown;
#X obj 231 111 del 3;
#X connect 0 0 22 0;
#X connect 1 0 10 0;
#X connect 2 0 3 0;
#X connect 3 0 13 0;
#X connect 4 0 6 0;
#X connect 5 0 7 0;
#X connect 6 0 5 0;
#X connect 7 0 8 0;
#X connect 9 0 8 0;
#X connect 10 0 18 0;
#X connect 11 0 23 0;
#X connect 12 0 2 0;
#X connect 13 0 1 0;
#X connect 13 1 16 0;
#X connect 14 0 10 0;
#X connect 15 0 13 1;
#X connect 16 0 13 1;
#X connect 17 0 25 0;
#X connect 18 0 8 0;
#X connect 19 0 18 1;
#X connect 20 1 17 0;
#X connect 20 1 15 0;
#X connect 20 1 14 0;
#X connect 21 1 3 1;
#X connect 21 1 12 0;
#X connect 22 0 21 0;
#X connect 23 0 20 0;
#X connect 25 0 16 0;
