#N canvas 67 205 630 355 10;
#X msg 114 267 send /moog/vc \$1 \$2;
#X obj 270 266 spigot 0;
#X obj 344 243 inlet enable;
#X text 296 10 Too bad there is no keydown;
#X obj 349 303 moog/moogsend osc localhost \$1;
#X obj 176 113 key;
#X obj 82 76 keyname;
#X obj 154 165 t b f;
#X obj 79 181 f;
#X obj 149 197 del 1;
#X obj 79 210 pack f f;
#X obj 165 133 moses 301;
#X obj 90 106 * 127;
#X obj 222 108 keyup;
#X connect 0 0 1 0;
#X connect 1 0 4 0;
#X connect 2 0 1 1;
#X connect 5 0 11 0;
#X connect 6 0 12 0;
#X connect 7 0 9 0;
#X connect 7 1 8 1;
#X connect 8 0 10 0;
#X connect 9 0 8 0;
#X connect 10 0 0 0;
#X connect 11 0 7 0;
#X connect 12 0 10 1;
#X connect 13 0 11 0;
