#N canvas 650 492 630 355 10;
#X obj 58 10 key;
#X msg 92 210 \$1 127;
#X obj 114 95 del 1;
#X obj 85 118 f;
#X msg 115 239 send /moog/vc \$1 \$2;
#X obj 186 1 keyup;
#X obj 144 61 b;
#X obj 84 148 demux 0 1;
#X msg 166 201 \$1 0;
#X msg 195 126 1;
#X msg 200 154 0;
#X obj 233 90 b;
#X obj 270 266 spigot 0;
#X obj 344 243 inlet enable;
#X obj 38 68 moses 0;
#X obj 52 31 moses 301;
#X obj 186 32 moses 301;
#X text 296 10 Too bad there is no keydown;
#X obj 231 111 del 3;
#X obj 194 59 moses 0;
#X obj 349 303 moog/moogsend osc localhost \$1;
#X connect 0 0 15 0;
#X connect 1 0 4 0;
#X connect 2 0 3 0;
#X connect 3 0 7 0;
#X connect 4 0 12 0;
#X connect 5 0 16 0;
#X connect 6 0 2 0;
#X connect 7 0 1 0;
#X connect 7 1 10 0;
#X connect 8 0 4 0;
#X connect 9 0 7 1;
#X connect 10 0 7 1;
#X connect 11 0 18 0;
#X connect 12 0 20 0;
#X connect 13 0 12 1;
#X connect 14 1 3 1;
#X connect 14 1 6 0;
#X connect 15 0 14 0;
#X connect 16 0 19 0;
#X connect 18 0 10 0;
#X connect 19 1 11 0;
#X connect 19 1 9 0;
#X connect 19 1 8 0;
