#N canvas 42 555 992 593 10;
#X obj 144 107 notein 1;
#X obj 144 132 pack f f;
#X msg 144 157 send /moog/vc \$1 \$2;
#X obj 136 219 bendin 1;
#X obj 24 31 loadbang;
#X obj 24 81 f \$1;
#X obj 24 56 del 5;
#X msg 24 106 connect localhost \$1;
#X obj 136 244 / 16384;
#X msg 136 269 send /moog/bend \$1;
#X obj 26 189 netsend 1;
#X obj 277 214 ctlin 1 1;
#X msg 277 264 send /moog/mod \$1;
#X obj 277 239 / 127;
#X obj 63 125 r \$0.send;
#X obj 144 182 s \$0.send;
#X obj 136 294 s \$0.send;
#X obj 277 289 s \$0.send;
#X obj 280 132 / 127;
#X obj 280 182 s \$0.send;
#X msg 280 157 send /moog/volume/rms \$1;
#X obj 280 107 ctlin 12 1;
#X obj 516 34 cnv 15 400 300 empty empty Filter 80 12 0 14 -261234
-66577 0;
#X msg 522 97 send /moog/filter/freq \$1;
#X msg 522 195 send /moog/filter/q \$1;
#X msg 693 102 send /moog/filter/contour \$1;
#X obj 522 54 ctlin 7 1;
#X obj 522 145 ctlin 9 1;
#X obj 693 59 ctlin 11 1;
#X obj 522 122 s \$0.send;
#X obj 522 220 s \$0.send;
#X obj 693 125 s \$0.send;
#N canvas 0 22 450 300 trans 0;
#X obj 156 90 / 127;
#X obj 156 148 + 20;
#X obj 157 129 * 15980;
#X obj 155 110 pow 4;
#X obj 155 65 inlet;
#X obj 157 180 outlet;
#X connect 0 0 3 0;
#X connect 1 0 5 0;
#X connect 2 0 1 0;
#X connect 3 0 2 0;
#X connect 4 0 0 0;
#X restore 522 75 pd trans;
#N canvas 0 22 450 300 trans 0;
#X obj 156 90 / 127;
#X obj 155 110 pow 4;
#X obj 155 65 inlet;
#X obj 157 180 outlet;
#X obj 157 129 * 9.9;
#X obj 156 148 + 0.1;
#X connect 0 0 1 0;
#X connect 1 0 4 0;
#X connect 2 0 0 0;
#X connect 4 0 5 0;
#X connect 5 0 3 0;
#X restore 522 170 pd trans;
#N canvas 0 22 450 300 trans 0;
#X obj 156 90 / 127;
#X obj 155 110 pow 4;
#X obj 155 65 inlet;
#X obj 157 180 outlet;
#X obj 157 129 * 100;
#X connect 0 0 1 0;
#X connect 1 0 4 0;
#X connect 2 0 0 0;
#X connect 4 0 3 0;
#X restore 693 80 pd trans;
#X obj 687 222 s \$0.send;
#X msg 687 197 send /moog/filter/mod \$1;
#N canvas 0 22 450 300 trans 0;
#X obj 156 90 / 127;
#X obj 155 65 inlet;
#X obj 157 180 outlet;
#X obj 155 110 + 0.5;
#X obj 157 129 int;
#X connect 0 0 3 0;
#X connect 1 0 0 0;
#X connect 3 0 4 0;
#X connect 4 0 2 0;
#X restore 688 171 pd trans off < 63 < on;
#X obj 527 309 s \$0.send;
#X obj 690 149 ctlin 13 1;
#X obj 526 242 ctlin 14 1;
#X msg 526 288 send /moog/filter/vc \$1 \$2;
#N canvas 0 22 450 300 trans 0;
#X obj 157 45 inlet;
#X obj 154 256 outlet;
#X obj 159 138 int;
#X obj 154 94 * 4;
#X obj 157 118 + 0.5;
#X obj 153 230 pack f f;
#X obj 160 163 t f f;
#X obj 157 196 % 2;
#X obj 205 178 / 4;
#X obj 211 198 + 0.5;
#X obj 219 219 int;
#X obj 153 71 / 128;
#X connect 0 0 11 0;
#X connect 2 0 6 0;
#X connect 3 0 2 0;
#X connect 4 0 2 0;
#X connect 5 0 1 0;
#X connect 6 0 7 0;
#X connect 6 1 8 0;
#X connect 7 0 5 0;
#X connect 8 0 9 0;
#X connect 9 0 10 0;
#X connect 10 0 5 1;
#X connect 11 0 3 0;
#X restore 526 265 pd trans off < 31 < k < 63 < l < 95 < l and k;
#X connect 0 0 1 0;
#X connect 0 1 1 1;
#X connect 1 0 2 0;
#X connect 2 0 15 0;
#X connect 3 0 8 0;
#X connect 4 0 6 0;
#X connect 5 0 7 0;
#X connect 6 0 5 0;
#X connect 7 0 10 0;
#X connect 8 0 9 0;
#X connect 9 0 16 0;
#X connect 11 0 13 0;
#X connect 12 0 17 0;
#X connect 13 0 12 0;
#X connect 14 0 10 0;
#X connect 18 0 20 0;
#X connect 20 0 19 0;
#X connect 21 0 18 0;
#X connect 23 0 29 0;
#X connect 24 0 30 0;
#X connect 25 0 31 0;
#X connect 26 0 32 0;
#X connect 27 0 33 0;
#X connect 28 0 34 0;
#X connect 32 0 23 0;
#X connect 33 0 24 0;
#X connect 34 0 25 0;
#X connect 36 0 35 0;
#X connect 37 0 36 0;
#X connect 39 0 37 0;
#X connect 40 0 42 0;
#X connect 41 0 38 0;
#X connect 42 0 41 0;
