#N canvas 37 196 1007 697 10;
#X obj 586 -44 notein 1;
#X obj 586 -24 pack f f;
#X msg 586 -5 send /moog/vc \$1 \$2;
#X obj 616 64 bendin 1;
#X obj 616 83 / 16384;
#X msg 616 102 send /moog/bend \$1;
#X obj 621 152 ctlin 1 1;
#X msg 621 191 send /moog/mod \$1;
#X obj 621 171 / 127;
#X obj 586 15 s \$0.send;
#X obj 616 121 s \$0.send;
#X obj 621 211 s \$0.send;
#X obj 516 21 / 127;
#X obj 517 60 s \$0.send;
#X msg 516 40 send /moog/volume/rms \$1;
#X obj 516 1 ctlin 12 1;
#X obj 735 -19 cnv 15 220 280 empty empty Filter 80 12 0 14 -261234
-66577 0;
#X obj 740 1 ctlin 7 1;
#X obj 741 45 ctlin 9 1;
#X obj 741 147 ctlin 11 1;
#X obj 741 88 ctlin 13 1;
#X obj 741 195 ctlin 14 1;
#X obj 530 335 cnv 15 222 225 empty empty Filter_Envelope 80 12 0 14
-203904 -66577 0;
#X obj 535 361 ctlin 15 1;
#X obj 534 401 ctlin 16 1;
#X obj 534 452 ctlin 17 1;
#X obj 535 498 ctlin 18 1;
#X obj 547 261 s \$0.send;
#N canvas 0 22 450 300 trans 0;
#X obj 156 90 / 127;
#X obj 155 65 inlet;
#X obj 157 180 outlet;
#X obj 157 129 * 30;
#X obj 159 109 pow 4;
#X connect 0 0 4 0;
#X connect 1 0 0 0;
#X connect 3 0 2 0;
#X connect 4 0 3 0;
#X restore 547 219 pd trans;
#X obj 547 197 ctlin 23 1;
#X msg 547 240 send /moog/vc/portamento \$1;
#X obj 13 -47 cnv 15 233 300 empty empty Osc_1 80 12 0 14 -117497 -66577
0;
#N canvas 0 22 450 300 /moog/envelope/filter/attack 0;
#X obj 156 90 / 127;
#X obj 155 65 inlet;
#X obj 157 129 * 9990;
#X obj 156 148 + 10;
#X obj 155 110 pow 4;
#X obj 134 233 s \$0.send;
#X msg 134 214 send /moog/envelope/filter/attack \$1;
#X connect 0 0 4 0;
#X connect 1 0 0 0;
#X connect 2 0 3 0;
#X connect 3 0 6 0;
#X connect 4 0 2 0;
#X connect 6 0 5 0;
#X restore 535 380 pd /moog/envelope/filter/attack;
#N canvas 0 22 450 300 /moog/envelope/filter/decay 0;
#X obj 156 90 / 127;
#X obj 155 65 inlet;
#X obj 155 110 pow 2;
#X obj 157 129 * 699;
#X obj 156 148 + 1;
#X obj 142 232 s \$0.send;
#X msg 142 213 send /moog/envelope/filter/decay \$1;
#X connect 0 0 2 0;
#X connect 1 0 0 0;
#X connect 2 0 3 0;
#X connect 3 0 4 0;
#X connect 4 0 6 0;
#X connect 6 0 5 0;
#X restore 534 420 pd /moog/envelope/filter/decay;
#N canvas 0 22 450 300 /moog/envelope/filter/sustain 0;
#X obj 155 65 inlet;
#X obj 156 90 / 1.27;
#X obj 108 222 s \$0.send;
#X msg 108 203 send /moog/envelope/filter/sustain \$1;
#X connect 0 0 1 0;
#X connect 1 0 3 0;
#X connect 3 0 2 0;
#X restore 534 472 pd /moog/envelope/filter/sustain;
#X text 543 516 off < 63 < on;
#N canvas 0 22 450 300 /moog/envelope/filter/release 0;
#X obj 156 90 / 127;
#X obj 155 65 inlet;
#X obj 155 110 + 0.5;
#X obj 157 129 int;
#X obj 158 185 s \$0.send;
#X msg 158 165 send /moog/envelope/filter/release \$1;
#X connect 0 0 2 0;
#X connect 1 0 0 0;
#X connect 2 0 3 0;
#X connect 3 0 5 0;
#X connect 5 0 4 0;
#X restore 535 534 pd /moog/envelope/filter/release;
#X obj 753 335 cnv 15 222 225 empty empty Amp_Envelope 80 12 0 14 -203904
-66577 0;
#X text 770 517 off < 63 < on;
#X obj 758 361 ctlin 19 1;
#X obj 757 401 ctlin 20 1;
#X obj 757 452 ctlin 21 1;
#X obj 758 498 ctlin 22 1;
#N canvas 0 22 450 300 /moog/envelope/amp/attack 0;
#X obj 156 90 / 127;
#X obj 155 65 inlet;
#X obj 157 129 * 9990;
#X obj 156 148 + 10;
#X obj 155 110 pow 4;
#X obj 134 233 s \$0.send;
#X msg 134 214 send /moog/envelope/amp/attack \$1;
#X connect 0 0 4 0;
#X connect 1 0 0 0;
#X connect 2 0 3 0;
#X connect 3 0 6 0;
#X connect 4 0 2 0;
#X connect 6 0 5 0;
#X restore 758 380 pd /moog/envelope/amp/attack;
#N canvas 0 22 450 300 /moog/envelope/amp/decay 0;
#X obj 156 90 / 127;
#X obj 155 65 inlet;
#X obj 155 110 pow 2;
#X obj 157 129 * 699;
#X obj 156 148 + 1;
#X obj 142 232 s \$0.send;
#X msg 142 213 send /moog/envelope/amp/decay \$1;
#X connect 0 0 2 0;
#X connect 1 0 0 0;
#X connect 2 0 3 0;
#X connect 3 0 4 0;
#X connect 4 0 6 0;
#X connect 6 0 5 0;
#X restore 757 420 pd /moog/envelope/amp/decay;
#N canvas 0 22 450 300 /moog/envelope/amp/sustain 0;
#X obj 155 65 inlet;
#X obj 156 90 / 1.27;
#X obj 108 222 s \$0.send;
#X msg 108 203 send /moog/envelope/amp/sustain \$1;
#X connect 0 0 1 0;
#X connect 1 0 3 0;
#X connect 3 0 2 0;
#X restore 757 472 pd /moog/envelope/amp/sustain;
#N canvas 0 22 450 300 /moog/envelope/amp/release 0;
#X obj 156 90 / 127;
#X obj 155 65 inlet;
#X obj 155 110 + 0.5;
#X obj 157 129 int;
#X obj 158 185 s \$0.send;
#X msg 159 165 send /moog/envelope/amp/release \$1;
#X connect 0 0 2 0;
#X connect 1 0 0 0;
#X connect 2 0 3 0;
#X connect 3 0 5 0;
#X connect 5 0 4 0;
#X restore 758 534 pd /moog/envelope/amp/release;
#N canvas 0 22 450 300 /moog/filter/freq 0;
#X obj 156 90 / 127;
#X obj 156 148 + 20;
#X obj 157 129 * 15980;
#X obj 155 110 pow 4;
#X obj 155 65 inlet;
#X msg 184 210 send /moog/filter/freq \$1;
#X obj 184 235 s \$0.send;
#X connect 0 0 3 0;
#X connect 1 0 5 0;
#X connect 2 0 1 0;
#X connect 3 0 2 0;
#X connect 4 0 0 0;
#X connect 5 0 6 0;
#X restore 740 21 pd /moog/filter/freq;
#N canvas 0 22 450 300 /moog/filter/q 0;
#X obj 156 90 / 127;
#X obj 155 110 pow 4;
#X obj 155 65 inlet;
#X obj 157 129 * 9.9;
#X obj 156 148 + 0.1;
#X msg 155 204 send /moog/filter/q \$1;
#X obj 155 229 s \$0.send;
#X connect 0 0 1 0;
#X connect 1 0 3 0;
#X connect 2 0 0 0;
#X connect 3 0 4 0;
#X connect 4 0 5 0;
#X connect 5 0 6 0;
#X restore 741 64 pd /moog/filter/q;
#N canvas 0 22 450 300 /moog/filter/vc 0;
#X obj 157 45 inlet;
#X obj 159 138 int;
#X obj 154 94 * 4;
#X obj 157 118 + 0.5;
#X obj 153 230 pack f f;
#X obj 160 163 t f f;
#X obj 157 196 % 2;
#X obj 205 178 / 4;
#X obj 211 198 + 0.5;
#X obj 219 219 int;
#X obj 153 71 / 128;
#X obj 206 272 s \$0.send;
#X msg 205 251 send /moog/filter/vc \$1 \$2;
#X connect 0 0 10 0;
#X connect 1 0 5 0;
#X connect 2 0 1 0;
#X connect 3 0 1 0;
#X connect 4 0 12 0;
#X connect 5 0 6 0;
#X connect 5 1 7 0;
#X connect 6 0 4 0;
#X connect 7 0 8 0;
#X connect 8 0 9 0;
#X connect 9 0 4 1;
#X connect 10 0 2 0;
#X connect 12 0 11 0;
#X restore 741 230 pd /moog/filter/vc;
#N canvas 0 22 450 300 /moog/filter/contour 0;
#X obj 156 90 / 127;
#X obj 155 110 pow 4;
#X obj 155 65 inlet;
#X obj 157 129 * 100;
#X msg 118 194 send /moog/filter/contour \$1;
#X obj 118 217 s \$0.send;
#X connect 0 0 1 0;
#X connect 1 0 3 0;
#X connect 2 0 0 0;
#X connect 3 0 4 0;
#X connect 4 0 5 0;
#X restore 741 168 pd /moog/filter/contour;
#X text 752 105 off < 63 < on;
#N canvas 0 22 450 300 /moog/filter/mod 0;
#X obj 156 90 / 127;
#X obj 155 65 inlet;
#X obj 155 110 + 0.5;
#X obj 157 129 int;
#X obj 152 233 s \$0.send;
#X msg 152 208 send /moog/filter/mod \$1;
#X connect 0 0 2 0;
#X connect 1 0 0 0;
#X connect 2 0 3 0;
#X connect 3 0 5 0;
#X connect 5 0 4 0;
#X restore 741 121 pd /moog/filter/mod;
#X text 746 213 off < 31 < k < 63 < l < 95 < l & k;
#N canvas 0 22 450 300 /moog/oscillator/1/octave 0;
#X obj 155 65 inlet;
#X obj 156 90 / 127;
#X obj 163 167 int;
#X obj 167 117 * 5;
#X obj 170 145 + 0.5;
#X obj 170 232 s \$0.send;
#X msg 170 213 send /moog/oscillator/1/octave \$1;
#X connect 0 0 1 0;
#X connect 1 0 3 0;
#X connect 2 0 6 0;
#X connect 3 0 4 0;
#X connect 4 0 2 0;
#X connect 6 0 5 0;
#X restore 21 15 pd /moog/oscillator/1/octave;
#X text 32 -3 rnd(127/5.0) => 0 \, 1 \, 2 \, 3 \, 4 \, 5;
#N canvas 0 22 450 300 /moog/oscillator/1/waveform 0;
#X obj 155 65 inlet;
#X obj 156 90 / 127;
#X obj 163 167 int;
#X obj 170 232 s \$0.send;
#X msg 170 213 send /moog/oscillator/1/waveform \$1;
#X obj 167 117 * 6;
#X obj 177 190 min 5;
#X connect 0 0 1 0;
#X connect 1 0 5 0;
#X connect 2 0 6 0;
#X connect 4 0 3 0;
#X connect 5 0 2 0;
#X connect 6 0 4 0;
#X restore 20 70 pd /moog/oscillator/1/waveform;
#N canvas 0 22 450 300 /moog/oscillator/1/finetune 0;
#X obj 155 65 inlet;
#X obj 108 222 s \$0.send;
#X obj 176 138 - 1;
#X obj 185 166 * 9;
#X msg 108 203 send /moog/oscillator/1/finetune \$1;
#X obj 156 90 / 63;
#X connect 0 0 5 0;
#X connect 2 0 3 0;
#X connect 3 0 4 0;
#X connect 4 0 1 0;
#X connect 5 0 2 0;
#X restore 20 114 pd /moog/oscillator/1/finetune;
#N canvas 0 22 450 300 /moog/oscillator/1/volume/db 0;
#X obj 156 90 / 127;
#X obj 155 65 inlet;
#X obj 142 232 s \$0.send;
#X msg 142 213 send /moog/oscillator/1/volume/db \$1;
#X obj 156 144 pow 4;
#X obj 156 175 * 100;
#X obj 202 106 -;
#X msg 202 81 1 \$1;
#X obj 212 171 -;
#X msg 212 146 1 \$1;
#X connect 0 0 7 0;
#X connect 1 0 0 0;
#X connect 3 0 2 0;
#X connect 4 0 9 0;
#X connect 5 0 3 0;
#X connect 6 0 4 0;
#X connect 7 0 6 0;
#X connect 8 0 5 0;
#X connect 9 0 8 0;
#X restore 19 154 pd /moog/oscillator/1/volume/db;
#X text 30 193 off < 63 < on;
#N canvas 0 22 450 300 /moog/oscillator/1/mod 0;
#X obj 156 90 / 127;
#X obj 155 65 inlet;
#X obj 155 110 + 0.5;
#X obj 157 129 int;
#X obj 152 233 s \$0.send;
#X msg 152 208 send /moog/oscillator/1/mod \$1;
#X connect 0 0 2 0;
#X connect 1 0 0 0;
#X connect 2 0 3 0;
#X connect 3 0 5 0;
#X connect 5 0 4 0;
#X restore 19 209 pd /moog/oscillator/1/mod;
#X obj 246 -47 cnv 15 233 300 empty empty Osc_2 80 12 0 14 -117497
-66577 0;
#X text 265 -3 rnd(127/5.0) => 0 \, 1 \, 2 \, 3 \, 4 \, 5;
#X text 263 193 off < 63 < on;
#N canvas 0 22 450 300 /moog/oscillator/2/octave 0;
#X obj 155 65 inlet;
#X obj 156 90 / 127;
#X obj 163 167 int;
#X obj 167 117 * 5;
#X obj 170 145 + 0.5;
#X obj 170 232 s \$0.send;
#X msg 170 213 send /moog/oscillator/2/octave \$1;
#X connect 0 0 1 0;
#X connect 1 0 3 0;
#X connect 2 0 6 0;
#X connect 3 0 4 0;
#X connect 4 0 2 0;
#X connect 6 0 5 0;
#X restore 254 15 pd /moog/oscillator/2/octave;
#N canvas 0 22 450 300 /moog/oscillator/2/waveform 0;
#X obj 155 65 inlet;
#X obj 156 90 / 127;
#X obj 163 167 int;
#X obj 170 232 s \$0.send;
#X msg 170 213 send /moog/oscillator/2/waveform \$1;
#X obj 166 117 * 6;
#X obj 172 189 min 5;
#X connect 0 0 1 0;
#X connect 1 0 5 0;
#X connect 2 0 6 0;
#X connect 4 0 3 0;
#X connect 5 0 2 0;
#X connect 6 0 4 0;
#X restore 253 70 pd /moog/oscillator/2/waveform;
#N canvas 0 22 450 300 /moog/oscillator/2/finetune 0;
#X obj 155 65 inlet;
#X obj 108 222 s \$0.send;
#X obj 176 138 - 1;
#X obj 185 166 * 9;
#X obj 156 90 / 63;
#X msg 108 203 send /moog/oscillator/2/finetune \$1;
#X connect 0 0 4 0;
#X connect 2 0 3 0;
#X connect 3 0 5 0;
#X connect 4 0 2 0;
#X connect 5 0 1 0;
#X restore 253 114 pd /moog/oscillator/2/finetune;
#N canvas 0 22 450 300 /moog/oscillator/2/volume/db 0;
#X obj 156 90 / 127;
#X obj 155 65 inlet;
#X obj 142 232 s \$0.send;
#X obj 156 144 pow 4;
#X obj 156 175 * 100;
#X obj 202 106 -;
#X msg 202 81 1 \$1;
#X obj 212 171 -;
#X msg 212 146 1 \$1;
#X msg 142 213 send /moog/oscillator/2/volume/db \$1;
#X connect 0 0 6 0;
#X connect 1 0 0 0;
#X connect 3 0 8 0;
#X connect 4 0 9 0;
#X connect 5 0 3 0;
#X connect 6 0 5 0;
#X connect 7 0 4 0;
#X connect 8 0 7 0;
#X connect 9 0 2 0;
#X restore 252 154 pd /moog/oscillator/2/volume/db;
#N canvas 0 22 450 300 /moog/oscillator/2/mod 0;
#X obj 156 90 / 127;
#X obj 155 65 inlet;
#X obj 155 110 + 0.5;
#X obj 157 129 int;
#X obj 152 233 s \$0.send;
#X msg 152 208 send /moog/oscillator/2/mod \$1;
#X connect 0 0 2 0;
#X connect 1 0 0 0;
#X connect 2 0 3 0;
#X connect 3 0 5 0;
#X connect 5 0 4 0;
#X restore 252 209 pd /moog/oscillator/2/mod;
#X obj 21 -21 ctlin 22 1;
#X text 31 52 floor(127/6.0) => 0 \, 1 \, 2 \, 3 \, 4 \, 5;
#X text 264 52 floor(127/6.0) => 0 \, 1 \, 2 \, 3 \, 4 \, 5;
#X obj 20 34 ctlin 23 1;
#X obj 20 94 ctlin 24 1;
#X obj 19 135 ctlin 25 1;
#X obj 19 176 ctlin 26 1;
#X obj 254 -21 ctlin 27 1;
#X obj 253 34 ctlin 28 1;
#X obj 253 94 ctlin 29 1;
#X obj 252 135 ctlin 30 1;
#X obj 252 176 ctlin 31 1;
#N canvas 0 22 450 300 connect 0;
#X obj 229 10 loadbang;
#X obj 227 50 f \$1;
#X obj 230 30 del 5;
#X msg 222 73 connect localhost \$1;
#X obj 241 132 netsend 1;
#X obj 254 101 r \$0.send;
#X connect 0 0 2 0;
#X connect 1 0 3 0;
#X connect 2 0 1 0;
#X connect 3 0 4 0;
#X connect 5 0 4 0;
#X restore 661 -42 pd connect;
#X obj 19 279 cnv 15 470 330 empty empty Osc_3 80 12 0 14 -117497 -66577
0;
#X text 38 323 rnd(127/5.0) => 0 \, 1 \, 2 \, 3 \, 4 \, 5;
#X text 37 378 floor(127/6.0) => 0 \, 1 \, 2 \, 3 \, 4 \, 5;
#N canvas 0 22 450 300 /moog/oscillator/3/octave 0;
#X obj 155 65 inlet;
#X obj 156 90 / 127;
#X obj 163 167 int;
#X obj 167 117 * 5;
#X obj 170 145 + 0.5;
#X obj 170 232 s \$0.send;
#X msg 170 213 send /moog/oscillator/3/octave \$1;
#X connect 0 0 1 0;
#X connect 1 0 3 0;
#X connect 2 0 6 0;
#X connect 3 0 4 0;
#X connect 4 0 2 0;
#X connect 6 0 5 0;
#X restore 27 341 pd /moog/oscillator/3/octave;
#N canvas 0 22 450 300 /moog/oscillator/3/waveform 0;
#X obj 155 65 inlet;
#X obj 156 90 / 127;
#X obj 163 167 int;
#X obj 170 232 s \$0.send;
#X obj 166 117 * 6;
#X obj 172 189 min 5;
#X msg 170 213 send /moog/oscillator/3/waveform \$1;
#X connect 0 0 1 0;
#X connect 1 0 4 0;
#X connect 2 0 5 0;
#X connect 4 0 2 0;
#X connect 5 0 6 0;
#X connect 6 0 3 0;
#X restore 26 396 pd /moog/oscillator/3/waveform;
#N canvas 0 22 450 300 /moog/oscillator/3/finetune 0;
#X obj 155 65 inlet;
#X obj 108 222 s \$0.send;
#X obj 176 138 - 1;
#X obj 185 166 * 9;
#X obj 156 90 / 63;
#X msg 108 203 send /moog/oscillator/3/finetune \$1;
#X connect 0 0 4 0;
#X connect 2 0 3 0;
#X connect 3 0 5 0;
#X connect 4 0 2 0;
#X connect 5 0 1 0;
#X restore 26 440 pd /moog/oscillator/3/finetune;
#N canvas 0 22 450 300 /moog/oscillator/3/volume/db 0;
#X obj 156 90 / 127;
#X obj 155 65 inlet;
#X obj 142 232 s \$0.send;
#X obj 156 144 pow 4;
#X obj 156 175 * 100;
#X obj 202 106 -;
#X msg 202 81 1 \$1;
#X obj 212 171 -;
#X msg 212 146 1 \$1;
#X msg 142 213 send /moog/oscillator/3/volume/db \$1;
#X connect 0 0 6 0;
#X connect 1 0 0 0;
#X connect 3 0 8 0;
#X connect 4 0 9 0;
#X connect 5 0 3 0;
#X connect 6 0 5 0;
#X connect 7 0 4 0;
#X connect 8 0 7 0;
#X connect 9 0 2 0;
#X restore 25 480 pd /moog/oscillator/3/volume/db;
#X obj 27 305 ctlin 32 1;
#X obj 26 360 ctlin 33 1;
#X obj 26 420 ctlin 34 1;
#X obj 25 461 ctlin 35 1;
#N canvas 0 22 450 300 /moog/oscillator/3/mod/mix 0;
#X obj 156 90 / 127;
#X obj 155 65 inlet;
#X obj 152 233 s \$0.send;
#X msg 152 208 send /moog/oscillator/3/mod/mix \$1;
#X connect 0 0 3 0;
#X connect 1 0 0 0;
#X connect 3 0 2 0;
#X restore 25 523 pd /moog/oscillator/3/mod/mix;
#X text 35 565 off < 63 < on;
#X obj 25 502 ctlin 36 1;
#N canvas 0 22 450 300 /moog/oscillator/3/kbd 0;
#X obj 156 90 / 127;
#X obj 155 65 inlet;
#X obj 155 110 + 0.5;
#X obj 157 129 int;
#X obj 152 233 s \$0.send;
#X msg 152 208 send /moog/oscillator/3/kbd \$1;
#X connect 0 0 2 0;
#X connect 1 0 0 0;
#X connect 2 0 3 0;
#X connect 3 0 5 0;
#X connect 5 0 4 0;
#X restore 24 581 pd /moog/oscillator/3/kbd;
#X obj 24 548 ctlin 37 1;
#N canvas 0 22 450 300 /moog/oscillator/3/noise/volume/db 0;
#X obj 156 90 / 127;
#X obj 155 65 inlet;
#X obj 142 232 s \$0.send;
#X obj 156 144 pow 4;
#X obj 156 175 * 100;
#X obj 202 106 -;
#X msg 202 81 1 \$1;
#X obj 212 171 -;
#X msg 212 146 1 \$1;
#X msg 142 213 send /moog/oscillator/3/noise/volume/db \$1;
#X connect 0 0 6 0;
#X connect 1 0 0 0;
#X connect 3 0 8 0;
#X connect 4 0 9 0;
#X connect 5 0 3 0;
#X connect 6 0 5 0;
#X connect 7 0 4 0;
#X connect 8 0 7 0;
#X connect 9 0 2 0;
#X restore 249 327 pd /moog/oscillator/3/noise/volume/db;
#X text 260 367 off < 63 < on;
#X obj 249 308 ctlin 38 1;
#N canvas 0 22 450 300 /moog/oscillator/3/noise/out 0;
#X obj 156 90 / 127;
#X obj 155 65 inlet;
#X obj 155 110 + 0.5;
#X obj 157 129 int;
#X obj 152 233 s \$0.send;
#X msg 152 208 send /moog/oscillator/3/noise/out \$1;
#X connect 0 0 2 0;
#X connect 1 0 0 0;
#X connect 2 0 3 0;
#X connect 3 0 5 0;
#X connect 5 0 4 0;
#X restore 249 383 pd /moog/oscillator/3/noise/out;
#N canvas 768 22 450 300 /moog/oscillator/3/noise/type 0;
#X obj 156 90 / 127;
#X obj 155 65 inlet;
#X obj 155 110 + 0.5;
#X obj 157 129 int;
#X obj 152 233 s \$0.send;
#X msg 152 208 send /moog/oscillator/3/noise/type \$1;
#X connect 0 0 2 0;
#X connect 1 0 0 0;
#X connect 2 0 3 0;
#X connect 3 0 5 0;
#X connect 5 0 4 0;
#X restore 249 436 pd /moog/oscillator/3/noise/type;
#X text 260 420 white < 63 < pink;
#X obj 249 350 ctlin 39 1;
#X obj 249 403 ctlin 40 1;
#X connect 0 0 1 0;
#X connect 0 1 1 1;
#X connect 1 0 2 0;
#X connect 2 0 9 0;
#X connect 3 0 4 0;
#X connect 4 0 5 0;
#X connect 5 0 10 0;
#X connect 6 0 8 0;
#X connect 7 0 11 0;
#X connect 8 0 7 0;
#X connect 12 0 14 0;
#X connect 14 0 13 0;
#X connect 15 0 12 0;
#X connect 17 0 47 0;
#X connect 18 0 48 0;
#X connect 19 0 50 0;
#X connect 20 0 52 0;
#X connect 21 0 49 0;
#X connect 23 0 32 0;
#X connect 24 0 33 0;
#X connect 25 0 34 0;
#X connect 26 0 36 0;
#X connect 28 0 30 0;
#X connect 29 0 28 0;
#X connect 30 0 27 0;
#X connect 39 0 43 0;
#X connect 40 0 44 0;
#X connect 41 0 45 0;
#X connect 42 0 46 0;
#X connect 69 0 54 0;
#X connect 72 0 56 0;
#X connect 73 0 57 0;
#X connect 74 0 58 0;
#X connect 75 0 60 0;
#X connect 76 0 64 0;
#X connect 77 0 65 0;
#X connect 78 0 66 0;
#X connect 79 0 67 0;
#X connect 80 0 68 0;
#X connect 89 0 85 0;
#X connect 90 0 86 0;
#X connect 91 0 87 0;
#X connect 92 0 88 0;
#X connect 95 0 93 0;
#X connect 97 0 96 0;
#X connect 100 0 98 0;
#X connect 104 0 101 0;
#X connect 105 0 102 0;
