#N canvas 158 197 1007 697 10;
#X obj 144 82 notein 1;
#X obj 144 107 pack f f;
#X msg 144 132 send /moog/vc \$1 \$2;
#X obj 136 194 bendin 1;
#X obj 24 6 loadbang;
#X obj 24 56 f \$1;
#X obj 24 31 del 5;
#X msg 24 81 connect localhost \$1;
#X obj 136 219 / 16384;
#X msg 136 244 send /moog/bend \$1;
#X obj 26 164 netsend 1;
#X obj 277 189 ctlin 1 1;
#X msg 277 239 send /moog/mod \$1;
#X obj 277 214 / 127;
#X obj 63 100 r \$0.send;
#X obj 144 157 s \$0.send;
#X obj 136 269 s \$0.send;
#X obj 277 264 s \$0.send;
#X obj 280 107 / 127;
#X obj 280 157 s \$0.send;
#X msg 280 132 send /moog/volume/rms \$1;
#X obj 280 82 ctlin 12 1;
#X obj 516 9 cnv 15 400 300 empty empty Filter 80 12 0 14 -261234 -66577
0;
#X msg 522 72 send /moog/filter/freq \$1;
#X msg 522 170 send /moog/filter/q \$1;
#X msg 693 77 send /moog/filter/contour \$1;
#X obj 522 29 ctlin 7 1;
#X obj 522 120 ctlin 9 1;
#X obj 693 34 ctlin 11 1;
#X obj 522 97 s \$0.send;
#X obj 522 195 s \$0.send;
#X obj 693 100 s \$0.send;
#N canvas 0 22 450 300 trans 0;
#X obj 156 90 / 127;
#X obj 156 148 + 20;
#X obj 157 129 * 15980;
#X obj 155 110 pow 4;
#X obj 155 65 inlet;
#X obj 157 180 outlet;
#X connect 0 0 3 0;
#X connect 1 0 5 0;
#X connect 2 0 1 0;
#X connect 3 0 2 0;
#X connect 4 0 0 0;
#X restore 522 50 pd trans;
#N canvas 0 22 450 300 trans 0;
#X obj 156 90 / 127;
#X obj 155 110 pow 4;
#X obj 155 65 inlet;
#X obj 157 180 outlet;
#X obj 157 129 * 9.9;
#X obj 156 148 + 0.1;
#X connect 0 0 1 0;
#X connect 1 0 4 0;
#X connect 2 0 0 0;
#X connect 4 0 5 0;
#X connect 5 0 3 0;
#X restore 522 145 pd trans;
#N canvas 0 22 450 300 trans 0;
#X obj 156 90 / 127;
#X obj 155 110 pow 4;
#X obj 155 65 inlet;
#X obj 157 180 outlet;
#X obj 157 129 * 100;
#X connect 0 0 1 0;
#X connect 1 0 4 0;
#X connect 2 0 0 0;
#X connect 4 0 3 0;
#X restore 693 55 pd trans;
#X obj 687 197 s \$0.send;
#X msg 687 172 send /moog/filter/mod \$1;
#N canvas 0 22 450 300 trans 0;
#X obj 156 90 / 127;
#X obj 155 65 inlet;
#X obj 157 180 outlet;
#X obj 155 110 + 0.5;
#X obj 157 129 int;
#X connect 0 0 3 0;
#X connect 1 0 0 0;
#X connect 3 0 4 0;
#X connect 4 0 2 0;
#X restore 688 146 pd trans off < 63 < on;
#X obj 527 284 s \$0.send;
#X obj 690 124 ctlin 13 1;
#X obj 526 217 ctlin 14 1;
#X msg 526 263 send /moog/filter/vc \$1 \$2;
#N canvas 0 22 450 300 trans 0;
#X obj 157 45 inlet;
#X obj 154 256 outlet;
#X obj 159 138 int;
#X obj 154 94 * 4;
#X obj 157 118 + 0.5;
#X obj 153 230 pack f f;
#X obj 160 163 t f f;
#X obj 157 196 % 2;
#X obj 205 178 / 4;
#X obj 211 198 + 0.5;
#X obj 219 219 int;
#X obj 153 71 / 128;
#X connect 0 0 11 0;
#X connect 2 0 6 0;
#X connect 3 0 2 0;
#X connect 4 0 2 0;
#X connect 5 0 1 0;
#X connect 6 0 7 0;
#X connect 6 1 8 0;
#X connect 7 0 5 0;
#X connect 8 0 9 0;
#X connect 9 0 10 0;
#X connect 10 0 5 1;
#X connect 11 0 3 0;
#X restore 526 240 pd trans off < 31 < k < 63 < l < 95 < l and k;
#X obj 297 313 cnv 15 255 350 empty empty Filter_Envelope 80 12 0 14
-203904 -66577 0;
#X obj 302 396 s \$0.send;
#N canvas 0 22 450 300 trans 0;
#X obj 156 90 / 127;
#X obj 155 65 inlet;
#X obj 157 180 outlet;
#X obj 157 129 * 9990;
#X obj 156 148 + 10;
#X obj 155 110 pow 4;
#X connect 0 0 5 0;
#X connect 1 0 0 0;
#X connect 3 0 4 0;
#X connect 4 0 2 0;
#X connect 5 0 3 0;
#X restore 302 358 pd trans;
#X obj 302 339 ctlin 15 1;
#X msg 302 377 send /moog/envelope/filter/attack \$1;
#X obj 300 474 s \$0.send;
#N canvas 0 22 450 300 trans 0;
#X obj 156 90 / 127;
#X obj 155 65 inlet;
#X obj 157 180 outlet;
#X obj 155 110 pow 2;
#X obj 157 129 * 699;
#X obj 156 148 + 1;
#X connect 0 0 3 0;
#X connect 1 0 0 0;
#X connect 3 0 4 0;
#X connect 4 0 5 0;
#X connect 5 0 2 0;
#X restore 300 436 pd trans;
#X obj 300 417 ctlin 16 1;
#X msg 300 455 send /moog/envelope/filter/decay \$1;
#X obj 300 553 s \$0.send;
#N canvas 0 22 450 300 trans 0;
#X obj 155 65 inlet;
#X obj 157 180 outlet;
#X obj 156 90 / 1.27;
#X connect 0 0 2 0;
#X connect 2 0 1 0;
#X restore 300 515 pd trans;
#X obj 300 495 ctlin 17 1;
#X msg 300 534 send /moog/envelope/filter/sustain \$1;
#X obj 301 637 s \$0.send;
#N canvas 0 22 450 300 trans 0;
#X obj 156 90 / 127;
#X obj 155 65 inlet;
#X obj 157 180 outlet;
#X obj 155 110 + 0.5;
#X obj 157 129 int;
#X connect 0 0 3 0;
#X connect 1 0 0 0;
#X connect 3 0 4 0;
#X connect 4 0 2 0;
#X restore 301 596 pd trans off < 63 < on;
#X obj 301 575 ctlin 18 1;
#X msg 301 617 send /moog/envelope/filter/release \$1;
#X obj 555 313 cnv 15 255 350 empty empty Amp_Envelope 80 12 0 14 -203904
-66577 0;
#X obj 560 396 s \$0.send;
#N canvas 0 22 450 300 trans 0;
#X obj 156 90 / 127;
#X obj 155 65 inlet;
#X obj 157 180 outlet;
#X obj 157 129 * 9990;
#X obj 156 148 + 10;
#X obj 155 110 pow 4;
#X connect 0 0 5 0;
#X connect 1 0 0 0;
#X connect 3 0 4 0;
#X connect 4 0 2 0;
#X connect 5 0 3 0;
#X restore 560 358 pd trans;
#X obj 560 339 ctlin 15 1;
#X obj 558 474 s \$0.send;
#N canvas 0 22 450 300 trans 0;
#X obj 156 90 / 127;
#X obj 155 65 inlet;
#X obj 157 180 outlet;
#X obj 155 110 pow 2;
#X obj 157 129 * 699;
#X obj 156 148 + 1;
#X connect 0 0 3 0;
#X connect 1 0 0 0;
#X connect 3 0 4 0;
#X connect 4 0 5 0;
#X connect 5 0 2 0;
#X restore 558 436 pd trans;
#X obj 558 417 ctlin 16 1;
#X obj 558 553 s \$0.send;
#N canvas 0 22 450 300 trans 0;
#X obj 155 65 inlet;
#X obj 157 180 outlet;
#X obj 156 90 / 1.27;
#X connect 0 0 2 0;
#X connect 2 0 1 0;
#X restore 558 515 pd trans;
#X obj 558 495 ctlin 17 1;
#X obj 559 637 s \$0.send;
#N canvas 0 22 450 300 trans 0;
#X obj 156 90 / 127;
#X obj 155 65 inlet;
#X obj 157 180 outlet;
#X obj 155 110 + 0.5;
#X obj 157 129 int;
#X connect 0 0 3 0;
#X connect 1 0 0 0;
#X connect 3 0 4 0;
#X connect 4 0 2 0;
#X restore 559 596 pd trans off < 63 < on;
#X obj 559 575 ctlin 18 1;
#X msg 560 377 send /moog/envelope/amp/attack \$1;
#X msg 558 455 send /moog/envelope/amp/decay \$1;
#X msg 558 534 send /moog/envelope/amp/sustain \$1;
#X msg 559 617 send /moog/envelope/amp/release \$1;
#X connect 0 0 1 0;
#X connect 0 1 1 1;
#X connect 1 0 2 0;
#X connect 2 0 15 0;
#X connect 3 0 8 0;
#X connect 4 0 6 0;
#X connect 5 0 7 0;
#X connect 6 0 5 0;
#X connect 7 0 10 0;
#X connect 8 0 9 0;
#X connect 9 0 16 0;
#X connect 11 0 13 0;
#X connect 12 0 17 0;
#X connect 13 0 12 0;
#X connect 14 0 10 0;
#X connect 18 0 20 0;
#X connect 20 0 19 0;
#X connect 21 0 18 0;
#X connect 23 0 29 0;
#X connect 24 0 30 0;
#X connect 25 0 31 0;
#X connect 26 0 32 0;
#X connect 27 0 33 0;
#X connect 28 0 34 0;
#X connect 32 0 23 0;
#X connect 33 0 24 0;
#X connect 34 0 25 0;
#X connect 36 0 35 0;
#X connect 37 0 36 0;
#X connect 39 0 37 0;
#X connect 40 0 42 0;
#X connect 41 0 38 0;
#X connect 42 0 41 0;
#X connect 45 0 47 0;
#X connect 46 0 45 0;
#X connect 47 0 44 0;
#X connect 49 0 51 0;
#X connect 50 0 49 0;
#X connect 51 0 48 0;
#X connect 53 0 55 0;
#X connect 54 0 53 0;
#X connect 55 0 52 0;
#X connect 57 0 59 0;
#X connect 58 0 57 0;
#X connect 59 0 56 0;
#X connect 62 0 73 0;
#X connect 63 0 62 0;
#X connect 65 0 74 0;
#X connect 66 0 65 0;
#X connect 68 0 75 0;
#X connect 69 0 68 0;
#X connect 71 0 76 0;
#X connect 72 0 71 0;
#X connect 73 0 61 0;
#X connect 74 0 64 0;
#X connect 75 0 67 0;
#X connect 76 0 70 0;
