#N canvas 541 572 788 347 10;
#X obj 191 49 inlet~;
#X obj 185 244 outlet~;
#X obj 179 134 +~ 1;
#X obj 190 188 tabread4~ static_moog_trans;
#X obj 184 158 *~ 262144;
#X obj 232 108 *~;
#X obj 267 233 *~;
#X obj 258 75 moog~;
#X obj 303 42 sig~ 0.5;
#X obj 234 11 r~ \$1.vnoise.2;
#X obj 393 232 r~ \$1.vnoise.3;
#X obj 308 136 r~ \$1.vnoise.1;
#X connect 0 0 7 0;
#X connect 2 0 4 0;
#X connect 3 0 6 0;
#X connect 4 0 3 0;
#X connect 5 0 2 0;
#X connect 6 0 1 0;
#X connect 7 0 5 0;
#X connect 8 0 7 2;
#X connect 9 0 7 1;
#X connect 10 0 6 1;
#X connect 11 0 5 1;
