#N canvas 0 0 450 300 10;
#X obj 153 45 inlet;
#X obj 151 72 sel 0;
#X msg 149 100 1;
#X msg 183 101 0;
#X obj 153 124 outlet;
#X connect 0 0 1 0;
#X connect 1 0 2 0;
#X connect 1 1 3 0;
#X connect 2 0 4 0;
#X connect 3 0 4 0;
