#N canvas 343 553 658 367 10;
#X floatatom 234 137 5 0 0 0 - - -;
#X obj 474 151 bng 15 250 50 0 empty empty empty 17 7 0 10 -262144
-1 -1;
#X obj 309 271 sel 0;
#X floatatom 147 147 5 0 0 0 - - -;
#X obj 119 23 inlet note;
#X obj 216 57 inlet vel;
#X obj 332 32 inlet get;
#X obj 334 91 t b b;
#X obj 305 248 tabread \$1.keymem;
#X obj 142 210 tabwrite \$1.keymem;
#X obj 196 129 f;
#X obj 165 102 t b f;
#X obj 260 293 f;
#X obj 384 218 t f f;
#X obj 339 301 t b f;
#X obj 248 333 outlet note;
#X obj 344 336 outlet vel;
#X obj 231 88 t f f;
#X floatatom 396 309 5 0 0 0 - - -;
#X floatatom 294 314 5 0 0 0 - - -;
#X floatatom 141 300 5 0 0 0 - - -;
#X obj 482 310 del 0.01;
#X obj 183 236 spigot;
#X obj 200 265 sel;
#X obj 240 240 pIs 0;
#X msg 263 268 0;
#X obj 199 294 t b b;
#X obj 108 71 t f f f;
#X obj 347 152 cyclone/counter;
#X obj 470 87 table \$1.keymem 300;
#X obj 321 66 moses 300;
#X obj 318 219 sel 300;
#X obj 71 49 moses 0;
#X connect 0 0 9 1;
#X connect 1 0 28 2;
#X connect 2 0 21 0;
#X connect 2 1 1 0;
#X connect 2 1 14 0;
#X connect 3 0 9 0;
#X connect 4 0 32 0;
#X connect 5 0 17 0;
#X connect 7 0 28 0;
#X connect 7 1 1 0;
#X connect 8 0 2 0;
#X connect 10 0 3 0;
#X connect 11 0 10 0;
#X connect 11 1 0 0;
#X connect 12 0 15 0;
#X connect 12 0 19 0;
#X connect 12 0 23 1;
#X connect 13 0 8 0;
#X connect 13 1 12 1;
#X connect 13 1 30 1;
#X connect 14 0 12 0;
#X connect 14 1 16 0;
#X connect 14 1 18 0;
#X connect 17 0 10 1;
#X connect 17 1 24 0;
#X connect 21 0 28 0;
#X connect 22 0 23 0;
#X connect 23 0 26 0;
#X connect 24 0 22 1;
#X connect 25 0 14 0;
#X connect 26 0 7 0;
#X connect 26 1 25 0;
#X connect 27 0 30 0;
#X connect 27 1 11 0;
#X connect 27 2 20 0;
#X connect 27 2 22 0;
#X connect 28 0 31 0;
#X connect 30 0 7 0;
#X connect 31 1 13 0;
#X connect 32 1 27 0;
