#N canvas 480 304 658 367 10;
#X floatatom 234 137 5 0 0 0 - - -;
#X obj 384 173 bng 15 250 50 0 empty empty empty 17 7 0 10 -262144
-1 -1;
#X obj 309 271 sel 0;
#X obj 318 219 sel 128;
#X floatatom 147 147 5 0 0 0 - - -;
#X obj 118 58 inlet note;
#X obj 216 57 inlet vel;
#X obj 332 32 inlet get;
#X obj 334 91 t b b;
#X obj 305 248 tabread \$1.keymem;
#X obj 142 210 tabwrite \$1.keymem;
#X obj 196 129 f;
#X obj 165 102 t b f;
#X obj 260 293 f;
#X obj 384 218 t f f;
#X obj 339 301 t b f;
#X obj 248 333 outlet note;
#X obj 344 336 outlet vel;
#X obj 95 101 t f f;
#X obj 227 93 t f f;
#X floatatom 396 309 5 0 0 0 - - -;
#X floatatom 294 314 5 0 0 0 - - -;
#X obj 301 152 bng 15 250 50 0 empty empty empty 17 7 0 10 -262144
-1 -1;
#X obj 314 184 pcount 129;
#X obj 482 310 del 1;
#X obj 264 217 f;
#X obj 77 288 sel;
#X obj 124 258 spigot;
#X obj 188 250 pIs 0;
#X obj 187 281 not;
#X obj 71 233 spigot;
#X obj 150 310 t f b;
#X obj 93 316 f;
#X obj 355 67 spigot;
#X msg 174 340 1;
#X msg 203 336 0;
#X msg 468 252 0;
#X obj 324 137 table \$1.keymem 128;
#X obj 72 260 t f f;
#X obj 231 278 tgl 15 0 empty empty empty 17 7 0 10 -262144 -1 -1 1
1;
#X obj 262 264 f;
#X obj 256 238 t f b;
#X obj 398 101 bng 15 250 50 0 empty empty empty 17 7 0 10 -262144
-1 -1;
#X connect 0 0 10 1;
#X connect 1 0 23 1;
#X connect 2 0 24 0;
#X connect 2 1 1 0;
#X connect 2 1 15 0;
#X connect 3 1 14 0;
#X connect 4 0 10 0;
#X connect 5 0 18 0;
#X connect 6 0 19 0;
#X connect 7 0 33 0;
#X connect 8 0 23 0;
#X connect 8 1 1 0;
#X connect 9 0 2 0;
#X connect 11 0 4 0;
#X connect 12 0 11 0;
#X connect 12 1 0 0;
#X connect 13 0 16 0;
#X connect 13 0 21 0;
#X connect 13 0 26 1;
#X connect 14 0 9 0;
#X connect 14 1 13 1;
#X connect 15 0 13 0;
#X connect 15 1 17 0;
#X connect 15 1 20 0;
#X connect 18 0 30 0;
#X connect 18 0 27 0;
#X connect 18 1 12 0;
#X connect 19 0 25 1;
#X connect 19 0 28 0;
#X connect 19 1 11 1;
#X connect 22 0 23 0;
#X connect 23 0 3 0;
#X connect 24 0 23 0;
#X connect 25 0 41 0;
#X connect 26 0 32 0;
#X connect 26 1 35 0;
#X connect 27 0 26 1;
#X connect 27 0 31 0;
#X connect 28 0 29 0;
#X connect 28 0 30 1;
#X connect 29 0 27 1;
#X connect 30 0 38 0;
#X connect 31 0 16 0;
#X connect 31 0 34 0;
#X connect 31 1 25 0;
#X connect 32 0 31 0;
#X connect 33 0 8 0;
#X connect 33 0 42 0;
#X connect 34 0 39 0;
#X connect 35 0 39 0;
#X connect 36 0 17 0;
#X connect 38 0 26 0;
#X connect 38 1 32 1;
#X connect 39 0 40 1;
#X connect 40 0 33 1;
#X connect 41 0 17 0;
#X connect 41 1 40 0;
