#N canvas 480 304 658 367 10;
#X floatatom 234 137 5 0 0 0 - - -;
#X obj 384 173 bng 15 250 50 0 empty empty empty 17 7 0 10 -262144
-1 -1;
#X obj 309 271 sel 0;
#X obj 318 219 sel 128;
#X floatatom 147 147 5 0 0 0 - - -;
#X obj 118 58 inlet note;
#X obj 216 57 inlet vel;
#X obj 331 58 inlet get;
#X obj 334 91 t b b;
#X obj 324 137 table \$1.keymem 128;
#X obj 305 248 tabread \$1.keymem;
#X obj 142 210 tabwrite \$1.keymem;
#X obj 196 129 f;
#X obj 165 102 t b f;
#X obj 260 293 f;
#X obj 384 218 t f f;
#X obj 339 301 t b f;
#X obj 248 333 outlet note;
#X obj 344 336 outlet vel;
#X obj 95 101 t f f;
#X obj 227 93 t f f;
#X floatatom 396 309 5 0 0 0 - - -;
#X floatatom 294 314 5 0 0 0 - - -;
#X obj 301 152 bng 15 250 50 0 empty empty empty 17 7 0 10 -262144
-1 -1;
#X obj 314 184 pcount 129;
#X obj 482 310 del 1;
#X connect 0 0 11 1;
#X connect 1 0 24 1;
#X connect 2 0 25 0;
#X connect 2 1 1 0;
#X connect 2 1 16 0;
#X connect 3 1 15 0;
#X connect 4 0 11 0;
#X connect 5 0 19 0;
#X connect 6 0 20 0;
#X connect 7 0 8 0;
#X connect 8 0 24 0;
#X connect 8 1 1 0;
#X connect 10 0 2 0;
#X connect 12 0 4 0;
#X connect 13 0 12 0;
#X connect 13 1 0 0;
#X connect 14 0 17 0;
#X connect 14 0 22 0;
#X connect 15 0 10 0;
#X connect 15 1 14 1;
#X connect 16 0 14 0;
#X connect 16 1 18 0;
#X connect 16 1 21 0;
#X connect 19 0 17 0;
#X connect 19 1 13 0;
#X connect 20 0 18 0;
#X connect 20 1 12 1;
#X connect 23 0 24 0;
#X connect 24 0 3 0;
#X connect 25 0 24 0;
