#N canvas 1182 224 482 399 10;
#X obj 28 34 inlet~ frequency;
#X obj 145 27 inlet oscilator type;
#X obj 130 339 outlet~;
#X obj 116 301 nonlinear \$1;
#X obj 93 267 tabosc4~ moog.tri;
#X obj 197 57 sel 0 1 2 3 4 5;
#X msg 110 107 moog.tri;
#X msg 143 137 moog.usplitramp;
#X msg 182 107 moog.saw;
#X msg 216 169 moog.sq;
#X msg 252 109 moog.widepulse;
#X msg 279 165 moog.narrowpulse;
#X obj 160 207 symbol;
#X msg 149 240 set \$1;
#X connect 0 0 4 0;
#X connect 1 0 5 0;
#X connect 3 0 2 0;
#X connect 4 0 3 0;
#X connect 5 0 6 0;
#X connect 5 1 7 0;
#X connect 5 2 8 0;
#X connect 5 3 9 0;
#X connect 5 4 10 0;
#X connect 5 5 11 0;
#X connect 6 0 12 0;
#X connect 7 0 12 0;
#X connect 8 0 12 0;
#X connect 9 0 12 0;
#X connect 10 0 12 0;
#X connect 11 0 12 0;
#X connect 12 0 13 0;
#X connect 13 0 4 0;
