#N canvas 45 507 1136 418 10;
#N canvas 0 22 450 300 display 0;
#X obj 125 206 outlet;
#X obj 131 86 inlet;
#X obj 132 126 sel 0 1 2 3 4 5;
#X obj 61 162 symbol triangle;
#X obj 90 180 symbol rsawtooth;
#X obj 187 161 symbol sawtooth;
#X obj 217 182 symbol square;
#X obj 290 159 symbol wrect;
#X obj 321 180 symbol nrect;
#X connect 1 0 2 0;
#X connect 2 0 3 0;
#X connect 2 1 4 0;
#X connect 2 2 5 0;
#X connect 2 3 6 0;
#X connect 2 4 7 0;
#X connect 2 5 8 0;
#X connect 3 0 0 0;
#X connect 4 0 0 0;
#X connect 5 0 0 0;
#X connect 6 0 0 0;
#X connect 7 0 0 0;
#X connect 8 0 0 0;
#X restore 53 291 pd display;
#X obj -578 12 *~;
#X obj -583 67 *~;
#N canvas 441 205 450 300 calcfinetune 0;
#X obj 150 71 inlet;
#X obj 162 178 outlet;
#X obj 218 101 mtof;
#X floatatom 219 121 5 0 0 0 - - -;
#X obj 213 82 + 7;
#X obj 206 143 / 12.2499;
#X connect 0 0 4 0;
#X connect 2 0 3 0;
#X connect 3 0 5 0;
#X connect 4 0 2 0;
#X connect 5 0 1 0;
#X restore -412 42 pd calcfinetune;
#X obj -553 256 dbtorms;
#N canvas 0 22 639 303 noise 0;
#X obj 337 143 not;
#X obj 363 255 outlet~;
#X obj 353 96 inlet pink;
#X obj 244 259 switch~;
#X obj 171 93 inlet vol;
#X obj 355 234 *~;
#X obj 196 221 sel -999;
#X obj 196 190 t f f;
#X obj 176 135 min 1;
#N canvas 0 22 450 300 noise 0;
#X obj 213 111 noise~;
#X obj 216 172 outlet~;
#X obj 289 118 inlet;
#X obj 303 163 switch~;
#X connect 0 0 1 0;
#X connect 2 0 3 0;
#X restore 329 179 pd noise;
#N canvas 0 22 450 300 pink 0;
#X obj 216 172 outlet~;
#X obj 213 111 pink~;
#X obj 302 100 inlet;
#X obj 304 133 switch~;
#X connect 1 0 0 0;
#X connect 2 0 3 0;
#X restore 411 153 pd pink;
#X obj 245 127 moog/smooth;
#X connect 0 0 9 0;
#X connect 2 0 0 0;
#X connect 2 0 10 0;
#X connect 4 0 8 0;
#X connect 4 0 11 0;
#X connect 5 0 1 0;
#X connect 6 1 3 0;
#X connect 7 0 6 1;
#X connect 7 1 6 0;
#X connect 8 0 7 0;
#X connect 9 0 5 0;
#X connect 10 0 5 0;
#X connect 11 0 5 1;
#X restore -420 283 pd noise;
#X obj -402 252 dbtorms;
#X obj -58 267 + 1;
#X obj -53 246 * -1;
#X obj -410 309 *~;
#X obj -455 314 *~;
#X obj -591 101 *~;
#X obj -525 44 *~;
#X obj -419 -27 not;
#N canvas 58 82 412 302 freenote 0;
#X obj 144 178 line;
#X msg 141 148 \$1 4;
#X obj 257 98 mtof;
#X obj 255 51 * 4;
#X obj 136 53 inlet;
#X obj 155 207 outlet~;
#X obj 221 212 outlet;
#X obj 54 25 inlet;
#X obj 256 71 + 60;
#X obj 54 57 pow 2;
#X obj 248 146 f;
#X obj 238 121 t b f;
#X obj 241 177 /;
#X connect 0 0 5 0;
#X connect 1 0 0 0;
#X connect 2 0 10 0;
#X connect 3 0 8 0;
#X connect 4 0 3 0;
#X connect 7 0 9 0;
#X connect 8 0 2 0;
#X connect 9 0 11 0;
#X connect 10 0 12 0;
#X connect 11 0 10 0;
#X connect 11 1 12 1;
#X connect 12 0 1 0;
#X connect 12 0 6 0;
#X restore -368 -19 pd freenote;
#N canvas 454 66 318 245 ivol 0;
#X obj 97 43 inlet;
#X obj 132 175 outlet;
#X obj 125 118 * -1;
#X obj 126 141 + 1;
#X obj 124 99 - 100;
#X connect 0 0 4 0;
#X connect 2 0 3 0;
#X connect 3 0 1 0;
#X connect 4 0 2 0;
#X restore -262 18 pd ivol;
#N canvas 454 66 318 245 ivol 0;
#X obj 97 43 inlet;
#X obj 132 175 outlet;
#X obj 125 118 * -1;
#X obj 126 141 + 1;
#X obj 124 99 - 100;
#X connect 0 0 4 0;
#X connect 2 0 3 0;
#X connect 3 0 1 0;
#X connect 4 0 2 0;
#X restore -189 7 pd ivol;
#X obj -104 84 + 1;
#X obj -99 63 * -1;
#X obj -490 289 *~;
#N canvas 0 22 450 300 mixout 0;
#X obj 132 138 *~;
#X msg 187 137 1;
#X msg 160 129 0;
#X obj 57 48 inlet~;
#X obj 139 27 inlet vol;
#X obj 216 32 inlet freq;
#X obj 164 84 moses 21;
#X obj 126 234 outlet~;
#X obj 212 185 switch~;
#X obj 295 41 inlet kbd;
#X obj 302 78 t b f;
#X obj 316 118 not;
#X obj 238 83 spigot;
#X obj 138 56 moog/smooth;
#X connect 0 0 7 0;
#X connect 1 0 8 0;
#X connect 2 0 8 0;
#X connect 3 0 0 0;
#X connect 4 0 13 0;
#X connect 5 0 12 0;
#X connect 6 0 2 0;
#X connect 6 1 1 0;
#X connect 9 0 10 0;
#X connect 10 0 1 0;
#X connect 10 1 11 0;
#X connect 11 0 12 1;
#X connect 12 0 6 0;
#X connect 13 0 0 1;
#X restore -563 286 pd mixout;
#N canvas 0 22 613 312 memory 0;
#X obj 22 80 inlet;
#X obj 83 81 inlet;
#X obj 148 80 inlet;
#X obj 219 77 inlet;
#X obj 275 81 inlet;
#X obj 323 57 inlet;
#X obj 363 117 inlet;
#X obj 412 92 inlet;
#X obj 463 66 inlet;
#X obj 1 154 moog/writemem \$1 \$2 0;
#X obj 78 182 moog/writemem \$1 \$2 1;
#X obj 137 162 moog/writemem \$1 \$2 2;
#X obj 213 194 moog/writemem \$1 \$2 3;
#X obj 273 169 moog/writemem \$1 \$2 4;
#X obj 321 145 moog/writemem \$1 \$2 5;
#X obj 410 180 moog/writemem \$1 \$2 7;
#X obj 362 204 moog/writemem \$1 \$2 6;
#X obj 461 154 moog/writemem \$1 \$2 8;
#X connect 0 0 9 0;
#X connect 1 0 10 0;
#X connect 2 0 11 0;
#X connect 3 0 12 0;
#X connect 4 0 13 0;
#X connect 5 0 14 0;
#X connect 6 0 16 0;
#X connect 7 0 15 0;
#X connect 8 0 17 0;
#X restore -229 311 pd memory ----------------------------;
#X obj -544 -36 r~ \$3.vc;
#X obj -586 176 moog/oscilator3~ \$3;
#X obj -579 317 throw~ \$3.mix;
#X obj -517 344 s~ \$3.modulate;
#X obj 100 100 cnv 15 315 100 empty empty empty 20 12 0 14 -117497
-66577 0;
#X obj 101 101 hradio 15 1 1 6 \$0.octave \$0.octave.set empty 0 -8
0 10 -20806 -117497 -1 0;
#X obj 101 136 hradio 15 1 1 6 \$0.osc.type \$0.osc.type.set empty
0 -8 0 10 -20806 -117497 -1 3;
#X obj 205 113 knob 32 32 -9 9 0 0 \$0.tune.fader \$0.tune.fader.set
fine_tune -12 -8 192 9 -262144 -257985 -1 1533 1;
#X obj 101 152 cnv 15 90 18 empty \$0.osc.label square 5 8 0 14 -117497
-1 0;
#X obj 101 117 cnv 15 90 18 empty \$0.octave.label 1_octave 5 8 0 14
-117497 -1 0;
#X obj 204 154 nbx 5 14 -1e+37 1e+37 0 0 \$0.tune \$0.tune.set empty
0 -8 0 10 -257985 -1 -1 -0.0987097 256;
#X obj 333 112 knob 32 32 101 1 1 1 \$0.vol.noise.fader \$0.vol.noise.fader.set
noise_vol 0 -8 192 9 -258113 -4160 -1 3100 1;
#X obj 332 154 nbx 3 14 -1e+37 1e+37 0 0 \$0.vol.noise \$0.vol.noise.set
empty 0 -8 0 10 -4160 -117497 -1 100 256;
#X obj 195 181 tgl 15 1 \$0.noise \$0.noise.set noise 17 8 0 10 -191407
-1 -1 1 1;
#X obj 245 182 hradio 15 1 1 2 \$0.noise.type \$0.noise.type.set empty
0 -8 0 10 -1 -117497 -1 0;
#X obj 349 181 hsl 40 15 0 1 0 1 \$0.noise.mod \$0.noise.mod.set empty
-83 8 0 10 -1 -117497 -1 3900 1;
#X obj 173 181 tgl 15 1 \$0.kbd \$0.kbd.set kbd -20 8 0 10 -260097
-1 -1 1 1;
#X obj 278 180 cnv 15 34 20 empty \$0.noisetypelabel white 2 10 0 10
-117497 -1 0;
#X obj 249 301 s \$0.noisetypelabel;
#X msg 264 276 label white;
#X msg 349 275 label pink;
#X obj 299 253 sel 0 1;
#X obj 313 180 cnv 15 32 20 empty empty noise 2 10 0 10 -117497 -1
0;
#X obj 392 180 cnv 15 20 20 empty empty osc 2 10 0 10 -117497 -1 0
;
#X obj 103 182 nbx 4 14 -1e+37 1e+37 0 0 \$0.freq.ro \$0.freq.set empty
0 -8 0 10 -1 -117497 -1 255.726 256;
#X obj -64 143 s \$0.noise.mod.set;
#X obj -50 216 r \$0.noise.mod;
#X obj 149 248 r \$0.noise.type;
#X obj -62 176 r \$0.noise.type;
#X obj -149 -5 s \$0.noise.type.set;
#X obj 5 16 s \$0.noise.set;
#X obj -127 210 r \$0.noise;
#N canvas 131 318 412 325 noise 0;
#X obj 155 63 r \$0.vol.noise.fader;
#X obj 153 208 s \$0.vol.noise.fader.set;
#N canvas 0 22 318 245 vol 0;
#X obj 124 99 - 1;
#X obj 125 118 - 100;
#X obj 126 141 * -1;
#X obj 97 43 inlet;
#X obj 132 175 outlet;
#X connect 0 0 1 0;
#X connect 1 0 2 0;
#X connect 2 0 4 0;
#X connect 3 0 0 0;
#X restore 153 112 pd vol;
#X obj 145 91 r \$0.vol.noise;
#X obj 151 132 s \$0.vol.noise.set;
#X msg 159 180 set \$1;
#N canvas 454 66 318 245 ivol 0;
#X obj 97 43 inlet;
#X obj 132 175 outlet;
#X obj 125 118 * -1;
#X obj 126 141 + 1;
#X obj 124 99 - 100;
#X connect 0 0 4 0;
#X connect 2 0 3 0;
#X connect 3 0 1 0;
#X connect 4 0 2 0;
#X restore 147 156 pd ivol;
#N canvas 454 66 318 245 ivol 0;
#X obj 97 43 inlet;
#X obj 132 175 outlet;
#X obj 125 118 * -1;
#X obj 126 141 + 1;
#X obj 124 99 - 100;
#X connect 0 0 4 0;
#X connect 2 0 3 0;
#X connect 3 0 1 0;
#X connect 4 0 2 0;
#X restore 114 180 pd ivol;
#X obj 100 99 rmstodb;
#X obj 77 26 r \$3.ctrl.oscillator.\$4.noise.volume.rms;
#X obj 76 48 r \$3.ctrl.oscillator.\$4.noise.volume.db;
#X connect 0 0 2 0;
#X connect 2 0 4 0;
#X connect 3 0 6 0;
#X connect 5 0 1 0;
#X connect 6 0 5 0;
#X connect 7 0 1 0;
#X connect 8 0 7 0;
#X connect 9 0 8 0;
#X connect 10 0 7 0;
#X restore 312 -19 pd noise vol;
#X obj -180 32 s \$0.vol.noise.fader.set;
#X obj -250 228 r \$0.vol.noise;
#X obj 276 112 knob 32 32 101 1 1 1 \$0.vol.osc.fader \$0.vol.osc.fader.set
osc_vol 0 -8 192 9 -117497 -4160 -1 0 1;
#X obj 275 154 nbx 3 14 -1e+37 1e+37 0 0 \$0.vol.osc \$0.vol.osc.set
empty 0 -8 0 10 -4160 -117497 -1 -0 256;
#N canvas 799 77 412 325 osc 0;
#N canvas 0 22 318 245 vol 0;
#X obj 124 99 - 1;
#X obj 125 118 - 100;
#X obj 126 141 * -1;
#X obj 97 43 inlet;
#X obj 132 175 outlet;
#X connect 0 0 1 0;
#X connect 1 0 2 0;
#X connect 2 0 4 0;
#X connect 3 0 0 0;
#X restore 153 112 pd vol;
#X msg 159 180 set \$1;
#N canvas 454 66 318 245 ivol 0;
#X obj 97 43 inlet;
#X obj 132 175 outlet;
#X obj 125 118 * -1;
#X obj 126 141 + 1;
#X obj 124 99 - 100;
#X connect 0 0 4 0;
#X connect 2 0 3 0;
#X connect 3 0 1 0;
#X connect 4 0 2 0;
#X restore 147 156 pd ivol;
#X obj 155 63 r \$0.vol.osc.fader;
#X obj 143 91 r \$0.vol.osc;
#X obj 151 132 s \$0.vol.osc.set;
#X obj 153 208 s \$0.vol.osc.fader.set;
#N canvas 454 66 318 245 ivol 0;
#X obj 97 43 inlet;
#X obj 132 175 outlet;
#X obj 125 118 * -1;
#X obj 126 141 + 1;
#X obj 124 99 - 100;
#X connect 0 0 4 0;
#X connect 2 0 3 0;
#X connect 3 0 1 0;
#X connect 4 0 2 0;
#X restore 104 170 pd ivol;
#X obj 90 89 rmstodb;
#X obj 67 16 r \$3.ctrl.oscillator.\$4.volume.rms;
#X obj 66 38 r \$3.ctrl.oscillator.\$4.volume.db;
#X connect 0 0 5 0;
#X connect 1 0 6 0;
#X connect 2 0 1 0;
#X connect 3 0 0 0;
#X connect 4 0 2 0;
#X connect 7 0 6 0;
#X connect 8 0 7 0;
#X connect 9 0 8 0;
#X connect 10 0 7 0;
#X restore 313 18 pd osc vol;
#X obj -269 38 s \$0.vol.osc.fader.set;
#X obj -328 226 r \$0.vol.osc;
#X msg 68 319 label \$1;
#X obj 63 272 r \$0.osc.type;
#X obj -289 57 s \$0.osc.type.set;
#X obj 216 349 s \$0.octave.label;
#X obj 67 345 s \$0.osc.label;
#X msg 215 324 label \$1_octave;
#X obj 207 296 + 1;
#X obj 182 270 r \$0.octave;
#X obj -223 155 r \$0.octave;
#X obj -235 114 s \$0.octave.set;
#N canvas 526 134 412 325 tune 0;
#X msg 159 180 set \$1;
#X obj 155 63 r \$0.tune.fader;
#X obj 143 91 r \$0.tune;
#X obj 151 132 s \$0.tune.set;
#X obj 153 208 s \$0.tune.fader.set;
#X obj 217 171 r \$3.ctrl.oscillator.\$4.finetune;
#X connect 0 0 4 0;
#X connect 1 0 3 0;
#X connect 2 0 0 0;
#X connect 5 0 4 0;
#X restore 321 47 pd tune;
#X obj -328 166 r \$0.tune;
#X obj -364 94 s \$0.tune.fader.set;
#X obj -422 141 s \$0.kbd.set;
#X obj -401 209 r \$0.kbd;
#N canvas 719 41 645 306 memory 0;
#X obj 42 210 outlet;
#X obj 107 215 outlet;
#X obj 167 213 outlet;
#X obj 230 212 outlet;
#X obj 289 194 outlet;
#X obj 337 229 outlet;
#X obj 409 208 outlet;
#X obj 468 237 outlet;
#X obj 507 259 outlet;
#X obj 27 115 moog/readmem \$1 \$2 0;
#X obj 104 157 moog/readmem \$1 \$2 1;
#X obj 163 137 moog/readmem \$1 \$2 2;
#X obj 239 169 moog/readmem \$1 \$2 3;
#X obj 298 151 moog/readmem \$1 \$2 4;
#X obj 346 186 moog/readmem \$1 \$2 5;
#X obj 418 165 moog/readmem \$1 \$2 6;
#X obj 477 194 moog/readmem \$1 \$2 7;
#X obj 516 216 moog/readmem \$1 \$2 8;
#X connect 9 0 0 0;
#X connect 10 0 1 0;
#X connect 11 0 2 0;
#X connect 12 0 3 0;
#X connect 13 0 4 0;
#X connect 14 0 5 0;
#X connect 15 0 6 0;
#X connect 16 0 7 0;
#X connect 17 0 8 0;
#X restore -285 -28 pd memory .............;
#X obj -241 198 s \$0.freq.set;
#X obj 126 -36 r \$0.freq.ro;
#X obj 133 61 s \$0.freq.set;
#X obj 148 12 f;
#X msg 134 37 set \$1;
#X obj 142 -11 b;
#X floatatom -400 70 5 0 0 0 - - -;
#X msg -476 106 2 \$1;
#X obj -473 65 pow;
#X floatatom -485 89 5 0 0 0 - - -;
#N canvas 0 22 514 406 osc 0;
#X obj 29 -2 s \$0.octave.set;
#X obj 26 -63 r \$3.ctrl.oscillator.\$4.octave;
#X obj 71 135 s \$0.osc.type.set;
#X obj 75 57 r \$3.ctrl.oscillator.\$4.waveform;
#X obj 265 178 s \$0.noise.set;
#X obj 196 118 r \$3.ctrl.oscillator.\$4.noise.out;
#X obj 287 76 s \$0.noise.type.set;
#X obj 225 -5 r \$3.ctrl.oscillator.\$4.noise.type;
#X obj 62 286 s \$0.kbd.set;
#X obj 40 241 r \$3.ctrl.oscillator.\$4.kbd;
#X obj 317 313 s \$0.noise.mod.set;
#X obj 265 264 r \$3.ctrl.oscillator.\$4.mod.mix;
#X connect 1 0 0 0;
#X connect 3 0 2 0;
#X connect 5 0 4 0;
#X connect 7 0 6 0;
#X connect 9 0 8 0;
#X connect 11 0 10 0;
#X restore 230 -7 pd osc set;
#X obj -391 334 moog/smooth;
#X obj -296 344 moog/smooth;
#X connect 0 0 62 0;
#X connect 1 0 2 0;
#X connect 2 0 11 0;
#X connect 3 0 2 1;
#X connect 3 0 84 0;
#X connect 4 0 20 1;
#X connect 5 0 9 0;
#X connect 5 0 19 0;
#X connect 6 0 5 0;
#X connect 7 0 21 7;
#X connect 7 0 90 0;
#X connect 8 0 7 0;
#X connect 9 0 25 0;
#X connect 10 0 25 0;
#X connect 11 0 23 0;
#X connect 12 0 23 0;
#X connect 13 0 12 1;
#X connect 14 0 12 0;
#X connect 14 1 78 0;
#X connect 14 1 20 2;
#X connect 14 1 81 1;
#X connect 15 0 60 0;
#X connect 16 0 55 0;
#X connect 17 0 47 0;
#X connect 18 0 17 0;
#X connect 19 0 24 0;
#X connect 20 0 24 0;
#X connect 22 0 1 0;
#X connect 23 0 10 0;
#X connect 23 0 20 0;
#X connect 41 0 40 0;
#X connect 42 0 40 0;
#X connect 43 0 41 0;
#X connect 43 1 42 0;
#X connect 48 0 8 0;
#X connect 48 0 89 0;
#X connect 49 0 43 0;
#X connect 50 0 21 6;
#X connect 50 0 5 1;
#X connect 53 0 21 5;
#X connect 53 0 19 1;
#X connect 56 0 21 4;
#X connect 56 0 6 0;
#X connect 61 0 21 3;
#X connect 61 0 4 0;
#X connect 62 0 66 0;
#X connect 63 0 0 0;
#X connect 63 0 21 2;
#X connect 63 0 23 1;
#X connect 67 0 65 0;
#X connect 68 0 67 0;
#X connect 69 0 68 0;
#X connect 70 0 21 0;
#X connect 70 0 85 0;
#X connect 73 0 3 0;
#X connect 73 0 14 1;
#X connect 73 0 21 1;
#X connect 76 0 11 1;
#X connect 76 0 21 8;
#X connect 76 0 13 0;
#X connect 76 0 20 3;
#X connect 77 0 71 0;
#X connect 77 1 74 0;
#X connect 77 2 64 0;
#X connect 77 3 15 0;
#X connect 77 4 16 0;
#X connect 77 5 52 0;
#X connect 77 6 51 0;
#X connect 77 7 18 0;
#X connect 77 8 75 0;
#X connect 79 0 83 0;
#X connect 81 0 82 0;
#X connect 82 0 80 0;
#X connect 83 0 81 0;
#X connect 85 0 86 0;
#X connect 86 0 1 1;
#X connect 86 0 14 0;
#X connect 86 0 87 0;
#X connect 89 0 10 1;
#X connect 90 0 9 1;
#X coords 0 -1 1 1 315 100 2 100 100;
