#N canvas 59 508 1001 367 10;
#X obj 100 100 cnv 15 214 70 empty empty empty 20 12 0 14 -117497 -66577
0;
#X symbolatom 372 150 10 0 0 0 - - -;
#N canvas 0 22 450 300 display 0;
#X obj 125 206 outlet;
#X obj 131 86 inlet;
#X obj 132 126 sel 0 1 2 3 4 5;
#X obj 85 159 symbol triangle;
#X obj 189 155 symbol sawtooth;
#X obj 129 181 symbol splitramp;
#X obj 230 190 symbol square;
#X obj 290 158 symbol wrect;
#X obj 321 180 symbol nwrect;
#X connect 1 0 2 0;
#X connect 2 0 3 0;
#X connect 2 1 5 0;
#X connect 2 2 4 0;
#X connect 2 3 6 0;
#X connect 2 4 7 0;
#X connect 2 5 8 0;
#X connect 3 0 0 0;
#X connect 4 0 0 0;
#X connect 5 0 0 0;
#X connect 6 0 0 0;
#X connect 7 0 0 0;
#X connect 8 0 0 0;
#X restore 290 57 pd display;
#X floatatom 46 171 5 0 0 0 - - -;
#X obj 12 136 *~;
#X obj 17 174 *~;
#N canvas 0 22 450 300 calcfinetune 0;
#X obj 150 71 inlet;
#X obj 162 178 outlet;
#X obj 218 101 mtof;
#X floatatom 219 121 5 0 0 0 - - -;
#X obj 213 82 + 7;
#X obj 206 143 / 12.2499;
#X floatatom 220 169 5 0 0 0 - - -;
#X connect 0 0 4 0;
#X connect 2 0 3 0;
#X connect 3 0 5 0;
#X connect 4 0 2 0;
#X connect 5 0 1 0;
#X connect 5 0 6 0;
#X restore 193 25 pd calcfinetune;
#X obj 296 315 dbtorms;
#X obj 15 294 *~;
#N canvas 0 22 318 245 vol 0;
#X obj 124 99 - 1;
#X obj 125 118 - 100;
#X obj 126 141 * -1;
#X obj 97 43 inlet;
#X obj 132 175 outlet;
#X connect 0 0 1 0;
#X connect 1 0 2 0;
#X connect 2 0 4 0;
#X connect 3 0 0 0;
#X restore 768 176 pd vol;
#X floatatom 215 50 5 0 0 0 - - -;
#N canvas 0 22 450 300 memory 0;
#X obj 85 69 inlet;
#X obj 146 70 inlet;
#X obj 211 69 inlet;
#X obj 282 66 inlet;
#X obj 64 143 moog/writemem \$1 \$2 0;
#X obj 142 171 moog/writemem \$1 \$2 1;
#X obj 200 151 moog/writemem \$1 \$2 2;
#X obj 276 183 moog/writemem \$1 \$2 3;
#X connect 0 0 4 0;
#X connect 1 0 5 0;
#X connect 2 0 6 0;
#X connect 3 0 7 0;
#X restore 195 329 pd memory;
#N canvas 0 22 450 300 memory 0;
#X obj 79 224 outlet;
#X obj 144 229 outlet;
#X obj 204 227 outlet;
#X obj 267 226 outlet;
#X obj 64 129 moog/readmem \$1 \$2 0;
#X obj 200 151 moog/readmem \$1 \$2 2;
#X obj 276 183 moog/readmem \$1 \$2 3;
#X obj 141 171 moog/readmem \$1 \$2 1;
#X connect 4 0 0 0;
#X connect 5 0 2 0;
#X connect 6 0 3 0;
#X connect 7 0 1 0;
#X restore 381 6 pd memory;
#N canvas 454 66 318 245 ivol 0;
#X obj 97 43 inlet;
#X obj 132 175 outlet;
#X obj 125 118 * -1;
#X obj 126 141 + 1;
#X obj 124 99 - 100;
#X connect 0 0 4 0;
#X connect 2 0 3 0;
#X connect 3 0 1 0;
#X connect 4 0 2 0;
#X restore 381 51 pd ivol;
#X obj 100 171 moog/mod~ \$1 \$4 \$3;
#X obj 101 101 hradio 15 1 1 6 empty empty empty 0 -8 0 10 -20806 -117497
-1 2;
#X obj 101 136 hradio 15 1 1 6 empty empty empty 0 -8 0 10 -20806 -117497
-1 2;
#X obj 205 113 knob 32 32 -9 9 0 0 \$0.tune.fader \$0.tune.fader.set
fine_tune -12 -8 192 9 -262144 -257985 -1 1550 1;
#X obj 266 112 knob 32 32 101 1 1 1 \$0.vol.osc.fader \$0.vol.osc.fader.set
volume 0 -8 192 9 -258113 -4160 -1 3100 1;
#X obj 101 152 cnv 15 90 18 empty \$0.waveform sawtooth 5 8 0 14 -117497
-1 0;
#X obj 357 270 s \$0.waveform;
#X msg 342 234 label \$1;
#X obj 101 117 cnv 15 90 18 empty \$0.octave 3_octave 5 8 0 14 -117497
-1 0;
#X obj 465 271 s \$0.octave;
#X msg 450 235 label \$1_octave;
#X obj 265 154 nbx 3 14 -1e+37 1e+37 0 0 \$0.vol.osc \$0.vol.osc.set
empty 0 -8 0 10 -4160 -117497 -1 100 256;
#X obj 204 154 nbx 5 14 -1e+37 1e+37 0 0 \$0.tune \$0.tune.set empty
0 -8 0 10 -257985 -1 -1 0 256;
#X obj 15 43 r~ \$3.vc;
#X obj 61 330 throw~ \$3.mix;
#X obj 4 218 moog/oscilator~ \$3;
#X obj 768 210 sel 0;
#X obj 800 323 switch~;
#X msg 796 235 1;
#X msg 767 234 0;
#X obj 780 289 sel -1;
#X obj 780 263 t f f;
#X obj 427 190 + 1;
#N canvas 564 113 412 325 osc 0;
#N canvas 0 22 318 245 vol 0;
#X obj 124 99 - 1;
#X obj 125 118 - 100;
#X obj 126 141 * -1;
#X obj 97 43 inlet;
#X obj 132 175 outlet;
#X connect 0 0 1 0;
#X connect 1 0 2 0;
#X connect 2 0 4 0;
#X connect 3 0 0 0;
#X restore 153 112 pd vol;
#X msg 159 180 set \$1;
#N canvas 454 66 318 245 ivol 0;
#X obj 97 43 inlet;
#X obj 132 175 outlet;
#X obj 125 118 * -1;
#X obj 126 141 + 1;
#X obj 124 99 - 100;
#X connect 0 0 4 0;
#X connect 2 0 3 0;
#X connect 3 0 1 0;
#X connect 4 0 2 0;
#X restore 147 156 pd ivol;
#X obj 155 63 r \$0.vol.osc.fader;
#X obj 143 91 r \$0.vol.osc;
#X obj 151 132 s \$0.vol.osc.set;
#X obj 153 208 s \$0.vol.osc.fader.set;
#X connect 0 0 5 0;
#X connect 1 0 6 0;
#X connect 2 0 1 0;
#X connect 3 0 0 0;
#X connect 4 0 2 0;
#X restore 701 27 pd osc vol;
#X obj 483 21 s \$0.vol.osc.fader.set;
#X obj 763 148 r \$0.vol.osc.fader;
#X obj 224 262 r \$0.vol.osc;
#N canvas 0 22 412 325 tune 0;
#X msg 159 180 set \$1;
#X obj 155 63 r \$0.tune.fader;
#X obj 143 91 r \$0.tune;
#X obj 151 132 s \$0.tune.set;
#X obj 153 208 s \$0.tune.fader.set;
#X connect 0 0 4 0;
#X connect 1 0 3 0;
#X connect 2 0 0 0;
#X restore 703 51 pd tune;
#X obj 482 121 s \$0.tune.fader.set;
#X obj 213 -6 r \$0.tune;
#X msg 128 0 2 \$1;
#X obj 129 26 pow;
#X connect 2 0 1 0;
#X connect 2 0 21 0;
#X connect 3 0 4 1;
#X connect 4 0 5 0;
#X connect 5 0 29 0;
#X connect 6 0 5 1;
#X connect 6 0 10 0;
#X connect 7 0 8 1;
#X connect 8 0 28 0;
#X connect 9 0 30 0;
#X connect 12 0 15 0;
#X connect 12 1 42 0;
#X connect 12 2 16 0;
#X connect 12 3 13 0;
#X connect 13 0 38 0;
#X connect 14 0 4 0;
#X connect 15 0 11 0;
#X connect 15 0 36 0;
#X connect 15 0 44 0;
#X connect 16 0 2 0;
#X connect 16 0 11 2;
#X connect 16 0 29 1;
#X connect 21 0 20 0;
#X connect 24 0 23 0;
#X connect 27 0 14 0;
#X connect 29 0 8 0;
#X connect 30 0 33 0;
#X connect 30 1 32 0;
#X connect 32 0 35 0;
#X connect 33 0 35 0;
#X connect 34 1 31 0;
#X connect 35 0 34 1;
#X connect 35 1 34 0;
#X connect 36 0 24 0;
#X connect 39 0 9 0;
#X connect 40 0 7 0;
#X connect 40 0 11 3;
#X connect 43 0 11 1;
#X connect 43 0 6 0;
#X connect 44 0 45 0;
#X connect 45 0 3 0;
#X coords 0 -1 1 1 214 91 2 100 100;
