#N canvas 348 423 599 364 10;
#X obj 131 -13 inlet;
#X obj 100 315 s \$1.msg.out;
#X obj 300 50 outlet;
#X obj 175 295 demux 0 1 2 3;
#X obj 142 52 t f f f f f f f f b;
#X obj 185 11 bng 15 250 50 0 empty empty empty 17 7 0 10 -262144 -1
-1;
#X msg 37 86 /moog/oscillator/\$1 octave:(0-5) waveform:(0-5) finetune:(-9-+9)
vol-rms:(0-1) mod:(0 or 1);
#X msg 69 125 /moog/oscillator/\$1/octave value:(0-5);
#X msg 117 192 /moog/oscillator/\$1/finetune value:(-9-+9);
#X msg 131 219 /moog/oscillator/\$1/volume/rms value:(0-1);
#X msg 145 248 /moog/oscillator/\$1/volume/db value:(0-100);
#X msg 158 272 /moog/oscillator/\$1/mod value:(0 or 1);
#X obj 129 23 f \$2;
#X msg 94 153 /moog/oscillator/\$1/waveform value:(0-5 or triangle
splitramp/rsawtooth sawtooth square nrect nwrect);
#X connect 0 0 12 0;
#X connect 3 0 1 0;
#X connect 3 1 1 0;
#X connect 3 2 1 0;
#X connect 4 0 6 0;
#X connect 4 1 7 0;
#X connect 4 2 13 0;
#X connect 4 3 8 0;
#X connect 4 4 9 0;
#X connect 4 5 10 0;
#X connect 4 6 11 0;
#X connect 4 7 3 1;
#X connect 4 8 2 0;
#X connect 5 0 12 0;
#X connect 6 0 1 0;
#X connect 7 0 1 0;
#X connect 8 0 1 0;
#X connect 9 0 1 0;
#X connect 10 0 1 0;
#X connect 11 0 3 0;
#X connect 12 0 4 0;
#X connect 13 0 1 0;
