#N canvas 470 566 948 384 10;
#X obj 26 36 netreceive \$1 1;
#N canvas 449 85 903 422 msg 1;
#X obj 177 369 print moog osc;
#X msg 196 336 udp localhost:\$2\$1;
#X obj 200 305 pack s \$1;
#X obj 204 -5 loadbang;
#X msg 122 86 /moog/bend value:(0-1);
#X msg 226 53 /moog/mod value:(0-1);
#X msg 292 77 /moog/filter freq:(20-15000) q:(0.1-10) contour:(0-100)
;
#X msg 338 101 /moog/filter/freq value:(20-15000);
#X msg 673 50 /moog/filter/q value:(0.1-10);
#X msg 634 89 /moog/filter/contour value:(0-100);
#X msg 701 119 /moog/filter/mod enable:(0 or 1);
#X obj 33 136 s \$0.msg.out;
#X obj 116 262 r \$0.msg.out;
#X obj 120 130 s \$0.msg.out;
#X obj 237 134 s \$0.msg.out;
#X obj 323 141 s \$0.msg.out;
#X obj 407 141 s \$0.msg.out;
#X obj 638 144 s \$0.msg.out;
#X obj 209 17 t b b b b b b b b b;
#X obj 374 306 s \$0.msg.out;
#X obj 382 188 t b b b b;
#X msg 437 281 /moog/filter/vc k:(0 or 1) l:(0 or 1);
#X msg 409 212 /moog/filter/vc/k value:(0 or 1);
#X msg 370 251 /moog/filter/vc/l value:(0 or 1);
#X obj 208 284 l2s;
#X obj 491 320 moog/oscr-envelope-msg \$0 filter;
#X obj 497 349 moog/oscr-envelope-msg \$0 amp;
#X msg 42 53 /moog/vc note:(0-300);
#X connect 1 0 0 0;
#X connect 2 0 1 0;
#X connect 3 0 18 0;
#X connect 4 0 13 0;
#X connect 5 0 14 0;
#X connect 6 0 15 0;
#X connect 7 0 16 0;
#X connect 8 0 17 0;
#X connect 9 0 17 0;
#X connect 10 0 17 0;
#X connect 12 0 24 0;
#X connect 18 0 27 0;
#X connect 18 1 4 0;
#X connect 18 2 5 0;
#X connect 18 3 6 0;
#X connect 18 4 7 0;
#X connect 18 5 8 0;
#X connect 18 6 9 0;
#X connect 18 7 10 0;
#X connect 18 8 20 0;
#X connect 20 0 23 0;
#X connect 20 1 22 0;
#X connect 20 2 21 0;
#X connect 20 3 25 0;
#X connect 21 0 19 0;
#X connect 22 0 19 0;
#X connect 23 0 19 0;
#X connect 24 0 2 0;
#X connect 25 0 26 0;
#X connect 27 0 11 0;
#X restore 341 29 pd msg;
#N canvas 0 22 977 363 vc 0;
#X obj 68 174 s \$2.ctrl.vc;
#X obj 62 208 s \$2.ctrl.bend;
#X obj 166 174 s \$2.ctrl.mod;
#X obj 265 177 s \$2.ctrl.volume.rms;
#X obj 193 215 s \$2.ctrl.volume.db;
#X obj 129 105 route /moog/vc /moog/bend /moog/mod /moog/volume/rms
/moog/volume/db;
#X obj 115 43 inlet;
#X obj 408 253 outlet;
#X connect 5 0 0 0;
#X connect 5 1 1 0;
#X connect 5 2 2 0;
#X connect 5 3 3 0;
#X connect 5 4 4 0;
#X connect 5 5 7 0;
#X connect 6 0 5 0;
#X restore 128 130 pd vc bend mod master-volume;
#N canvas 0 22 918 352 filter 0;
#X obj 46 231 s \$2.ctrl.filter.freq;
#X obj 187 233 s \$2.ctrl.filter.q;
#X obj 309 232 s \$2.ctrl.filter.contour;
#X obj 58 180 unpack f f f;
#X obj 328 206 s \$2.ctrl.filter.mod;
#X obj 73 136 route /moog/filter /moog/filter/freq /moog/filter/q /moog/filter/contour
/moog/filter/mod;
#X obj 527 144 route /moog/filter/vc /moog/filter/vc/k /moog/filter/vc/l
;
#X obj 529 216 s \$2.ctrl.filter.vc.k;
#X obj 521 173 unpack f f;
#X obj 672 215 s \$2.ctrl.filter.vc.l;
#X obj 170 57 inlet;
#X obj 758 275 outlet;
#X connect 3 0 0 0;
#X connect 3 1 1 0;
#X connect 3 2 2 0;
#X connect 5 0 3 0;
#X connect 5 1 0 0;
#X connect 5 2 1 0;
#X connect 5 3 2 0;
#X connect 5 4 4 0;
#X connect 5 5 6 0;
#X connect 6 0 8 0;
#X connect 6 1 7 0;
#X connect 6 2 9 0;
#X connect 6 3 11 0;
#X connect 8 0 7 0;
#X connect 8 1 9 0;
#X connect 10 0 5 0;
#X restore 154 181 pd filter;
#X obj 178 224 moog/oscr-envelope \$2 filter;
#X obj 183 265 moog/oscr-envelope \$2 amp;
#X connect 0 0 2 0;
#X connect 2 0 3 0;
#X connect 3 0 4 0;
#X connect 4 0 5 0;
