#N canvas 676 557 948 384 10;
#X msg 184 42 /moog/vc 54 125;
#X obj 58 164 s \$2.ctrl.vc;
#X obj 52 198 s \$2.ctrl.bend;
#X obj 26 36 netreceive \$1 1;
#X obj 156 164 s \$2.ctrl.mod;
#X obj 424 181 s \$2.ctrl.filter.freq;
#X obj 565 183 s \$2.ctrl.filter.q;
#X obj 687 182 s \$2.ctrl.filter.contour;
#X obj 255 167 s \$2.ctrl.volume.rms;
#X obj 183 205 s \$2.ctrl.volume.db;
#N canvas 545 150 903 422 msg 1;
#X obj 177 369 print moog osc;
#X msg 196 336 udp localhost:\$2\$1;
#X obj 208 284 spacefix;
#X obj 200 305 pack s \$1;
#X obj 204 -5 loadbang;
#X msg 42 53 /moog/vc note:(1-127);
#X msg 122 86 /moog/bend value:(0-1);
#X msg 226 53 /moog/mod value:(0-1);
#X msg 292 77 /moog/filter freq:(20-15000) q:(0.1-10) contour:(0-100)
;
#X msg 338 101 /moog/filter/freq value:(20-15000);
#X msg 673 50 /moog/filter/q value:(0.1-10);
#X msg 634 89 /moog/filter/contour value:(0-100);
#X msg 701 119 /moog/filter/mod enable:(0 or 1);
#X obj 33 136 s \$0.msg.out;
#X obj 116 262 r \$0.msg.out;
#X obj 120 130 s \$0.msg.out;
#X obj 237 134 s \$0.msg.out;
#X obj 323 141 s \$0.msg.out;
#X obj 407 141 s \$0.msg.out;
#X obj 638 144 s \$0.msg.out;
#X obj 209 17 t b b b b b b b b b;
#X obj 374 306 s \$0.msg.out;
#X obj 382 188 t b b b b;
#X msg 437 281 /moog/filter/vc k:(0 or 1) l:(0 or 1);
#X msg 409 212 /moog/filter/vc/k value:(0 or 1);
#X msg 370 251 /moog/filter/vc/l value:(0 or 1);
#X connect 1 0 0 0;
#X connect 2 0 3 0;
#X connect 3 0 1 0;
#X connect 4 0 20 0;
#X connect 5 0 13 0;
#X connect 6 0 15 0;
#X connect 7 0 16 0;
#X connect 8 0 17 0;
#X connect 9 0 18 0;
#X connect 10 0 19 0;
#X connect 11 0 19 0;
#X connect 12 0 19 0;
#X connect 14 0 2 0;
#X connect 20 0 5 0;
#X connect 20 1 6 0;
#X connect 20 2 7 0;
#X connect 20 3 8 0;
#X connect 20 4 9 0;
#X connect 20 5 10 0;
#X connect 20 6 11 0;
#X connect 20 7 12 0;
#X connect 20 8 22 0;
#X connect 22 0 25 0;
#X connect 22 1 24 0;
#X connect 22 2 23 0;
#X connect 23 0 21 0;
#X connect 24 0 21 0;
#X connect 25 0 21 0;
#X restore 57 303 pd msg;
#X obj 119 95 route /moog/vc /moog/bend /moog/mod /moog/volume/rms
/moog/volume/db;
#X obj 441 132 unpack f f f;
#X obj 706 156 s \$2.ctrl.filter.mod;
#X obj 451 86 route /moog/filter /moog/filter/freq /moog/filter/q /moog/filter/contour
/moog/filter/mod;
#X obj 547 241 route /moog/filter/vc /moog/filter/vc/k /moog/filter/vc/l
;
#X obj 549 313 s \$2.ctrl.filter.vc.k;
#X obj 541 270 unpack f f;
#X obj 692 312 s \$2.ctrl.filter.vc.l;
#X connect 0 0 11 0;
#X connect 3 0 11 0;
#X connect 11 0 1 0;
#X connect 11 1 2 0;
#X connect 11 2 4 0;
#X connect 11 3 8 0;
#X connect 11 4 9 0;
#X connect 11 5 14 0;
#X connect 12 0 5 0;
#X connect 12 1 6 0;
#X connect 12 2 7 0;
#X connect 14 0 12 0;
#X connect 14 1 5 0;
#X connect 14 2 6 0;
#X connect 14 3 7 0;
#X connect 14 4 13 0;
#X connect 14 5 15 0;
#X connect 15 0 17 0;
#X connect 15 1 16 0;
#X connect 15 2 18 0;
#X connect 17 0 16 0;
#X connect 17 1 18 0;
