#N canvas 115 206 948 384 10;
#N canvas 207 119 960 543 msg 0;
#X obj 45 389 print moog osc;
#X obj 45 347 pack s \$1;
#X obj 204 -5 loadbang;
#X msg 122 86 /moog/bend value:(0-1);
#X msg 226 53 /moog/mod value:(0-1);
#X msg 292 77 /moog/filter freq:(20-15000) q:(0.1-10) contour:(0-100)
;
#X msg 338 101 /moog/filter/freq value:(20-15000);
#X msg 673 50 /moog/filter/q value:(0.1-10);
#X msg 634 89 /moog/filter/contour value:(0-100);
#X msg 701 119 /moog/filter/mod enable:(0 or 1);
#X obj 38 86 s \$0.msg.out;
#X obj 37 302 r \$0.msg.out;
#X obj 120 130 s \$0.msg.out;
#X obj 237 134 s \$0.msg.out;
#X obj 323 141 s \$0.msg.out;
#X obj 407 141 s \$0.msg.out;
#X obj 638 144 s \$0.msg.out;
#X obj 374 306 s \$0.msg.out;
#X obj 382 188 t b b b b;
#X msg 437 281 /moog/filter/vc k:(0 or 1) l:(0 or 1);
#X msg 409 212 /moog/filter/vc/k value:(0 or 1);
#X msg 370 251 /moog/filter/vc/l value:(0 or 1);
#X obj 53 326 l2s;
#X obj 491 320 moog/oscr-envelope-msg \$0 filter;
#X obj 497 349 moog/oscr-envelope-msg \$0 amp;
#X msg 42 53 /moog/vc note:(0-300);
#X obj 102 19 t b b b;
#X obj 29 195 s \$0.msg.out;
#X msg 33 162 /moog/vc/portamento value:(0-30);
#N canvas 0 50 450 300 volume 0;
#X obj 158 38 inlet;
#X obj 152 70 t b b;
#X obj 116 165 s \$0.msg.out;
#X msg 120 132 /moog/volume/rms value:(0-1);
#X obj 202 212 s \$0.msg.out;
#X msg 206 179 /moog/volume/db value:(0-100);
#X connect 0 0 1 0;
#X connect 1 0 3 0;
#X connect 1 1 5 0;
#X connect 3 0 2 0;
#X connect 5 0 4 0;
#X restore 159 217 pd volume;
#X obj 520 431 moog/oscr-oscilator-msg \$0 3;
#N canvas 609 278 581 381 oscillator 0;
#X obj 141 -3 inlet;
#X obj 310 60 outlet;
#X obj 118 357 s \$0.msg.out;
#X obj 139 33 f 3;
#X msg 47 96 /moog/oscillator/\$1/noise vol-rms:(0-1) out:(0 or 1)
type:(0 or 1);
#X obj 194 15 bng 15 250 50 0 empty empty empty 17 7 0 10 -262144 -1
-1;
#X msg 79 135 /moog/oscillator/\$1/noise/volume/rms value:(0-1);
#X msg 127 194 /moog/oscillator/\$1/noise/out value:(0 or 1);
#X msg 106 169 /moog/oscillator/\$1/noise/volume/db value:(0-100);
#X msg 137 221 /moog/oscillator/\$1/noise/type value:(0 or 1 or white
or pink);
#X msg 161 260 /moog/oscillator/\$1/kbd value:(0 or 1);
#X msg 168 287 /moog/oscillator/\$1/mod/mix value:(0-1 where 0 is noise
and 1 waveform);
#X obj 152 60 t f f f f f f f b;
#X connect 0 0 3 0;
#X connect 3 0 12 0;
#X connect 4 0 2 0;
#X connect 5 0 3 0;
#X connect 6 0 2 0;
#X connect 7 0 2 0;
#X connect 8 0 2 0;
#X connect 9 0 2 0;
#X connect 10 0 2 0;
#X connect 11 0 2 0;
#X connect 12 0 4 0;
#X connect 12 1 6 0;
#X connect 12 2 8 0;
#X connect 12 3 7 0;
#X connect 12 4 9 0;
#X connect 12 5 10 0;
#X connect 12 6 11 0;
#X connect 12 7 1 0;
#X restore 535 470 pd oscillator control;
#X obj 504 380 moog/oscr-oscilator-msg \$0 1;
#X obj 511 401 moog/oscr-oscilator-msg \$0 2;
#N canvas 430 104 546 432 external 0;
#X obj 53 27 inlet;
#X obj 55 76 t b b;
#X obj 97 229 s \$0.msg.out;
#X msg 60 137 /moog/external/volume/rms value:(0-2);
#X msg 105 179 /moog/external/volume/db value:(0-106);
#X connect 0 0 1 0;
#X connect 1 0 3 0;
#X connect 1 1 4 0;
#X connect 3 0 2 0;
#X connect 4 0 2 0;
#X restore 556 499 pd external;
#X msg 43 365 OSC=>udp FUDI=>tcp localhost:\$2\$1;
#X obj 209 17 t b b b b b b b b b b;
#X msg 652 23 /moog/filter/antialias values:(0 or 1);
#X connect 1 0 35 0;
#X connect 2 0 26 0;
#X connect 3 0 12 0;
#X connect 4 0 13 0;
#X connect 5 0 14 0;
#X connect 6 0 15 0;
#X connect 7 0 16 0;
#X connect 8 0 16 0;
#X connect 9 0 16 0;
#X connect 11 0 22 0;
#X connect 18 0 21 0;
#X connect 18 1 20 0;
#X connect 18 2 19 0;
#X connect 18 3 23 0;
#X connect 19 0 17 0;
#X connect 20 0 17 0;
#X connect 21 0 17 0;
#X connect 22 0 1 0;
#X connect 23 0 24 0;
#X connect 24 0 32 0;
#X connect 25 0 10 0;
#X connect 26 0 25 0;
#X connect 26 1 28 0;
#X connect 26 2 36 0;
#X connect 28 0 27 0;
#X connect 30 0 31 0;
#X connect 32 0 33 0;
#X connect 33 0 30 0;
#X connect 35 0 0 0;
#X connect 36 0 29 0;
#X connect 36 1 3 0;
#X connect 36 2 4 0;
#X connect 36 3 5 0;
#X connect 36 4 6 0;
#X connect 36 5 7 0;
#X connect 36 6 8 0;
#X connect 36 7 9 0;
#X connect 36 8 37 0;
#X connect 36 9 18 0;
#X connect 37 0 16 0;
#X restore 341 29 pd msg;
#N canvas 137 139 977 363 vc 0;
#X obj 68 174 s \$2.ctrl.vc;
#X obj 62 208 s \$2.ctrl.bend;
#X obj 166 174 s \$2.ctrl.mod;
#X obj 265 177 s \$2.ctrl.volume.rms;
#X obj 193 215 s \$2.ctrl.volume.db;
#X obj 160 9 inlet;
#X obj 687 242 outlet;
#X obj 391 270 s \$2.ctrl.vc.portamento;
#X obj 179 60 mrpeach/routeOSC /moog;
#X obj 129 105 route /vc /bend /mod /volume/rms /volume/db;
#X obj 171 29 mrpeach/routeOSC /touchosc;
#N canvas 274 252 695 439 fixtouchosc 0;
#X obj 209 23 inlet;
#X obj 552 97 symbol2list /;
#X obj 466 107 unpack s f;
#X obj 538 244 pack f f;
#X obj 571 160 route vc;
#X msg 537 290 /vc \$1 \$2;
#X obj 568 192 f;
#X msg 571 132 \$1 \$2;
#X obj 270 361 outlet;
#X obj 208 43 mrpeach/routeOSC /moog;
#X obj 179 115 touchosc.multitoggle /oscillator/1/octave;
#X obj 195 145 touchosc.multitoggle /oscillator/1/waveform;
#X obj 190 165 touchosc.multitoggle /oscillator/2/octave;
#X obj 183 200 touchosc.multitoggle /oscillator/2/waveform;
#X obj 190 225 touchosc.multitoggle /oscillator/3/octave;
#X obj 183 260 touchosc.multitoggle /oscillator/3/waveform;
#X obj 184 296 touchosc.multitoggle /oscillator/3/noise/type;
#X obj 71 79 route /filter/xy/freq;
#X obj 39 121 unpack f f;
#X obj 87 244 * 14980;
#X obj 87 266 + 20;
#X obj 22 267 *;
#X obj 20 244 t f f;
#X obj 22 289 * 10;
#X msg 87 289 /filter/freq \$1;
#X msg 24 319 /filter/q \$1;
#X obj 82 173 *;
#X obj 80 150 t f f;
#X obj 85 218 *;
#X obj 83 195 t f f;
#X connect 0 0 9 0;
#X connect 1 0 7 0;
#X connect 2 0 1 0;
#X connect 2 1 3 1;
#X connect 3 0 5 0;
#X connect 4 0 6 0;
#X connect 5 0 8 0;
#X connect 6 0 3 0;
#X connect 7 0 4 0;
#X connect 9 0 17 0;
#X connect 10 0 8 0;
#X connect 10 1 11 0;
#X connect 11 0 8 0;
#X connect 11 1 12 0;
#X connect 12 0 8 0;
#X connect 12 1 13 0;
#X connect 13 0 8 0;
#X connect 13 1 14 0;
#X connect 14 0 8 0;
#X connect 14 1 15 0;
#X connect 15 0 8 0;
#X connect 15 1 16 0;
#X connect 16 0 8 0;
#X connect 16 1 2 0;
#X connect 17 0 18 0;
#X connect 17 1 10 0;
#X connect 18 0 22 0;
#X connect 18 1 27 0;
#X connect 19 0 20 0;
#X connect 20 0 24 0;
#X connect 21 0 23 0;
#X connect 22 0 21 0;
#X connect 22 1 21 1;
#X connect 23 0 25 0;
#X connect 24 0 8 0;
#X connect 25 0 8 0;
#X connect 26 0 29 0;
#X connect 27 0 26 0;
#X connect 27 1 26 1;
#X connect 28 0 19 0;
#X connect 29 0 28 0;
#X connect 29 1 28 1;
#X restore 68 54 pd fixtouchosc;
#X obj 479 222 s \$2.ctrl.vc.portamento.vel;
#X obj 405 94 route /vc/portamento /vc/portamento/vel /vc/portamento/rms
;
#X obj 563 120 t f f;
#X obj 565 140 *;
#X obj 575 195 * 30.2;
#X obj 599 146 t f f;
#X obj 601 166 *;
#X connect 5 0 10 0;
#X connect 8 0 9 0;
#X connect 9 0 0 0;
#X connect 9 1 1 0;
#X connect 9 2 2 0;
#X connect 9 3 3 0;
#X connect 9 4 4 0;
#X connect 9 5 13 0;
#X connect 10 0 11 0;
#X connect 10 1 8 0;
#X connect 11 0 9 0;
#X connect 13 0 7 0;
#X connect 13 1 12 0;
#X connect 13 2 14 0;
#X connect 13 3 6 0;
#X connect 14 0 15 0;
#X connect 14 1 15 1;
#X connect 15 0 17 0;
#X connect 16 0 7 0;
#X connect 17 0 18 0;
#X connect 17 1 18 1;
#X connect 18 0 16 0;
#X restore 128 130 pd vc bend mod master-volume;
#N canvas 61 308 918 352 filter 0;
#X obj 46 231 s \$2.ctrl.filter.freq;
#X obj 187 233 s \$2.ctrl.filter.q;
#X obj 340 303 s \$2.ctrl.filter.contour;
#X obj 58 180 unpack f f f;
#X obj 239 194 s \$2.ctrl.filter.mod;
#X obj 578 218 s \$2.ctrl.filter.vc.k;
#X obj 570 175 unpack f f;
#X obj 721 217 s \$2.ctrl.filter.vc.l;
#X obj 170 57 inlet;
#X obj 453 108 outlet;
#X obj 85 96 route /filter;
#X obj 139 125 mrpeach/routeOSC /filter;
#X obj 576 146 route /vc /vc/k /vc/l;
#X obj 414 155 route /antialias;
#X obj 407 179 s \$2.ctrl.filter.antialias;
#X obj 139 148 route /freq /q /contour /mod /contour/rms;
#X obj 368 247 *;
#X obj 366 224 t f f;
#X obj 368 269 * 100;
#X connect 3 0 0 0;
#X connect 3 1 1 0;
#X connect 3 2 2 0;
#X connect 6 0 5 0;
#X connect 6 1 7 0;
#X connect 8 0 10 0;
#X connect 10 0 3 0;
#X connect 10 1 11 0;
#X connect 11 0 15 0;
#X connect 11 1 9 0;
#X connect 12 0 6 0;
#X connect 12 1 5 0;
#X connect 12 2 7 0;
#X connect 13 0 14 0;
#X connect 13 1 12 0;
#X connect 15 0 0 0;
#X connect 15 1 1 0;
#X connect 15 2 2 0;
#X connect 15 3 4 0;
#X connect 15 4 17 0;
#X connect 15 5 13 0;
#X connect 16 0 18 0;
#X connect 17 0 16 0;
#X connect 17 1 16 1;
#X connect 18 0 2 0;
#X restore 151 165 pd filter;
#N canvas 378 302 762 352 oscilator 0;
#X obj 117 0 inlet;
#X obj 703 123 outlet;
#X obj 26 173 unpack f f f;
#N canvas 42 404 602 310 translate 0;
#X obj 164 44 inlet;
#X obj 189 244 outlet;
#X obj 152 91 route float;
#X msg 243 167 0;
#X obj 244 103 symbol;
#X obj 240 137 sel white pink;
#X msg 273 170 1;
#X connect 0 0 2 0;
#X connect 2 0 1 0;
#X connect 2 1 4 0;
#X connect 3 0 1 0;
#X connect 4 0 5 0;
#X connect 5 0 3 0;
#X connect 5 1 6 0;
#X connect 6 0 1 0;
#X restore 321 153 pd translate;
#X obj 162 250 s \$2.ctrl.oscillator.3.noise.volume.rms;
#X obj 170 226 s \$2.ctrl.oscillator.3.noise.volume.db;
#X obj 182 205 s \$2.ctrl.oscillator.3.noise.out;
#X obj 224 181 s \$2.ctrl.oscillator.3.noise.type;
#X obj 419 104 s \$2.ctrl.oscillator.3.kbd;
#X obj 469 180 s \$2.ctrl.oscillator.3.mod.mix;
#X obj 49 27 route /noise;
#X obj 169 29 mrpeach/routeOSC /noise;
#X obj 386 40 route /kbd /mod/mix;
#X obj 60 71 route /volume/rms /volume/db /out /type;
#X connect 0 0 10 0;
#X connect 2 0 4 0;
#X connect 2 1 6 0;
#X connect 2 2 7 0;
#X connect 3 0 7 0;
#X connect 10 0 2 0;
#X connect 10 1 11 0;
#X connect 11 0 13 0;
#X connect 11 1 12 0;
#X connect 12 0 8 0;
#X connect 12 1 9 0;
#X connect 12 2 1 0;
#X connect 13 0 4 0;
#X connect 13 1 5 0;
#X connect 13 2 6 0;
#X connect 13 3 3 0;
#X restore 252 329 pd oscilator control;
#N canvas 51 50 450 300 external 0;
#X obj 154 28 inlet;
#X obj 96 178 s \$2.ctrl.external.volume.rms;
#X obj 220 221 s \$2.ctrl.external.volume.db;
#X obj 161 71 mrpeach/routeOSC /external;
#X obj 83 115 route /volume/rms /volume/db;
#X connect 0 0 3 0;
#X connect 3 0 4 0;
#X connect 4 0 1 0;
#X connect 4 1 2 0;
#X restore 390 331 pd external;
#X obj 307 80 moog/moogreceive osc \$1;
#X obj 321 156 mrpeach/routeOSC /envelope;
#X obj 393 234 mrpeach/routeOSC /oscillator;
#X obj 318 195 moog/oscr-envelope \$2 filter;
#X obj 217 248 moog/oscr-oscilator \$2 1;
#X obj 123 64 moog/moogreceive fudi \$1;
#X obj 174 224 moog/oscr-envelope \$2 amp;
#X obj 645 135 moog/moogsend osc \$3;
#X obj 240 299 moog/oscr-oscilator \$2 3;
#X obj 230 277 moog/oscr-oscilator \$2 2;
#X obj 649 172 print osc feedback;
#X obj 625 92 r \$2.osc.feedback;
#X connect 1 0 2 0;
#X connect 2 0 6 0;
#X connect 5 0 1 0;
#X connect 6 0 8 0;
#X connect 6 1 7 0;
#X connect 7 0 9 0;
#X connect 7 1 4 0;
#X connect 8 0 11 0;
#X connect 9 1 14 0;
#X connect 10 0 1 0;
#X connect 13 0 3 0;
#X connect 14 1 13 0;
#X connect 16 0 12 0;
#X connect 16 0 15 0;
