#N canvas 55 87 782 311 10;
#X obj 52 6 inlet;
#X obj 44 135 unpack f f f f;
#X obj 28 225 s \$1.ctrl.envelope.\$2.attack;
#X obj 98 196 s \$1.ctrl.envelope.\$2.decay;
#X obj 238 228 s \$1.ctrl.envelope.\$2.sustain;
#X obj 277 166 s \$1.ctrl.envelope.\$2.release;
#X obj 114 73 route /attack /decay /sustain /release;
#X obj 262 46 mrpeach/routeOSC /\$2;
#X obj 100 25 route /\$2;
#X obj 474 239 outlet;
#X obj 491 186 * 9990;
#X obj 492 212 + 10;
#X obj 552 134 *;
#X obj 550 111 t f f;
#X obj 552 156 * 699;
#X obj 556 181 + 1;
#X obj 609 193 * 100;
#X obj 695 205 *;
#X obj 666 165 t f f f;
#X obj 683 223 -;
#X obj 654 191 t f f;
#X obj 654 213 +;
#X obj 467 92 t f f;
#X obj 467 114 *;
#X obj 492 137 t f f;
#X obj 492 159 *;
#X obj 403 70 route /attack/rms /decay/rms /sustain/rms;
#X connect 0 0 8 0;
#X connect 1 0 2 0;
#X connect 1 1 3 0;
#X connect 1 2 4 0;
#X connect 1 3 5 0;
#X connect 6 0 2 0;
#X connect 6 1 3 0;
#X connect 6 2 4 0;
#X connect 6 3 5 0;
#X connect 6 4 26 0;
#X connect 7 0 6 0;
#X connect 7 1 9 0;
#X connect 8 0 1 0;
#X connect 8 1 7 0;
#X connect 10 0 11 0;
#X connect 11 0 2 0;
#X connect 12 0 14 0;
#X connect 13 0 12 0;
#X connect 13 1 12 1;
#X connect 14 0 15 0;
#X connect 15 0 3 0;
#X connect 16 0 4 0;
#X connect 17 0 19 1;
#X connect 18 0 20 0;
#X connect 18 1 17 0;
#X connect 18 2 17 1;
#X connect 19 0 21 1;
#X connect 20 0 21 0;
#X connect 20 1 19 0;
#X connect 21 0 16 0;
#X connect 22 0 23 0;
#X connect 22 1 23 1;
#X connect 23 0 24 0;
#X connect 24 0 25 0;
#X connect 24 1 25 1;
#X connect 25 0 10 0;
#X connect 26 0 22 0;
#X connect 26 1 13 0;
#X connect 26 2 18 0;
