#N canvas 346 178 635 316 10;
#X obj 52 37 inlet;
#X obj 471 97 outlet;
#X obj -15 251 s \$1.ctrl.oscillator.\$2.octave;
#X obj 173 287 s \$1.ctrl.oscillator.\$2.waveform;
#X obj 286 245 s \$1.ctrl.oscillator.\$2.finetune;
#X obj 57 60 route /moog/oscillator/\$2 /moog/oscillator/\$2/octave
/moog/oscillator/\$2/waveform /moog/oscillator/\$2/finetune /moog/oscillator/\$2/volume/rms
/moog/oscillator/\$2/volume/db /moog/oscillator/\$2/mod;
#X obj 330 211 s \$1.ctrl.oscillator.\$2.volume.rms;
#X obj 370 171 s \$1.ctrl.oscillator.\$2.volume.db;
#X obj 396 137 s \$1.ctrl.oscillator.\$2.mod;
#N canvas 0 22 602 310 translate 0;
#X obj 164 44 inlet;
#X obj 189 244 outlet;
#X obj 152 91 route float;
#X obj 240 137 sel triangle sawtooth square wrect nrect;
#X msg 243 167 0;
#X msg 273 170 2;
#X msg 305 172 3;
#X msg 334 171 4;
#X msg 368 173 5;
#X obj 244 103 symbol;
#X obj 442 195 sel splitramp rsawtooth;
#X msg 447 227 1;
#X connect 0 0 2 0;
#X connect 2 0 1 0;
#X connect 2 1 9 0;
#X connect 3 0 4 0;
#X connect 3 1 5 0;
#X connect 3 2 6 0;
#X connect 3 3 7 0;
#X connect 3 4 8 0;
#X connect 3 5 10 0;
#X connect 4 0 1 0;
#X connect 5 0 1 0;
#X connect 6 0 1 0;
#X connect 7 0 1 0;
#X connect 8 0 1 0;
#X connect 9 0 3 0;
#X connect 10 0 11 0;
#X connect 10 1 11 0;
#X connect 11 0 1 0;
#X restore 143 208 pd translate;
#X obj 36 127 unpack f f f f f;
#X connect 0 0 5 0;
#X connect 5 0 10 0;
#X connect 5 1 2 0;
#X connect 5 2 9 0;
#X connect 5 3 4 0;
#X connect 5 4 6 0;
#X connect 5 5 7 0;
#X connect 5 6 8 0;
#X connect 5 7 1 0;
#X connect 9 0 3 0;
#X connect 10 0 2 0;
#X connect 10 1 3 0;
#X connect 10 2 4 0;
#X connect 10 3 6 0;
#X connect 10 4 8 0;
