#N canvas 566 72 635 316 10;
#X obj 52 6 inlet;
#X obj 44 135 unpack f f f f;
#X obj 28 225 s \$1.ctrl.envelope.\$2.attack;
#X obj 98 196 s \$1.ctrl.envelope.\$2.decay;
#X obj 238 228 s \$1.ctrl.envelope.\$2.sustain;
#X obj 277 166 s \$1.ctrl.envelope.\$2.release;
#X obj 114 73 route /attack /decay /sustain /release;
#X obj 262 46 mrpeach/routeOSC /\$2;
#X obj 100 25 route /\$2;
#X obj 474 239 outlet;
#X connect 0 0 8 0;
#X connect 1 0 2 0;
#X connect 1 1 3 0;
#X connect 1 2 4 0;
#X connect 1 3 5 0;
#X connect 6 0 2 0;
#X connect 6 1 3 0;
#X connect 6 2 4 0;
#X connect 6 3 5 0;
#X connect 7 0 6 0;
#X connect 7 1 9 0;
#X connect 8 0 1 0;
#X connect 8 1 7 0;
