#N canvas 0 0 450 300 10;
#X obj 137 26 inlet;
#X obj 187 33 inlet;
#X obj 160 91 \$1;
#X obj 160 53 t b f;
#X obj 173 116 outlet;
#X obj 136 67 f 0;
#X connect 0 0 5 0;
#X connect 1 0 3 0;
#X connect 2 0 4 0;
#X connect 3 0 5 0;
#X connect 3 1 2 1;
#X connect 5 0 2 0;
