#N canvas 0 22 450 300 10;
#X obj 124 62 inlet~;
#X obj 184 62 inlet~;
#X obj 253 65 inlet;
#X obj 178 163 outlet~;
#X obj 130 117 *~;
#X obj 184 113 *~;
#X msg 245 104 1 \$1;
#X obj 238 142 -;
#X floatatom 293 101 5 0 0 0 - - -, f 5;
#X floatatom 247 171 5 0 0 0 - - -, f 5;
#X connect 0 0 4 0;
#X connect 1 0 5 0;
#X connect 2 0 5 1;
#X connect 2 0 6 0;
#X connect 2 0 8 0;
#X connect 4 0 3 0;
#X connect 5 0 3 0;
#X connect 6 0 7 0;
#X connect 7 0 4 1;
#X connect 7 0 9 0;
