#N canvas 1167 286 506 467 10;
#X obj 152 -63 splitfilename;
#X obj 159 126 demux 0 1;
#X obj 287 -49 strippath;
#X obj 277 80 sel word;
#X msg 238 106 1;
#X msg 228 71 0;
#X msg 188 166 symbol default;
#X obj 201 -120 t s s;
#X obj 168 201 outlet;
#X obj 293 201 outlet;
#X obj 154 -174 inlet;
#X obj 147 151 s2l /;
#X obj 146 174 l2s .;
#X connect 0 0 1 0;
#X connect 0 1 3 0;
#X connect 1 0 11 0;
#X connect 1 1 6 0;
#X connect 2 0 3 1;
#X connect 2 0 9 0;
#X connect 3 0 5 0;
#X connect 3 1 4 0;
#X connect 4 0 1 1;
#X connect 5 0 1 1;
#X connect 6 0 8 0;
#X connect 7 0 0 0;
#X connect 7 1 2 0;
#X connect 10 0 7 0;
#X connect 11 0 12 0;
#X connect 12 0 8 0;
