#N canvas 426 128 716 466 10;
#X obj 220 143 s2l .;
#X obj 230 285 list split;
#X obj 238 180 t l l;
#X obj 274 226 list length;
#X obj 285 255 - 1;
#X obj 229 323 l2s .;
#X obj 247 376 sel s;
#X obj 243 349 t s s;
#X obj 275 426 outlet;
#X obj 379 53 inlet reset;
#X obj 287 24 inlet;
#X obj 436 225 b;
#X msg 426 267 symbol .v7i3a..fe.27.3;
#X connect 0 0 2 0;
#X connect 1 0 5 0;
#X connect 2 0 1 0;
#X connect 2 1 3 0;
#X connect 3 0 4 0;
#X connect 4 0 1 1;
#X connect 5 0 7 0;
#X connect 6 1 8 0;
#X connect 7 0 6 1;
#X connect 7 1 6 0;
#X connect 9 0 11 0;
#X connect 10 0 0 0;
#X connect 11 0 12 0;
#X connect 12 0 6 1;
