#N canvas 441 228 1220 474 10;
#X obj -13 232 print moog_loading;
#X obj -346 211 s \$1.memory.read;
#X obj -305 166 t b s;
#X obj -224 186 pack s \$1 s;
#X obj 0 0 cnv 15 315 110 empty empty Presets 200 10 0 14 -49933 -228856
0;
#X obj 4 51 flatgui/popup 300 27 grey90 popup mem1 mem2 mem3 mem4 mem5 mem6
mem7;
#X obj -81 42 r \$0.combo;
#X obj 345 92 s \$0.combo.text;
#X obj 9 183 r \$0.combo.text;
#X obj 9 82 bng 20 250 50 0 \$1.memory.read empty reload 24 9 0 10
-49933 -262144 -228856;
#X obj 250 83 bng 20 250 50 0 \$0.save empty save 24 9 0 10 -49933
-262144 -228856;
#X obj 302 188 s \$1.memory.write;
#X obj 190 117 r \$0.save;
#X obj -323 303 s \$0.current.set;
#X obj 139 157 del 10;
#X obj 146 175 symbol;
#X obj -11 137 r \$0.current;
#X obj 339 52 r \$0.combo.text.set;
#X obj -235 -99 loadbang;
#X obj -226 -81 del 5;
#X msg -46 -49 option relief flat;
#X obj 78 83 flatgui/entry 166 20 white black;
#X obj 273 -63 r \$0.current.set;
#X obj 80 115 s \$0.current;
#X obj 261 145 s \$0.current.set;
#X obj 191 142 t b b s;
#X msg 229 184 set \$1;
#X obj 423 211 select return;
#X msg 447 234 bang \, clear;
#X obj 423 279 s \$0.current.set;
#X obj 4 20 flatgui/popup 300 27 grey90 popup carpete default fujimo.hh violanoise.pressa
;
#X obj -5 -25 r \$0.folder;
#X obj 333 -8 r \$0.folder.text.set;
#X obj 338 29 s \$0.folder.text;
#N canvas 311 503 1167 393 folder 0;
#X obj -283 25 hcs/folder_list;
#X obj -269 -35 getdir;
#X obj -277 -81 bng 15 250 50 0 empty empty empty 17 7 0 10 -262144
-1 -1;
#X msg -315 45 options;
#X msg -203 71 append \$1;
#X obj -243 -64 t b b;
#X obj -229 -117 del 5;
#X obj -114 18 iemlib/splitfilename;
#X obj -266 127 s \$0.folder;
#X obj -265 -124 bng 15 250 50 0 empty empty empty 17 7 0 10 -262144
-1 -1;
#X obj 163 -170 r \$0.folder.text;
#X obj 163 -44 pack s s;
#X obj 193 43 hcs/folder_list;
#X msg 161 63 options;
#X msg 284 68 append \$1;
#X obj 366 -5 iemlib/splitfilename;
#X obj 210 145 s \$0.combo;
#X msg -191 -31 symbol \$1/presets/*;
#X obj 142 -87 t s b s;
#X obj -4 144 s \$0.folder.fs;
#X obj 31 7 pack s s;
#X msg 16 99 symbol \$2/presets/\$1;
#X obj 107 -122 t b s;
#X msg 170 117 0;
#X obj 347 -178 r \$0.preset.set;
#X obj -252 -89 t b b;
#X obj -40 -157 symbol \$2;
#X obj -48 -181 bng 15 250 50 0 empty empty empty 17 7 0 10 -262144
-1 -1;
#X obj -108 -173 del 5;
#X obj -19 -96 s \$0.preset.set;
#X obj -203 144 s \$0.folder.text.set;
#X msg -136 97 symbol default;
#X obj 311 103 symbol;
#X symbolatom 379 121 10 0 0 0 - - -;
#X obj 344 147 s \$0.combo.text.set;
#X msg 570 -206 symbol fujimo/hh.pad1;
#X obj 303 -78 r \$0.combo.text;
#X obj 237 -33 tgl 15 0 empty empty empty 17 7 0 10 -262144 -1 -1 0
1;
#X msg 281 -113 1;
#X msg 298 -54 0;
#X msg 496 -206 symbol mem1;
#X obj 498 -150 t s b;
#X obj 418 -81 s \$0.folder.text.set;
#X obj -19 -21 s \$0.root.fs;
#X symbolatom 358 -147 10 0 0 0 - - -;
#X obj 104 11 demux 0 1;
#X obj -358 -102 r \$0.reload;
#X obj 33 -139 sel s;
#X msg 70 -160 symbol 0;
#X obj 30 -183 t s b;
#X obj 488 -125 moog/presetsplit;
#X obj -102 56 moog/presetfolders;
#X obj -368 -28 t b b b;
#X msg 180 10 symbol \$2/presets/\$1.*;
#X obj 467 12 s2l .;
#X obj 471 35 l2s /;
#X obj 434 66 iemlib/splitfilename;
#X obj -318 -205 r \$0.ready;
#X obj -311 -182 tgl 15 0 empty empty empty 17 7 0 10 -262144 -1 -1
0 1;
#X obj -277 -174 sel 0;
#X obj -227 -150 b;
#X symbolatom 182 -137 10 0 0 0 - - -;
#X obj 586 47 print;
#X msg 518 -11 symbol .;
#X msg 522 19 symbol /;
#X obj 592 -12 loadbang;
#X msg -129 -77 bgcolour grey90;
#X msg -224 -175 -1;
#X connect 0 0 7 0;
#X connect 1 0 17 0;
#X connect 1 0 11 1;
#X connect 1 0 20 1;
#X connect 1 0 43 0;
#X connect 2 0 52 0;
#X connect 3 0 8 0;
#X connect 4 0 8 0;
#X connect 5 0 31 0;
#X connect 5 1 52 0;
#X connect 6 0 25 0;
#X connect 7 1 51 0;
#X connect 9 0 6 0;
#X connect 10 0 22 0;
#X connect 10 0 61 0;
#X connect 11 0 53 0;
#X connect 12 0 15 0;
#X connect 13 0 16 0;
#X connect 14 0 16 0;
#X connect 15 1 54 0;
#X connect 17 0 0 0;
#X connect 18 0 11 0;
#X connect 18 1 13 0;
#X connect 18 2 20 0;
#X connect 20 0 21 0;
#X connect 21 0 19 0;
#X connect 22 0 45 0;
#X connect 22 1 18 0;
#X connect 23 0 16 0;
#X connect 24 0 41 0;
#X connect 24 0 44 0;
#X connect 25 0 28 0;
#X connect 25 1 5 0;
#X connect 26 0 49 0;
#X connect 27 0 26 0;
#X connect 28 0 26 0;
#X connect 31 0 30 0;
#X connect 32 0 33 0;
#X connect 32 0 34 0;
#X connect 35 0 41 0;
#X connect 36 0 39 0;
#X connect 37 0 45 1;
#X connect 38 0 37 0;
#X connect 39 0 37 0;
#X connect 40 0 41 0;
#X connect 41 0 50 0;
#X connect 41 1 38 0;
#X connect 45 0 23 0;
#X connect 45 1 32 0;
#X connect 46 0 52 0;
#X connect 47 1 29 0;
#X connect 48 0 47 1;
#X connect 49 0 47 0;
#X connect 49 1 48 0;
#X connect 50 0 42 0;
#X connect 50 1 32 1;
#X connect 51 0 4 0;
#X connect 52 0 1 0;
#X connect 52 1 3 0;
#X connect 52 2 51 1;
#X connect 53 0 12 0;
#X connect 54 0 55 0;
#X connect 55 0 56 0;
#X connect 55 0 62 0;
#X connect 56 1 14 0;
#X connect 57 0 58 0;
#X connect 58 0 59 0;
#X connect 59 0 60 0;
#X connect 59 0 67 0;
#X connect 60 0 6 0;
#X connect 60 0 66 0;
#X connect 63 0 54 1;
#X connect 64 0 55 1;
#X connect 65 0 63 0;
#X connect 65 0 64 0;
#X connect 66 0 8 0;
#X connect 66 0 16 0;
#X connect 67 0 59 1;
#X restore -256 44 pd folder;
#X obj -136 135 r \$0.folder.fs;
#X obj -181 250 r \$0.folder.text;
#X obj -204 276 pack s s;
#X obj 276 212 r \$0.root.fs;
#X obj 192 278 pack s s s \$1;
#X obj 12 315 s \$0.preset.set;
#X obj 3 268 pack s s;
#X obj 119 229 t s b s;
#X obj 119 291 s \$0.reload;
#X obj 73 136 list2symbol _;
#X msg -318 266 set \$2.\$1;
#X msg 11 292 symbol \$1.\$2;
#X msg 225 303 \; \$4.memory write \$3/presets/\$1.\$2;
#X obj -154 8 route bang;
#X obj -160 39 s \$0.ready;
#X obj 160 205 moog/presetsplit;
#X msg 220 351 symbol _;
#X obj 288 345 loadbang;
#X msg -219 212 \; \$2.memory const 0 \; \$2.memory read \$3.\$1;
#X connect 2 0 1 0;
#X connect 2 1 3 0;
#X connect 2 1 37 0;
#X connect 3 0 53 0;
#X connect 5 0 48 0;
#X connect 5 1 7 0;
#X connect 6 0 5 0;
#X connect 8 0 0 0;
#X connect 8 0 2 0;
#X connect 12 0 24 0;
#X connect 14 0 15 0;
#X connect 15 0 50 0;
#X connect 16 0 44 0;
#X connect 17 0 5 1;
#X connect 18 0 19 0;
#X connect 19 0 20 0;
#X connect 20 0 21 0;
#X connect 21 0 23 0;
#X connect 21 1 27 0;
#X connect 22 0 21 0;
#X connect 25 0 14 0;
#X connect 25 1 11 0;
#X connect 25 2 15 1;
#X connect 26 0 24 0;
#X connect 27 0 28 0;
#X connect 28 0 29 0;
#X connect 30 0 48 0;
#X connect 30 1 33 0;
#X connect 31 0 30 0;
#X connect 32 0 30 1;
#X connect 35 0 3 2;
#X connect 36 0 37 1;
#X connect 37 0 45 0;
#X connect 38 0 39 2;
#X connect 39 0 47 0;
#X connect 41 0 46 0;
#X connect 42 0 41 0;
#X connect 42 1 43 0;
#X connect 42 2 39 0;
#X connect 44 0 25 0;
#X connect 45 0 13 0;
#X connect 46 0 40 0;
#X connect 48 0 49 0;
#X connect 50 0 42 0;
#X connect 50 1 39 1;
#X connect 50 1 41 1;
#X connect 51 0 44 1;
#X connect 52 0 51 0;
#X coords 0 -1 1 1 315 110 1 0 0;
