#N canvas 518 124 388 440 10;
#X obj 134 86 list-drip;
#X obj 282 274 t a;
#X msg 138 317 32;
#X obj 138 295 t b a;
#X msg 138 269 set \$1%c;
#X msg 282 302 set \$1%s;
#X obj 138 201 makefilename %s;
#X obj 138 342 makefilename %c;
#X obj 109 360 symbol;
#X obj 105 23 inlet;
#X obj 105 391 outlet;
#X msg 300 183 set %s;
#X obj 138 138 route symbol float;
#X obj 138 166 symbol;
#X obj 190 165 makefilename %d;
#X text 259 377 Jack/RYBN 2009;
#X obj 306 93 list length;
#X obj 105 52 t b a b b a;
#X obj 259 131 sel;
#X obj 309 122 - 1;
#X obj 158 239 demux 0 1;
#X msg 289 219 0;
#X msg 255 217 1;
#X floatatom 331 147 5 0 0 0 - - -;
#X floatatom 308 164 9 0 0 0 - - -;
#X obj 140 113 t a b;
#X obj 232 99 counter;
#X connect 0 0 25 0;
#X connect 1 0 5 0;
#X connect 2 0 7 0;
#X connect 3 0 2 0;
#X connect 3 1 7 0;
#X connect 4 0 3 0;
#X connect 5 0 6 0;
#X connect 6 0 20 0;
#X connect 7 0 1 0;
#X connect 7 0 8 1;
#X connect 8 0 10 0;
#X connect 9 0 17 0;
#X connect 11 0 6 0;
#X connect 12 0 13 0;
#X connect 12 1 14 0;
#X connect 13 0 6 0;
#X connect 14 0 6 0;
#X connect 16 0 19 0;
#X connect 17 0 8 0;
#X connect 17 1 0 0;
#X connect 17 3 11 0;
#X connect 17 3 26 2;
#X connect 17 4 16 0;
#X connect 18 0 22 0;
#X connect 18 1 21 0;
#X connect 19 0 18 1;
#X connect 19 0 23 0;
#X connect 20 0 4 0;
#X connect 20 1 8 1;
#X connect 21 0 20 1;
#X connect 22 0 20 1;
#X connect 25 0 12 0;
#X connect 25 1 26 0;
#X connect 26 0 18 0;
#X connect 26 0 24 0;
