#N canvas 518 334 458 320 10;
#X obj 287 120 t b f;
#X obj 288 145 del 1;
#X obj 296 189 f;
#X obj 292 95 sel 0;
#X obj 210 207 print b;
#X obj 159 209 print a;
#X obj 140 126 print debug;
#X obj 136 11 bng 15 250 50 0 empty empty empty 17 7 0 10 -262144 -1
-1;
#X floatatom 186 60 5 0 0 0 - - -;
#X obj 166 27 t b b;
#X obj 345 101 spigot;
#X obj 296 69 spigot;
#X msg 368 13 1;
#X obj 334 41 not;
#X obj 351 141 t f b;
#X msg 411 16 0;
#X obj 175 90 repack 127;
#X obj 276 50 t f f;
#X obj 269 268 bng 15 250 50 0 empty empty empty 17 7 0 10 -262144
-1 -1;
#X obj 263 238 repack 127;
#X obj 304 271 print;
#X obj 272 214 bng 15 250 50 0 empty empty empty 17 7 0 10 -262144
-1 -1;
#X obj 220 25 route bang float;
#X floatatom 334 210 5 0 0 0 - - -;
#X obj 279 3 drip 222;
#X obj 244 65 bng 15 250 50 0 empty empty empty 17 7 0 10 -262144 -1
-1;
#X connect 0 0 1 0;
#X connect 0 1 2 1;
#X connect 1 0 2 0;
#X connect 2 0 16 0;
#X connect 3 1 0 0;
#X connect 7 0 9 0;
#X connect 8 0 16 0;
#X connect 9 0 16 0;
#X connect 9 1 12 0;
#X connect 10 0 14 0;
#X connect 11 0 3 0;
#X connect 12 0 10 1;
#X connect 12 0 13 0;
#X connect 13 0 11 1;
#X connect 14 0 5 0;
#X connect 14 1 15 0;
#X connect 15 0 10 1;
#X connect 15 0 13 0;
#X connect 16 0 6 0;
#X connect 16 0 24 0;
#X connect 17 0 10 0;
#X connect 17 1 11 0;
#X connect 19 0 20 0;
#X connect 19 0 18 0;
#X connect 21 0 19 0;
#X connect 22 1 17 0;
#X connect 22 2 15 0;
#X connect 23 0 19 0;
#X connect 24 0 22 0;
#X connect 24 0 25 0;
