#N canvas 933 489 450 300 10;
#X obj 104 141 s \$1.osc.feedback;
#X obj 373 30 loadbang;
#X obj 58 74 pack f s;
#X msg 58 105 \$2 \$1;
#X obj 53 35 r \$2.feedback;
#X obj 353 56 symbol \$3;
#X connect 1 0 5 0;
#X connect 2 0 3 0;
#X connect 3 0 0 0;
#X connect 4 0 2 0;
#X connect 5 0 2 1;
