#N canvas 210 352 689 299 10;
#X obj 91 217 s \$1.osc.feedback;
#X obj 373 30 loadbang;
#X obj 58 74 pack f s;
#X msg 58 105 \$2 \$1;
#X obj 53 35 r \$2.feedback;
#X obj 353 56 symbol \$3;
#X obj 170 144 pack f s;
#X obj 357 86 symbol \$3/rms;
#X msg 170 175 \$2 \$1;
#X obj 210 100 \$4Transform;
#X connect 1 0 5 0;
#X connect 1 0 7 0;
#X connect 2 0 3 0;
#X connect 3 0 0 0;
#X connect 4 0 2 0;
#X connect 4 0 9 0;
#X connect 5 0 2 1;
#X connect 6 0 8 0;
#X connect 7 0 6 1;
#X connect 8 0 0 0;
#X connect 9 0 6 0;
