#N canvas 0 50 450 300 10;
#X obj 50 189 symbol2list /;
#X msg 49 211 \$1;
#X obj 51 236 - 1;
#X obj 165 41 inlet;
#X obj 25 100 mrpeach/routeOSC \$1/1;
#X obj 107 219 t b f;
#X obj 130 287 outlet;
#X obj 104 260 pack s f;
#X obj 92 239 symbol \$1;
#X obj 212 254 outlet;
#X obj 87 130 unpack s f;
#X obj 94 160 spigot;
#X connect 0 0 1 0;
#X connect 1 0 2 0;
#X connect 2 0 5 0;
#X connect 3 0 4 0;
#X connect 4 0 10 0;
#X connect 4 1 9 0;
#X connect 5 0 8 0;
#X connect 5 1 7 1;
#X connect 7 0 6 0;
#X connect 8 0 7 0;
#X connect 10 0 11 0;
#X connect 10 1 11 1;
#X connect 11 0 0 0;
