#N canvas 0 50 569 402 10;
#X obj 104 141 s \$1.osc.feedback;
#X obj 182 75 + 1;
#X obj 55 50 r \$1.ctrl.oscillator.\$2.\$3.feedback;
#X msg -11 101 /moog/oscillator/\$2/\$3 \$1;
#X msg 234 101 /touchosc/moog/oscillator/\$2/\$3/1/\$1 1;
#X obj 354 56 symbol \$3;
#X obj 373 30 loadbang;
#X obj 213 79 pack f \$2 s;
#X obj 58 74 pack f \$2 s;
#X connect 1 0 7 0;
#X connect 2 0 1 0;
#X connect 2 0 8 0;
#X connect 3 0 0 0;
#X connect 4 0 0 0;
#X connect 5 0 7 2;
#X connect 5 0 8 2;
#X connect 6 0 5 0;
#X connect 7 0 4 0;
#X connect 8 0 3 0;
