#N canvas 0 22 450 300 10;
#X obj 102 112 pow 16;
#X msg 105 69 2;
#X floatatom 109 158 5 0 0 0 - - -;
#X obj 219 170 saturator~;
#X msg 276 144 thresh 0.75;
#X obj 264 59 phasor~;
#X msg 199 42 1;
#X floatatom 175 99 9 0 0 0 - - -;
#X obj 264 83 *~ 2;
#X obj 263 108 -~ 1;
#X msg 336 90 0;
#X obj 212 214 tabwrite~ static_moog_trans;
#X obj 348 48 bng 15 250 50 0 empty empty empty 17 7 0 10 -262144 -1
-1;
#X obj 179 70 divinv 44100;
#X connect 0 0 2 0;
#X connect 0 0 13 0;
#X connect 1 0 0 0;
#X connect 3 0 11 0;
#X connect 4 0 3 0;
#X connect 5 0 8 0;
#X connect 8 0 9 0;
#X connect 9 0 3 0;
#X connect 10 0 5 1;
#X connect 12 0 10 0;
#X connect 12 0 11 0;
#X connect 13 0 7 0;
#X connect 13 0 5 0;
