#N canvas 0 22 450 300 10;
#X text 177 160 range -22 to 22 midi;
#X text 172 203 center at middle-c \, midi 60;
#X obj 171 89 inlet~;
#X obj 152 252 outlet~;
#X obj 150 112 abs~;
#X obj 150 140 +~ 1;
#X connect 2 0 4 0;
#X connect 4 0 5 0;
#X connect 5 0 3 0;
