#N canvas 553 350 816 494 10;
#X obj 323 370 -~;
#X obj 315 443 outlet~;
#X obj 464 120 inlet;
#X obj 408 254 + 0.5;
#X obj 327 250 f 0;
#X obj 389 292 f 0.5;
#X obj 221 304 phasor~ 0;
#X obj 339 321 phasor~ 0.5;
#X obj 349 192 bng 15 250 50 0 empty empty empty 17 7 0 10 -262144
-1 -1;
#X obj 336 412 *~ 2;
#X obj 383 28 loadbang;
#X obj 461 285 +~ 0.5;
#X obj 479 308 /~ 1;
#X obj 490 328 *~ 1;
#X obj 507 390 *~;
#X obj 691 390 *~;
#X obj 710 325 abs~;
#X obj 693 290 +~ -1;
#X obj 663 412 -~;
#X obj 479 426 -~ 0.5;
#X obj 112 350 phasor~ 0;
#X obj 168 218 *~ 2;
#X obj 188 342 * 2;
#X obj 158 84 inlet~;
#X connect 0 0 11 0;
#X connect 2 0 3 0;
#X connect 2 0 4 0;
#X connect 3 0 5 0;
#X connect 4 0 6 1;
#X connect 4 0 22 0;
#X connect 5 0 7 1;
#X connect 6 0 0 0;
#X connect 7 0 0 1;
#X connect 8 0 4 0;
#X connect 8 0 5 0;
#X connect 9 0 1 0;
#X connect 10 0 8 0;
#X connect 11 0 12 0;
#X connect 12 0 13 0;
#X connect 13 0 14 1;
#X connect 13 0 17 0;
#X connect 14 0 19 0;
#X connect 15 0 18 1;
#X connect 16 0 15 1;
#X connect 16 0 18 0;
#X connect 17 0 16 0;
#X connect 18 0 19 0;
#X connect 19 0 9 0;
#X connect 20 0 14 0;
#X connect 20 0 15 0;
#X connect 21 0 20 0;
#X connect 22 0 20 1;
#X connect 23 0 21 0;
#X connect 23 0 6 0;
#X connect 23 0 7 0;
