#N canvas 805 354 794 517 10;
#X obj 323 370 -~;
#X obj 333 491 outlet~;
#X obj 464 120 inlet;
#X obj 328 250 f 0;
#X obj 221 304 phasor~ 0;
#X obj 349 192 bng 15 250 50 0 empty empty empty 17 7 0 10 -262144
-1 -1;
#X obj 336 396 *~ 2;
#X obj 383 28 loadbang;
#X obj 408 254 + 0.25;
#X obj 389 292 f 0.25;
#X obj 339 321 phasor~ 0.25;
#X obj 331 423 -~ 0.5;
#X obj 512 445 outlet~;
#X obj 595 301 moog/saw~;
#X obj 373 466 *~ 0.75;
#X obj 398 439 *~ 0.5;
#X obj 341 452 +~;
#X obj 454 377 clip~ -0.25 1;
#X obj 453 412 -~ 0.333333;
#X obj 152 167 inlet~;
#X connect 0 0 6 0;
#X connect 2 0 3 0;
#X connect 2 0 8 0;
#X connect 3 0 4 1;
#X connect 3 0 13 1;
#X connect 4 0 0 0;
#X connect 5 0 3 0;
#X connect 5 0 9 0;
#X connect 6 0 11 0;
#X connect 7 0 5 0;
#X connect 8 0 9 0;
#X connect 9 0 10 1;
#X connect 10 0 0 1;
#X connect 11 0 16 0;
#X connect 13 0 17 0;
#X connect 14 0 1 0;
#X connect 15 0 16 1;
#X connect 16 0 14 0;
#X connect 17 0 18 0;
#X connect 18 0 12 0;
#X connect 18 0 15 0;
#X connect 19 0 4 0;
#X connect 19 0 10 0;
#X connect 19 0 13 0;
