#N canvas 278 313 450 300 10;
#X obj 236 47 del 5;
#X obj 250 23 loadbang;
#X obj 81 55 inlet;
#X obj 78 183 netsend;
#X obj 224 96 pack s \$2;
#X obj 228 73 symbol \$1;
#X msg 213 123 connect \$1 \$2;
#X connect 0 0 5 0;
#X connect 1 0 0 0;
#X connect 2 0 3 0;
#X connect 4 0 6 0;
#X connect 5 0 4 0;
#X connect 6 0 3 0;
