#N canvas 278 313 450 300 10;
#X obj 79 184 mrpeach/udpsend;
#X obj 241 50 del 5;
#X obj 250 23 loadbang;
#X obj 81 55 inlet;
#X obj 84 94 mrpeach/packOSC;
#X msg 210 123 connect \$1 \$2;
#X obj 230 76 symbol \$1;
#X obj 225 96 pack s \$2;
#X connect 1 0 6 0;
#X connect 2 0 1 0;
#X connect 3 0 4 0;
#X connect 4 0 0 0;
#X connect 5 0 0 0;
#X connect 6 0 7 0;
#X connect 7 0 5 0;
