#N canvas 100 280 809 339 10;
#X obj 266 169 getdir;
#X obj 229 120 t b b;
#X msg 646 279 \; \$1.patch \$2;
#X obj 220 2 loadbang;
#X obj 222 58 t b b;
#X obj 398 188 f \$0;
#X msg 226 244 \; pd open \$1 \$2 1 1 \;;
#X obj 260 217 pack s s;
#X obj 593 245 pack f s;
#X obj 643 218 symbol \$1;
#X floatatom 580 195 5 0 0 0 - - -;
#X obj 398 229 s singleton.loaded;
#X obj 219 93 demux 0 1;
#X msg 269 63 1;
#X obj 295 44 t b f;
#X obj 361 105 f;
#X obj 314 12 r \$0.singleton.response;
#X obj 381 55 r singleton.load;
#X obj 596 164 t f b;
#X symbolatom 663 247 10 0 0 0 - - -;
#X msg 167 153 singleton.pd;
#X connect 0 0 7 1;
#X connect 1 0 20 0;
#X connect 1 1 0 0;
#X connect 3 0 4 0;
#X connect 4 0 12 0;
#X connect 4 1 5 0;
#X connect 5 0 11 0;
#X connect 7 0 6 0;
#X connect 8 0 2 0;
#X connect 9 0 8 1;
#X connect 9 0 19 0;
#X connect 12 0 1 0;
#X connect 12 1 15 0;
#X connect 13 0 12 1;
#X connect 14 0 13 0;
#X connect 14 1 15 1;
#X connect 15 0 18 0;
#X connect 16 0 14 0;
#X connect 17 0 15 0;
#X connect 18 0 8 0;
#X connect 18 0 10 0;
#X connect 18 1 9 0;
#X connect 20 0 7 0;
