#N canvas 847 555 204 63 10;
#N canvas 0 22 733 395 code 0;
#X obj 94 31 loadbang;
#X obj 88 107 s singleton.load;
#X obj 100 73 f \$0;
#X obj 216 4 r \$0.patch;
#X obj 20 9 r singleton.loaded;
#X obj 31 192 pack f \$0;
#X msg 64 239 \; \$1.singleton.response \$2;
#X obj 292 62 counter;
#X obj 259 127 pack s \$0 f;
#N canvas 0 22 450 300 \$0.data 0;
#X restore 366 31 pd \$0.data;
#X msg 286 179 \; pd-\$2.data obj 10 \$3 \$1 \;;
#X obj 583 172 list;
#X obj 191 50 t s b;
#X obj 543 276 list split 1;
#X obj 503 204 list;
#X obj 511 236 list;
#X obj 603 304 b;
#X obj 502 303 sel s;
#X obj 453 243 symbol;
#X obj 537 124 list append;
#X obj 419 140 t b s;
#X obj 389 108 symbol;
#X obj 261 256 print singleton instatiation;
#X obj 320 92 * 20;
#X connect 0 0 2 0;
#X connect 2 0 1 0;
#X connect 3 0 21 0;
#X connect 4 0 5 0;
#X connect 5 0 6 0;
#X connect 7 0 23 0;
#X connect 8 0 10 0;
#X connect 11 0 19 1;
#X connect 12 0 8 0;
#X connect 12 0 19 0;
#X connect 12 0 22 0;
#X connect 12 1 7 0;
#X connect 13 0 17 0;
#X connect 13 1 15 1;
#X connect 13 2 18 0;
#X connect 14 0 15 0;
#X connect 15 0 13 0;
#X connect 16 0 15 0;
#X connect 17 1 16 0;
#X connect 18 0 12 0;
#X connect 19 0 11 0;
#X connect 19 0 14 1;
#X connect 20 0 14 0;
#X connect 20 1 17 1;
#X connect 20 1 18 1;
#X connect 21 0 20 0;
#X connect 23 0 8 2;
#X restore 15 4 pd code;
#X text 8 31 singleton holder \, do not close;
