#N canvas 0 22 812 526 10;
#X obj 315 443 outlet~;
#X obj 464 120 inlet;
#X obj 125 66 inlet~;
#X obj 529 152 loadbang;
#X obj 485 245 + 0;
#X obj 333 209 *~ 2.5;
#X obj 357 335 *~ -0.5;
#X msg 505 177 0.5;
#X obj 483 275 * 2.5;
#X obj 343 390 *~ 0.65;
#X obj 280 278 moog/saw~ \$1;
#X obj 378 287 moog/tri~ \$1;
#X connect 1 0 4 0;
#X connect 1 0 10 1;
#X connect 2 0 5 0;
#X connect 2 0 10 0;
#X connect 3 0 7 0;
#X connect 4 0 8 0;
#X connect 5 0 11 0;
#X connect 6 0 9 0;
#X connect 7 0 4 0;
#X connect 7 0 10 1;
#X connect 8 0 11 1;
#X connect 9 0 0 0;
#X connect 10 0 9 0;
#X connect 11 0 6 0;
