#N canvas 299 280 697 525 10;
#X declare -stdlib saturator/saturator;
#X obj 315 443 outlet~;
#X obj 464 120 inlet;
#X obj 125 66 inlet~;
#X obj 103 319 phasor~;
#X obj 99 373 -~ 1;
#X obj 303 262 declare -stdlib saturator/saturator;
#X msg 430 340 autogain 1;
#X msg 444 364 thresh 0.9;
#X msg 442 397 order 2;
#X obj 550 282 loadbang;
#X msg 250 387 saturator~;
#X obj 532 313 del 1500;
#X obj 98 347 *~ 2;
#X connect 1 0 3 1;
#X connect 2 0 3 0;
#X connect 3 0 12 0;
#X connect 4 0 10 0;
#X connect 6 0 10 0;
#X connect 7 0 10 0;
#X connect 8 0 10 0;
#X connect 9 0 11 0;
#X connect 10 0 0 0;
#X connect 11 0 6 0;
#X connect 11 0 7 0;
#X connect 11 0 8 0;
#X connect 12 0 4 0;
