#N canvas 714 422 450 300 10;
#X declare -stdlib saturator/saturator;
#X obj 136 44 inlet~;
#X obj 136 66 tri~;
#X obj 130 165 outlet~;
#X obj 98 9 declare -stdlib saturator/saturator;
#X msg 225 87 autogain 1;
#X msg 239 111 thresh 0.9;
#X msg 237 144 order 2;
#X msg 125 119 saturator~;
#X obj 327 60 del 500;
#X obj 345 29 loadbang;
#X obj 201 50 inlet;
#X connect 0 0 1 0;
#X connect 1 0 7 0;
#X connect 4 0 7 0;
#X connect 5 0 7 0;
#X connect 6 0 7 0;
#X connect 7 0 2 0;
#X connect 8 0 4 0;
#X connect 8 0 5 0;
#X connect 8 0 6 0;
#X connect 9 0 8 0;
#X connect 10 0 1 1;
