#N canvas 335 50 739 495 10;
#X obj 323 370 -~;
#X obj 313 470 outlet~;
#X obj 464 120 inlet;
#X obj 408 254 + 0.5;
#X obj 328 250 f 0;
#X obj 389 292 f 0.5;
#X obj 221 304 phasor~ 0;
#X obj 339 321 phasor~ 0.5;
#X obj 349 192 bng 15 250 50 0 empty empty empty 17 7 0 10 -262144
-1 -1;
#X obj 383 28 loadbang;
#X obj 504 198 f \$2;
#X obj 484 227 + 0.5;
#X obj 495 163 t b b;
#X obj 392 408 -~;
#X obj 546 256 + 0.75;
#X obj 379 439 clip~ -0.75 0.75;
#X obj 324 424 /~ 0.75;
#X obj 227 127 inlet~;
#X obj 521 291 tri~ \$1;
#X obj 521 321 *~ 4;
#X obj 225 423 cyclone/tanh~;
#X obj 239 396 *~ 3.14159;
#X connect 0 0 13 0;
#X connect 2 0 3 0;
#X connect 2 0 4 0;
#X connect 3 0 5 0;
#X connect 4 0 6 1;
#X connect 4 0 14 0;
#X connect 5 0 7 1;
#X connect 6 0 0 0;
#X connect 7 0 0 1;
#X connect 8 0 4 0;
#X connect 8 0 5 0;
#X connect 9 0 12 0;
#X connect 10 0 11 0;
#X connect 11 0 3 1;
#X connect 11 0 5 1;
#X connect 11 0 7 1;
#X connect 12 0 8 0;
#X connect 12 1 10 0;
#X connect 13 0 15 0;
#X connect 14 0 18 1;
#X connect 15 0 16 0;
#X connect 16 0 21 0;
#X connect 17 0 6 0;
#X connect 17 0 7 0;
#X connect 17 0 18 0;
#X connect 18 0 19 0;
#X connect 19 0 13 1;
#X connect 20 0 1 0;
#X connect 21 0 20 0;
