#N canvas 288 163 733 501 10;
#X obj 48 191 mtof;
#X obj 270 218 phasor~;
#X obj 273 116 bng 15 250 50 0 empty empty empty 0 -6 0 8 -262144 -1
-1;
#X msg 310 181 0;
#X obj 319 250 phasor~;
#X obj 302 299 -~;
#X obj 106 43 inlet;
#X obj 294 372 outlet~;
#X obj 117 111 line~;
#X msg 159 78 \$1 \, \$2 \$3;
#X obj 294 -8 unpack f f f;
#X floatatom 223 60 5 0 0 0 - - -, f 5;
#X floatatom 270 65 5 0 0 0 - - -, f 5;
#X floatatom 289 54 5 0 0 0 - - -, f 5;
#X obj 351 90 spigot 0;
#X msg 381 44 1;
#X msg 420 48 0;
#X msg 462 65 1;
#X msg 499 56 0;
#X obj 384 121 spigot 1;
#X floatatom 427 144 5 0 0 0 - - -, f 5;
#X obj 448 17 bng 15 250 50 0 empty empty empty 0 -6 0 8 -262144 -1
-1;
#X obj 186 -8 t a a a;
#X msg 376 186 0.5;
#X obj 507 205 inlet;
#X obj 227 293 +~ 0;
#X obj 446 239 f \$1;
#X obj 445 311 / 2;
#X obj 232 258 *~ 1;
#X obj 431 214 loadbang;
#X obj 449 287 -;
#X msg 453 260 1 \$1;
#X connect 0 0 1 0;
#X connect 0 0 4 0;
#X connect 0 0 2 0;
#X connect 1 0 28 0;
#X connect 2 0 3 0;
#X connect 2 0 23 0;
#X connect 3 0 1 1;
#X connect 4 0 5 1;
#X connect 5 0 7 0;
#X connect 6 0 22 0;
#X connect 8 0 1 0;
#X connect 8 0 4 0;
#X connect 9 0 8 0;
#X connect 9 0 2 0;
#X connect 10 0 11 0;
#X connect 10 1 12 0;
#X connect 10 2 13 0;
#X connect 10 2 15 0;
#X connect 10 2 18 0;
#X connect 10 2 21 0;
#X connect 14 0 16 0;
#X connect 14 0 9 0;
#X connect 14 0 17 0;
#X connect 15 0 14 1;
#X connect 16 0 14 1;
#X connect 17 0 19 1;
#X connect 18 0 19 1;
#X connect 19 0 8 0;
#X connect 19 0 2 0;
#X connect 19 0 20 0;
#X connect 22 0 14 0;
#X connect 22 1 19 0;
#X connect 22 2 10 0;
#X connect 23 0 4 1;
#X connect 24 0 26 0;
#X connect 25 0 5 0;
#X connect 26 0 28 1;
#X connect 26 0 31 0;
#X connect 27 0 25 1;
#X connect 28 0 25 0;
#X connect 29 0 26 0;
#X connect 30 0 27 0;
#X connect 31 0 30 0;
