#N canvas 569 78 812 615 10;
#X declare -stdlib saturator/saturator;
#X obj 317 482 outlet~;
#X obj 464 120 inlet;
#X obj 125 66 inlet~;
#X obj 529 152 loadbang;
#X obj 146 259 sq~;
#X obj 240 281 saw~ \$1;
#X obj 372 291 tri~ \$1;
#X obj 146 303 /~ 2;
#X obj 146 281 +~ 1;
#X obj 183 385 -~;
#X obj 132 351 sig~ 1;
#X obj 247 322 *~, f 4;
#X obj 278 358 *~, f 4;
#X msg 505 177 0.5;
#X obj 328 312 *~ -1;
#X obj 328 356 -~ 0.25;
#X obj 429 340 declare -stdlib saturator/saturator;
#X msg 556 418 autogain 1;
#X msg 570 442 thresh 0.9;
#X msg 568 475 order 2;
#X obj 658 391 del 500;
#X obj 676 360 loadbang;
#X obj 328 334 *~ 0.75;
#X obj 321 398 *~ 1.33333;
#X obj 319 418 +~ 0.333333;
#X msg 471 475 saturator~;
#X msg 85 464 saturator~;
#X msg 319 535 pull;
#X msg 395 534 autogain 0;
#X obj 135 548 -~;
#X obj 115 578 +~;
#X obj 244 257 *~ 2;
#X obj 175 561 *~ 0.6;
#X obj 175 583 -~ 0.4;
#X msg 237 443 thresh 0.9;
#X obj 384 564 loadbang;
#X connect 1 0 5 1;
#X connect 1 0 4 1;
#X connect 1 0 6 1;
#X connect 2 0 4 0;
#X connect 2 0 6 0;
#X connect 2 0 31 0;
#X connect 3 0 13 0;
#X connect 4 0 8 0;
#X connect 5 0 26 0;
#X connect 5 0 29 0;
#X connect 5 0 30 1;
#X connect 6 0 14 0;
#X connect 7 0 9 1;
#X connect 7 0 12 0;
#X connect 8 0 7 0;
#X connect 9 0 11 1;
#X connect 10 0 9 0;
#X connect 11 0 23 0;
#X connect 12 0 23 0;
#X connect 13 0 5 1;
#X connect 13 0 6 1;
#X connect 14 0 22 0;
#X connect 15 0 12 1;
#X connect 17 0 25 0;
#X connect 17 0 26 0;
#X connect 18 0 25 0;
#X connect 19 0 25 0;
#X connect 19 0 26 0;
#X connect 20 0 17 0;
#X connect 20 0 18 0;
#X connect 20 0 19 0;
#X connect 21 0 20 0;
#X connect 22 0 15 0;
#X connect 23 0 24 0;
#X connect 24 0 25 0;
#X connect 25 0 0 0;
#X connect 26 0 29 1;
#X connect 27 0 26 0;
#X connect 28 0 26 0;
#X connect 29 0 30 0;
#X connect 30 0 32 0;
#X connect 31 0 5 0;
#X connect 32 0 33 0;
#X connect 33 0 11 0;
#X connect 34 0 26 0;
#X connect 35 0 28 0;
#X connect 35 0 27 0;
#X connect 35 0 34 0;
